<?xml version="1.0" encoding="utf-8" standalone="no"?>
<!DOCTYPE svg PUBLIC "-//W3C//DTD SVG 1.1//EN"
  "http://www.w3.org/Graphics/SVG/1.1/DTD/svg11.dtd">
<!-- Created with matplotlib (https://matplotlib.org/) -->
<svg height="432pt" version="1.1" viewBox="0 0 576 432" width="576pt" xmlns="http://www.w3.org/2000/svg" xmlns:xlink="http://www.w3.org/1999/xlink">
 <metadata>
  <rdf:RDF xmlns:cc="http://creativecommons.org/ns#" xmlns:dc="http://purl.org/dc/elements/1.1/" xmlns:rdf="http://www.w3.org/1999/02/22-rdf-syntax-ns#">
   <cc:Work>
    <dc:type rdf:resource="http://purl.org/dc/dcmitype/StillImage"/>
    <dc:date>2021-05-13T14:45:17.714367</dc:date>
    <dc:format>image/svg+xml</dc:format>
    <dc:creator>
     <cc:Agent>
      <dc:title>Matplotlib v3.3.4, https://matplotlib.org/</dc:title>
     </cc:Agent>
    </dc:creator>
   </cc:Work>
  </rdf:RDF>
 </metadata>
 <defs>
  <style type="text/css">*{stroke-linecap:butt;stroke-linejoin:round;}</style>
 </defs>
 <g id="figure_1">
  <g id="patch_1">
   <path d="M 0 432 
L 576 432 
L 576 0 
L 0 0 
z
" style="fill:none;"/>
  </g>
  <g id="axes_1">
   <g id="patch_2">
    <path d="M 72 378 
L 518.4 378 
L 518.4 51.84 
L 72 51.84 
z
" style="fill:#ffffff;"/>
   </g>
   <g id="patch_3">
    <path clip-path="url(#p45c60efe75)" d="M -148564.336098 378 
L -148564.336098 51.84 
L 159.56073 51.84 
L 159.56073 378 
z
" style="fill:#8b0000;opacity:0.5;stroke:#8b0000;stroke-linejoin:miter;"/>
   </g>
   <g id="matplotlib.axis_1">
    <g id="xtick_1">
     <g id="line2d_1">
      <path clip-path="url(#p45c60efe75)" d="M 114.714183 378 
L 114.714183 51.84 
" style="fill:none;stroke:#b0b0b0;stroke-linecap:square;stroke-opacity:0.5;stroke-width:0.8;"/>
     </g>
     <g id="line2d_2">
      <defs>
       <path d="M 0 0 
L 0 3.5 
" id="m60d8061826" style="stroke:#000000;stroke-width:0.8;"/>
      </defs>
      <g>
       <use style="stroke:#000000;stroke-width:0.8;" x="114.714183" xlink:href="#m60d8061826" y="378"/>
      </g>
     </g>
     <g id="text_1">
      <!-- $\mathdefault{10^{-2}}$ -->
      <g transform="translate(102.964183 392.598437)scale(0.1 -0.1)">
       <defs>
        <path d="M 12.40625 8.296875 
L 28.515625 8.296875 
L 28.515625 63.921875 
L 10.984375 60.40625 
L 10.984375 69.390625 
L 28.421875 72.90625 
L 38.28125 72.90625 
L 38.28125 8.296875 
L 54.390625 8.296875 
L 54.390625 0 
L 12.40625 0 
z
" id="DejaVuSans-49"/>
        <path d="M 31.78125 66.40625 
Q 24.171875 66.40625 20.328125 58.90625 
Q 16.5 51.421875 16.5 36.375 
Q 16.5 21.390625 20.328125 13.890625 
Q 24.171875 6.390625 31.78125 6.390625 
Q 39.453125 6.390625 43.28125 13.890625 
Q 47.125 21.390625 47.125 36.375 
Q 47.125 51.421875 43.28125 58.90625 
Q 39.453125 66.40625 31.78125 66.40625 
z
M 31.78125 74.21875 
Q 44.046875 74.21875 50.515625 64.515625 
Q 56.984375 54.828125 56.984375 36.375 
Q 56.984375 17.96875 50.515625 8.265625 
Q 44.046875 -1.421875 31.78125 -1.421875 
Q 19.53125 -1.421875 13.0625 8.265625 
Q 6.59375 17.96875 6.59375 36.375 
Q 6.59375 54.828125 13.0625 64.515625 
Q 19.53125 74.21875 31.78125 74.21875 
z
" id="DejaVuSans-48"/>
        <path d="M 10.59375 35.5 
L 73.1875 35.5 
L 73.1875 27.203125 
L 10.59375 27.203125 
z
" id="DejaVuSans-8722"/>
        <path d="M 19.1875 8.296875 
L 53.609375 8.296875 
L 53.609375 0 
L 7.328125 0 
L 7.328125 8.296875 
Q 12.9375 14.109375 22.625 23.890625 
Q 32.328125 33.6875 34.8125 36.53125 
Q 39.546875 41.84375 41.421875 45.53125 
Q 43.3125 49.21875 43.3125 52.78125 
Q 43.3125 58.59375 39.234375 62.25 
Q 35.15625 65.921875 28.609375 65.921875 
Q 23.96875 65.921875 18.8125 64.3125 
Q 13.671875 62.703125 7.8125 59.421875 
L 7.8125 69.390625 
Q 13.765625 71.78125 18.9375 73 
Q 24.125 74.21875 28.421875 74.21875 
Q 39.75 74.21875 46.484375 68.546875 
Q 53.21875 62.890625 53.21875 53.421875 
Q 53.21875 48.921875 51.53125 44.890625 
Q 49.859375 40.875 45.40625 35.40625 
Q 44.1875 33.984375 37.640625 27.21875 
Q 31.109375 20.453125 19.1875 8.296875 
z
" id="DejaVuSans-50"/>
       </defs>
       <use transform="translate(0 0.765625)" xlink:href="#DejaVuSans-49"/>
       <use transform="translate(63.623047 0.765625)" xlink:href="#DejaVuSans-48"/>
       <use transform="translate(128.203125 39.046875)scale(0.7)" xlink:href="#DejaVuSans-8722"/>
       <use transform="translate(186.855469 39.046875)scale(0.7)" xlink:href="#DejaVuSans-50"/>
      </g>
     </g>
    </g>
    <g id="xtick_2">
     <g id="line2d_3">
      <path clip-path="url(#p45c60efe75)" d="M 263.691187 378 
L 263.691187 51.84 
" style="fill:none;stroke:#b0b0b0;stroke-linecap:square;stroke-opacity:0.5;stroke-width:0.8;"/>
     </g>
     <g id="line2d_4">
      <g>
       <use style="stroke:#000000;stroke-width:0.8;" x="263.691187" xlink:href="#m60d8061826" y="378"/>
      </g>
     </g>
     <g id="text_2">
      <!-- $\mathdefault{10^{-1}}$ -->
      <g transform="translate(251.941187 392.598437)scale(0.1 -0.1)">
       <use transform="translate(0 0.684375)" xlink:href="#DejaVuSans-49"/>
       <use transform="translate(63.623047 0.684375)" xlink:href="#DejaVuSans-48"/>
       <use transform="translate(128.203125 38.965625)scale(0.7)" xlink:href="#DejaVuSans-8722"/>
       <use transform="translate(186.855469 38.965625)scale(0.7)" xlink:href="#DejaVuSans-49"/>
      </g>
     </g>
    </g>
    <g id="xtick_3">
     <g id="line2d_5">
      <path clip-path="url(#p45c60efe75)" d="M 412.668191 378 
L 412.668191 51.84 
" style="fill:none;stroke:#b0b0b0;stroke-linecap:square;stroke-opacity:0.5;stroke-width:0.8;"/>
     </g>
     <g id="line2d_6">
      <g>
       <use style="stroke:#000000;stroke-width:0.8;" x="412.668191" xlink:href="#m60d8061826" y="378"/>
      </g>
     </g>
     <g id="text_3">
      <!-- $\mathdefault{10^{0}}$ -->
      <g transform="translate(403.868191 392.598437)scale(0.1 -0.1)">
       <use transform="translate(0 0.765625)" xlink:href="#DejaVuSans-49"/>
       <use transform="translate(63.623047 0.765625)" xlink:href="#DejaVuSans-48"/>
       <use transform="translate(128.203125 39.046875)scale(0.7)" xlink:href="#DejaVuSans-48"/>
      </g>
     </g>
    </g>
    <g id="xtick_4">
     <g id="line2d_7">
      <path clip-path="url(#p45c60efe75)" d="M 81.66382 378 
L 81.66382 51.84 
" style="fill:none;stroke:#b0b0b0;stroke-linecap:square;stroke-opacity:0.2;stroke-width:0.8;"/>
     </g>
     <g id="line2d_8">
      <defs>
       <path d="M 0 0 
L 0 2 
" id="mc3477fc46f" style="stroke:#000000;stroke-width:0.6;"/>
      </defs>
      <g>
       <use style="stroke:#000000;stroke-width:0.6;" x="81.66382" xlink:href="#mc3477fc46f" y="378"/>
      </g>
     </g>
    </g>
    <g id="xtick_5">
     <g id="line2d_9">
      <path clip-path="url(#p45c60efe75)" d="M 91.637353 378 
L 91.637353 51.84 
" style="fill:none;stroke:#b0b0b0;stroke-linecap:square;stroke-opacity:0.2;stroke-width:0.8;"/>
     </g>
     <g id="line2d_10">
      <g>
       <use style="stroke:#000000;stroke-width:0.6;" x="91.637353" xlink:href="#mc3477fc46f" y="378"/>
      </g>
     </g>
    </g>
    <g id="xtick_6">
     <g id="line2d_11">
      <path clip-path="url(#p45c60efe75)" d="M 100.276819 378 
L 100.276819 51.84 
" style="fill:none;stroke:#b0b0b0;stroke-linecap:square;stroke-opacity:0.2;stroke-width:0.8;"/>
     </g>
     <g id="line2d_12">
      <g>
       <use style="stroke:#000000;stroke-width:0.6;" x="100.276819" xlink:href="#mc3477fc46f" y="378"/>
      </g>
     </g>
    </g>
    <g id="xtick_7">
     <g id="line2d_13">
      <path clip-path="url(#p45c60efe75)" d="M 107.897369 378 
L 107.897369 51.84 
" style="fill:none;stroke:#b0b0b0;stroke-linecap:square;stroke-opacity:0.2;stroke-width:0.8;"/>
     </g>
     <g id="line2d_14">
      <g>
       <use style="stroke:#000000;stroke-width:0.6;" x="107.897369" xlink:href="#mc3477fc46f" y="378"/>
      </g>
     </g>
    </g>
    <g id="xtick_8">
     <g id="line2d_15">
      <path clip-path="url(#p45c60efe75)" d="M 159.56073 378 
L 159.56073 51.84 
" style="fill:none;stroke:#b0b0b0;stroke-linecap:square;stroke-opacity:0.2;stroke-width:0.8;"/>
     </g>
     <g id="line2d_16">
      <g>
       <use style="stroke:#000000;stroke-width:0.6;" x="159.56073" xlink:href="#mc3477fc46f" y="378"/>
      </g>
     </g>
    </g>
    <g id="xtick_9">
     <g id="line2d_17">
      <path clip-path="url(#p45c60efe75)" d="M 185.794278 378 
L 185.794278 51.84 
" style="fill:none;stroke:#b0b0b0;stroke-linecap:square;stroke-opacity:0.2;stroke-width:0.8;"/>
     </g>
     <g id="line2d_18">
      <g>
       <use style="stroke:#000000;stroke-width:0.6;" x="185.794278" xlink:href="#mc3477fc46f" y="378"/>
      </g>
     </g>
    </g>
    <g id="xtick_10">
     <g id="line2d_19">
      <path clip-path="url(#p45c60efe75)" d="M 204.407276 378 
L 204.407276 51.84 
" style="fill:none;stroke:#b0b0b0;stroke-linecap:square;stroke-opacity:0.2;stroke-width:0.8;"/>
     </g>
     <g id="line2d_20">
      <g>
       <use style="stroke:#000000;stroke-width:0.6;" x="204.407276" xlink:href="#mc3477fc46f" y="378"/>
      </g>
     </g>
    </g>
    <g id="xtick_11">
     <g id="line2d_21">
      <path clip-path="url(#p45c60efe75)" d="M 218.84464 378 
L 218.84464 51.84 
" style="fill:none;stroke:#b0b0b0;stroke-linecap:square;stroke-opacity:0.2;stroke-width:0.8;"/>
     </g>
     <g id="line2d_22">
      <g>
       <use style="stroke:#000000;stroke-width:0.6;" x="218.84464" xlink:href="#mc3477fc46f" y="378"/>
      </g>
     </g>
    </g>
    <g id="xtick_12">
     <g id="line2d_23">
      <path clip-path="url(#p45c60efe75)" d="M 230.640825 378 
L 230.640825 51.84 
" style="fill:none;stroke:#b0b0b0;stroke-linecap:square;stroke-opacity:0.2;stroke-width:0.8;"/>
     </g>
     <g id="line2d_24">
      <g>
       <use style="stroke:#000000;stroke-width:0.6;" x="230.640825" xlink:href="#mc3477fc46f" y="378"/>
      </g>
     </g>
    </g>
    <g id="xtick_13">
     <g id="line2d_25">
      <path clip-path="url(#p45c60efe75)" d="M 240.614357 378 
L 240.614357 51.84 
" style="fill:none;stroke:#b0b0b0;stroke-linecap:square;stroke-opacity:0.2;stroke-width:0.8;"/>
     </g>
     <g id="line2d_26">
      <g>
       <use style="stroke:#000000;stroke-width:0.6;" x="240.614357" xlink:href="#mc3477fc46f" y="378"/>
      </g>
     </g>
    </g>
    <g id="xtick_14">
     <g id="line2d_27">
      <path clip-path="url(#p45c60efe75)" d="M 249.253823 378 
L 249.253823 51.84 
" style="fill:none;stroke:#b0b0b0;stroke-linecap:square;stroke-opacity:0.2;stroke-width:0.8;"/>
     </g>
     <g id="line2d_28">
      <g>
       <use style="stroke:#000000;stroke-width:0.6;" x="249.253823" xlink:href="#mc3477fc46f" y="378"/>
      </g>
     </g>
    </g>
    <g id="xtick_15">
     <g id="line2d_29">
      <path clip-path="url(#p45c60efe75)" d="M 256.874373 378 
L 256.874373 51.84 
" style="fill:none;stroke:#b0b0b0;stroke-linecap:square;stroke-opacity:0.2;stroke-width:0.8;"/>
     </g>
     <g id="line2d_30">
      <g>
       <use style="stroke:#000000;stroke-width:0.6;" x="256.874373" xlink:href="#mc3477fc46f" y="378"/>
      </g>
     </g>
    </g>
    <g id="xtick_16">
     <g id="line2d_31">
      <path clip-path="url(#p45c60efe75)" d="M 308.537734 378 
L 308.537734 51.84 
" style="fill:none;stroke:#b0b0b0;stroke-linecap:square;stroke-opacity:0.2;stroke-width:0.8;"/>
     </g>
     <g id="line2d_32">
      <g>
       <use style="stroke:#000000;stroke-width:0.6;" x="308.537734" xlink:href="#mc3477fc46f" y="378"/>
      </g>
     </g>
    </g>
    <g id="xtick_17">
     <g id="line2d_33">
      <path clip-path="url(#p45c60efe75)" d="M 334.771282 378 
L 334.771282 51.84 
" style="fill:none;stroke:#b0b0b0;stroke-linecap:square;stroke-opacity:0.2;stroke-width:0.8;"/>
     </g>
     <g id="line2d_34">
      <g>
       <use style="stroke:#000000;stroke-width:0.6;" x="334.771282" xlink:href="#mc3477fc46f" y="378"/>
      </g>
     </g>
    </g>
    <g id="xtick_18">
     <g id="line2d_35">
      <path clip-path="url(#p45c60efe75)" d="M 353.384281 378 
L 353.384281 51.84 
" style="fill:none;stroke:#b0b0b0;stroke-linecap:square;stroke-opacity:0.2;stroke-width:0.8;"/>
     </g>
     <g id="line2d_36">
      <g>
       <use style="stroke:#000000;stroke-width:0.6;" x="353.384281" xlink:href="#mc3477fc46f" y="378"/>
      </g>
     </g>
    </g>
    <g id="xtick_19">
     <g id="line2d_37">
      <path clip-path="url(#p45c60efe75)" d="M 367.821644 378 
L 367.821644 51.84 
" style="fill:none;stroke:#b0b0b0;stroke-linecap:square;stroke-opacity:0.2;stroke-width:0.8;"/>
     </g>
     <g id="line2d_38">
      <g>
       <use style="stroke:#000000;stroke-width:0.6;" x="367.821644" xlink:href="#mc3477fc46f" y="378"/>
      </g>
     </g>
    </g>
    <g id="xtick_20">
     <g id="line2d_39">
      <path clip-path="url(#p45c60efe75)" d="M 379.617829 378 
L 379.617829 51.84 
" style="fill:none;stroke:#b0b0b0;stroke-linecap:square;stroke-opacity:0.2;stroke-width:0.8;"/>
     </g>
     <g id="line2d_40">
      <g>
       <use style="stroke:#000000;stroke-width:0.6;" x="379.617829" xlink:href="#mc3477fc46f" y="378"/>
      </g>
     </g>
    </g>
    <g id="xtick_21">
     <g id="line2d_41">
      <path clip-path="url(#p45c60efe75)" d="M 389.591361 378 
L 389.591361 51.84 
" style="fill:none;stroke:#b0b0b0;stroke-linecap:square;stroke-opacity:0.2;stroke-width:0.8;"/>
     </g>
     <g id="line2d_42">
      <g>
       <use style="stroke:#000000;stroke-width:0.6;" x="389.591361" xlink:href="#mc3477fc46f" y="378"/>
      </g>
     </g>
    </g>
    <g id="xtick_22">
     <g id="line2d_43">
      <path clip-path="url(#p45c60efe75)" d="M 398.230828 378 
L 398.230828 51.84 
" style="fill:none;stroke:#b0b0b0;stroke-linecap:square;stroke-opacity:0.2;stroke-width:0.8;"/>
     </g>
     <g id="line2d_44">
      <g>
       <use style="stroke:#000000;stroke-width:0.6;" x="398.230828" xlink:href="#mc3477fc46f" y="378"/>
      </g>
     </g>
    </g>
    <g id="xtick_23">
     <g id="line2d_45">
      <path clip-path="url(#p45c60efe75)" d="M 405.851377 378 
L 405.851377 51.84 
" style="fill:none;stroke:#b0b0b0;stroke-linecap:square;stroke-opacity:0.2;stroke-width:0.8;"/>
     </g>
     <g id="line2d_46">
      <g>
       <use style="stroke:#000000;stroke-width:0.6;" x="405.851377" xlink:href="#mc3477fc46f" y="378"/>
      </g>
     </g>
    </g>
    <g id="xtick_24">
     <g id="line2d_47">
      <path clip-path="url(#p45c60efe75)" d="M 457.514738 378 
L 457.514738 51.84 
" style="fill:none;stroke:#b0b0b0;stroke-linecap:square;stroke-opacity:0.2;stroke-width:0.8;"/>
     </g>
     <g id="line2d_48">
      <g>
       <use style="stroke:#000000;stroke-width:0.6;" x="457.514738" xlink:href="#mc3477fc46f" y="378"/>
      </g>
     </g>
    </g>
    <g id="xtick_25">
     <g id="line2d_49">
      <path clip-path="url(#p45c60efe75)" d="M 483.748286 378 
L 483.748286 51.84 
" style="fill:none;stroke:#b0b0b0;stroke-linecap:square;stroke-opacity:0.2;stroke-width:0.8;"/>
     </g>
     <g id="line2d_50">
      <g>
       <use style="stroke:#000000;stroke-width:0.6;" x="483.748286" xlink:href="#mc3477fc46f" y="378"/>
      </g>
     </g>
    </g>
    <g id="xtick_26">
     <g id="line2d_51">
      <path clip-path="url(#p45c60efe75)" d="M 502.361285 378 
L 502.361285 51.84 
" style="fill:none;stroke:#b0b0b0;stroke-linecap:square;stroke-opacity:0.2;stroke-width:0.8;"/>
     </g>
     <g id="line2d_52">
      <g>
       <use style="stroke:#000000;stroke-width:0.6;" x="502.361285" xlink:href="#mc3477fc46f" y="378"/>
      </g>
     </g>
    </g>
    <g id="xtick_27">
     <g id="line2d_53">
      <path clip-path="url(#p45c60efe75)" d="M 516.798648 378 
L 516.798648 51.84 
" style="fill:none;stroke:#b0b0b0;stroke-linecap:square;stroke-opacity:0.2;stroke-width:0.8;"/>
     </g>
     <g id="line2d_54">
      <g>
       <use style="stroke:#000000;stroke-width:0.6;" x="516.798648" xlink:href="#mc3477fc46f" y="378"/>
      </g>
     </g>
    </g>
    <g id="text_4">
     <!-- Distance from the halo centre $r$ in $h^{-1}$Mpc -->
     <g transform="translate(189.8 407.678125)scale(0.1 -0.1)">
      <defs>
       <path d="M 19.671875 64.796875 
L 19.671875 8.109375 
L 31.59375 8.109375 
Q 46.6875 8.109375 53.6875 14.9375 
Q 60.6875 21.78125 60.6875 36.53125 
Q 60.6875 51.171875 53.6875 57.984375 
Q 46.6875 64.796875 31.59375 64.796875 
z
M 9.8125 72.90625 
L 30.078125 72.90625 
Q 51.265625 72.90625 61.171875 64.09375 
Q 71.09375 55.28125 71.09375 36.53125 
Q 71.09375 17.671875 61.125 8.828125 
Q 51.171875 0 30.078125 0 
L 9.8125 0 
z
" id="DejaVuSans-68"/>
       <path d="M 9.421875 54.6875 
L 18.40625 54.6875 
L 18.40625 0 
L 9.421875 0 
z
M 9.421875 75.984375 
L 18.40625 75.984375 
L 18.40625 64.59375 
L 9.421875 64.59375 
z
" id="DejaVuSans-105"/>
       <path d="M 44.28125 53.078125 
L 44.28125 44.578125 
Q 40.484375 46.53125 36.375 47.5 
Q 32.28125 48.484375 27.875 48.484375 
Q 21.1875 48.484375 17.84375 46.4375 
Q 14.5 44.390625 14.5 40.28125 
Q 14.5 37.15625 16.890625 35.375 
Q 19.28125 33.59375 26.515625 31.984375 
L 29.59375 31.296875 
Q 39.15625 29.25 43.1875 25.515625 
Q 47.21875 21.78125 47.21875 15.09375 
Q 47.21875 7.46875 41.1875 3.015625 
Q 35.15625 -1.421875 24.609375 -1.421875 
Q 20.21875 -1.421875 15.453125 -0.5625 
Q 10.6875 0.296875 5.421875 2 
L 5.421875 11.28125 
Q 10.40625 8.6875 15.234375 7.390625 
Q 20.0625 6.109375 24.8125 6.109375 
Q 31.15625 6.109375 34.5625 8.28125 
Q 37.984375 10.453125 37.984375 14.40625 
Q 37.984375 18.0625 35.515625 20.015625 
Q 33.0625 21.96875 24.703125 23.78125 
L 21.578125 24.515625 
Q 13.234375 26.265625 9.515625 29.90625 
Q 5.8125 33.546875 5.8125 39.890625 
Q 5.8125 47.609375 11.28125 51.796875 
Q 16.75 56 26.8125 56 
Q 31.78125 56 36.171875 55.265625 
Q 40.578125 54.546875 44.28125 53.078125 
z
" id="DejaVuSans-115"/>
       <path d="M 18.3125 70.21875 
L 18.3125 54.6875 
L 36.8125 54.6875 
L 36.8125 47.703125 
L 18.3125 47.703125 
L 18.3125 18.015625 
Q 18.3125 11.328125 20.140625 9.421875 
Q 21.96875 7.515625 27.59375 7.515625 
L 36.8125 7.515625 
L 36.8125 0 
L 27.59375 0 
Q 17.1875 0 13.234375 3.875 
Q 9.28125 7.765625 9.28125 18.015625 
L 9.28125 47.703125 
L 2.6875 47.703125 
L 2.6875 54.6875 
L 9.28125 54.6875 
L 9.28125 70.21875 
z
" id="DejaVuSans-116"/>
       <path d="M 34.28125 27.484375 
Q 23.390625 27.484375 19.1875 25 
Q 14.984375 22.515625 14.984375 16.5 
Q 14.984375 11.71875 18.140625 8.90625 
Q 21.296875 6.109375 26.703125 6.109375 
Q 34.1875 6.109375 38.703125 11.40625 
Q 43.21875 16.703125 43.21875 25.484375 
L 43.21875 27.484375 
z
M 52.203125 31.203125 
L 52.203125 0 
L 43.21875 0 
L 43.21875 8.296875 
Q 40.140625 3.328125 35.546875 0.953125 
Q 30.953125 -1.421875 24.3125 -1.421875 
Q 15.921875 -1.421875 10.953125 3.296875 
Q 6 8.015625 6 15.921875 
Q 6 25.140625 12.171875 29.828125 
Q 18.359375 34.515625 30.609375 34.515625 
L 43.21875 34.515625 
L 43.21875 35.40625 
Q 43.21875 41.609375 39.140625 45 
Q 35.0625 48.390625 27.6875 48.390625 
Q 23 48.390625 18.546875 47.265625 
Q 14.109375 46.140625 10.015625 43.890625 
L 10.015625 52.203125 
Q 14.9375 54.109375 19.578125 55.046875 
Q 24.21875 56 28.609375 56 
Q 40.484375 56 46.34375 49.84375 
Q 52.203125 43.703125 52.203125 31.203125 
z
" id="DejaVuSans-97"/>
       <path d="M 54.890625 33.015625 
L 54.890625 0 
L 45.90625 0 
L 45.90625 32.71875 
Q 45.90625 40.484375 42.875 44.328125 
Q 39.84375 48.1875 33.796875 48.1875 
Q 26.515625 48.1875 22.3125 43.546875 
Q 18.109375 38.921875 18.109375 30.90625 
L 18.109375 0 
L 9.078125 0 
L 9.078125 54.6875 
L 18.109375 54.6875 
L 18.109375 46.1875 
Q 21.34375 51.125 25.703125 53.5625 
Q 30.078125 56 35.796875 56 
Q 45.21875 56 50.046875 50.171875 
Q 54.890625 44.34375 54.890625 33.015625 
z
" id="DejaVuSans-110"/>
       <path d="M 48.78125 52.59375 
L 48.78125 44.1875 
Q 44.96875 46.296875 41.140625 47.34375 
Q 37.3125 48.390625 33.40625 48.390625 
Q 24.65625 48.390625 19.8125 42.84375 
Q 14.984375 37.3125 14.984375 27.296875 
Q 14.984375 17.28125 19.8125 11.734375 
Q 24.65625 6.203125 33.40625 6.203125 
Q 37.3125 6.203125 41.140625 7.25 
Q 44.96875 8.296875 48.78125 10.40625 
L 48.78125 2.09375 
Q 45.015625 0.34375 40.984375 -0.53125 
Q 36.96875 -1.421875 32.421875 -1.421875 
Q 20.0625 -1.421875 12.78125 6.34375 
Q 5.515625 14.109375 5.515625 27.296875 
Q 5.515625 40.671875 12.859375 48.328125 
Q 20.21875 56 33.015625 56 
Q 37.15625 56 41.109375 55.140625 
Q 45.0625 54.296875 48.78125 52.59375 
z
" id="DejaVuSans-99"/>
       <path d="M 56.203125 29.59375 
L 56.203125 25.203125 
L 14.890625 25.203125 
Q 15.484375 15.921875 20.484375 11.0625 
Q 25.484375 6.203125 34.421875 6.203125 
Q 39.59375 6.203125 44.453125 7.46875 
Q 49.3125 8.734375 54.109375 11.28125 
L 54.109375 2.78125 
Q 49.265625 0.734375 44.1875 -0.34375 
Q 39.109375 -1.421875 33.890625 -1.421875 
Q 20.796875 -1.421875 13.15625 6.1875 
Q 5.515625 13.8125 5.515625 26.8125 
Q 5.515625 40.234375 12.765625 48.109375 
Q 20.015625 56 32.328125 56 
Q 43.359375 56 49.78125 48.890625 
Q 56.203125 41.796875 56.203125 29.59375 
z
M 47.21875 32.234375 
Q 47.125 39.59375 43.09375 43.984375 
Q 39.0625 48.390625 32.421875 48.390625 
Q 24.90625 48.390625 20.390625 44.140625 
Q 15.875 39.890625 15.1875 32.171875 
z
" id="DejaVuSans-101"/>
       <path id="DejaVuSans-32"/>
       <path d="M 37.109375 75.984375 
L 37.109375 68.5 
L 28.515625 68.5 
Q 23.6875 68.5 21.796875 66.546875 
Q 19.921875 64.59375 19.921875 59.515625 
L 19.921875 54.6875 
L 34.71875 54.6875 
L 34.71875 47.703125 
L 19.921875 47.703125 
L 19.921875 0 
L 10.890625 0 
L 10.890625 47.703125 
L 2.296875 47.703125 
L 2.296875 54.6875 
L 10.890625 54.6875 
L 10.890625 58.5 
Q 10.890625 67.625 15.140625 71.796875 
Q 19.390625 75.984375 28.609375 75.984375 
z
" id="DejaVuSans-102"/>
       <path d="M 41.109375 46.296875 
Q 39.59375 47.171875 37.8125 47.578125 
Q 36.03125 48 33.890625 48 
Q 26.265625 48 22.1875 43.046875 
Q 18.109375 38.09375 18.109375 28.8125 
L 18.109375 0 
L 9.078125 0 
L 9.078125 54.6875 
L 18.109375 54.6875 
L 18.109375 46.1875 
Q 20.953125 51.171875 25.484375 53.578125 
Q 30.03125 56 36.53125 56 
Q 37.453125 56 38.578125 55.875 
Q 39.703125 55.765625 41.0625 55.515625 
z
" id="DejaVuSans-114"/>
       <path d="M 30.609375 48.390625 
Q 23.390625 48.390625 19.1875 42.75 
Q 14.984375 37.109375 14.984375 27.296875 
Q 14.984375 17.484375 19.15625 11.84375 
Q 23.34375 6.203125 30.609375 6.203125 
Q 37.796875 6.203125 41.984375 11.859375 
Q 46.1875 17.53125 46.1875 27.296875 
Q 46.1875 37.015625 41.984375 42.703125 
Q 37.796875 48.390625 30.609375 48.390625 
z
M 30.609375 56 
Q 42.328125 56 49.015625 48.375 
Q 55.71875 40.765625 55.71875 27.296875 
Q 55.71875 13.875 49.015625 6.21875 
Q 42.328125 -1.421875 30.609375 -1.421875 
Q 18.84375 -1.421875 12.171875 6.21875 
Q 5.515625 13.875 5.515625 27.296875 
Q 5.515625 40.765625 12.171875 48.375 
Q 18.84375 56 30.609375 56 
z
" id="DejaVuSans-111"/>
       <path d="M 52 44.1875 
Q 55.375 50.25 60.0625 53.125 
Q 64.75 56 71.09375 56 
Q 79.640625 56 84.28125 50.015625 
Q 88.921875 44.046875 88.921875 33.015625 
L 88.921875 0 
L 79.890625 0 
L 79.890625 32.71875 
Q 79.890625 40.578125 77.09375 44.375 
Q 74.3125 48.1875 68.609375 48.1875 
Q 61.625 48.1875 57.5625 43.546875 
Q 53.515625 38.921875 53.515625 30.90625 
L 53.515625 0 
L 44.484375 0 
L 44.484375 32.71875 
Q 44.484375 40.625 41.703125 44.40625 
Q 38.921875 48.1875 33.109375 48.1875 
Q 26.21875 48.1875 22.15625 43.53125 
Q 18.109375 38.875 18.109375 30.90625 
L 18.109375 0 
L 9.078125 0 
L 9.078125 54.6875 
L 18.109375 54.6875 
L 18.109375 46.1875 
Q 21.1875 51.21875 25.484375 53.609375 
Q 29.78125 56 35.6875 56 
Q 41.65625 56 45.828125 52.96875 
Q 50 49.953125 52 44.1875 
z
" id="DejaVuSans-109"/>
       <path d="M 54.890625 33.015625 
L 54.890625 0 
L 45.90625 0 
L 45.90625 32.71875 
Q 45.90625 40.484375 42.875 44.328125 
Q 39.84375 48.1875 33.796875 48.1875 
Q 26.515625 48.1875 22.3125 43.546875 
Q 18.109375 38.921875 18.109375 30.90625 
L 18.109375 0 
L 9.078125 0 
L 9.078125 75.984375 
L 18.109375 75.984375 
L 18.109375 46.1875 
Q 21.34375 51.125 25.703125 53.5625 
Q 30.078125 56 35.796875 56 
Q 45.21875 56 50.046875 50.171875 
Q 54.890625 44.34375 54.890625 33.015625 
z
" id="DejaVuSans-104"/>
       <path d="M 9.421875 75.984375 
L 18.40625 75.984375 
L 18.40625 0 
L 9.421875 0 
z
" id="DejaVuSans-108"/>
       <path d="M 44.578125 46.390625 
Q 43.21875 47.125 41.453125 47.515625 
Q 39.703125 47.90625 37.703125 47.90625 
Q 30.515625 47.90625 25.140625 42.453125 
Q 19.78125 37.015625 18.015625 27.875 
L 12.5 0 
L 3.515625 0 
L 14.203125 54.6875 
L 23.1875 54.6875 
L 21.484375 46.1875 
Q 25.046875 50.921875 30 53.453125 
Q 34.96875 56 40.578125 56 
Q 42.046875 56 43.453125 55.828125 
Q 44.875 55.671875 46.296875 55.28125 
z
" id="DejaVuSans-Oblique-114"/>
       <path d="M 55.71875 33.015625 
L 49.3125 0 
L 40.28125 0 
L 46.6875 32.671875 
Q 47.125 34.96875 47.359375 36.71875 
Q 47.609375 38.484375 47.609375 39.5 
Q 47.609375 43.609375 45.015625 45.890625 
Q 42.4375 48.1875 37.796875 48.1875 
Q 30.5625 48.1875 25.265625 43.296875 
Q 19.96875 38.421875 18.40625 30.328125 
L 12.5 0 
L 3.515625 0 
L 18.3125 75.984375 
L 27.296875 75.984375 
L 21.484375 46.09375 
Q 24.90625 50.6875 30.21875 53.34375 
Q 35.546875 56 41.40625 56 
Q 48.640625 56 52.609375 52.09375 
Q 56.59375 48.1875 56.59375 41.109375 
Q 56.59375 39.359375 56.375 37.359375 
Q 56.15625 35.359375 55.71875 33.015625 
z
" id="DejaVuSans-Oblique-104"/>
       <path d="M 9.8125 72.90625 
L 24.515625 72.90625 
L 43.109375 23.296875 
L 61.8125 72.90625 
L 76.515625 72.90625 
L 76.515625 0 
L 66.890625 0 
L 66.890625 64.015625 
L 48.09375 14.015625 
L 38.1875 14.015625 
L 19.390625 64.015625 
L 19.390625 0 
L 9.8125 0 
z
" id="DejaVuSans-77"/>
       <path d="M 18.109375 8.203125 
L 18.109375 -20.796875 
L 9.078125 -20.796875 
L 9.078125 54.6875 
L 18.109375 54.6875 
L 18.109375 46.390625 
Q 20.953125 51.265625 25.265625 53.625 
Q 29.59375 56 35.59375 56 
Q 45.5625 56 51.78125 48.09375 
Q 58.015625 40.1875 58.015625 27.296875 
Q 58.015625 14.40625 51.78125 6.484375 
Q 45.5625 -1.421875 35.59375 -1.421875 
Q 29.59375 -1.421875 25.265625 0.953125 
Q 20.953125 3.328125 18.109375 8.203125 
z
M 48.6875 27.296875 
Q 48.6875 37.203125 44.609375 42.84375 
Q 40.53125 48.484375 33.40625 48.484375 
Q 26.265625 48.484375 22.1875 42.84375 
Q 18.109375 37.203125 18.109375 27.296875 
Q 18.109375 17.390625 22.1875 11.75 
Q 26.265625 6.109375 33.40625 6.109375 
Q 40.53125 6.109375 44.609375 11.75 
Q 48.6875 17.390625 48.6875 27.296875 
z
" id="DejaVuSans-112"/>
      </defs>
      <use transform="translate(0 0.684375)" xlink:href="#DejaVuSans-68"/>
      <use transform="translate(77.001953 0.684375)" xlink:href="#DejaVuSans-105"/>
      <use transform="translate(104.785156 0.684375)" xlink:href="#DejaVuSans-115"/>
      <use transform="translate(156.884766 0.684375)" xlink:href="#DejaVuSans-116"/>
      <use transform="translate(196.09375 0.684375)" xlink:href="#DejaVuSans-97"/>
      <use transform="translate(257.373047 0.684375)" xlink:href="#DejaVuSans-110"/>
      <use transform="translate(320.751953 0.684375)" xlink:href="#DejaVuSans-99"/>
      <use transform="translate(375.732422 0.684375)" xlink:href="#DejaVuSans-101"/>
      <use transform="translate(437.255859 0.684375)" xlink:href="#DejaVuSans-32"/>
      <use transform="translate(469.042969 0.684375)" xlink:href="#DejaVuSans-102"/>
      <use transform="translate(504.248047 0.684375)" xlink:href="#DejaVuSans-114"/>
      <use transform="translate(545.361328 0.684375)" xlink:href="#DejaVuSans-111"/>
      <use transform="translate(606.542969 0.684375)" xlink:href="#DejaVuSans-109"/>
      <use transform="translate(703.955078 0.684375)" xlink:href="#DejaVuSans-32"/>
      <use transform="translate(735.742188 0.684375)" xlink:href="#DejaVuSans-116"/>
      <use transform="translate(774.951172 0.684375)" xlink:href="#DejaVuSans-104"/>
      <use transform="translate(838.330078 0.684375)" xlink:href="#DejaVuSans-101"/>
      <use transform="translate(899.853516 0.684375)" xlink:href="#DejaVuSans-32"/>
      <use transform="translate(931.640625 0.684375)" xlink:href="#DejaVuSans-104"/>
      <use transform="translate(995.019531 0.684375)" xlink:href="#DejaVuSans-97"/>
      <use transform="translate(1056.298828 0.684375)" xlink:href="#DejaVuSans-108"/>
      <use transform="translate(1084.082031 0.684375)" xlink:href="#DejaVuSans-111"/>
      <use transform="translate(1145.263672 0.684375)" xlink:href="#DejaVuSans-32"/>
      <use transform="translate(1177.050781 0.684375)" xlink:href="#DejaVuSans-99"/>
      <use transform="translate(1232.03125 0.684375)" xlink:href="#DejaVuSans-101"/>
      <use transform="translate(1293.554688 0.684375)" xlink:href="#DejaVuSans-110"/>
      <use transform="translate(1356.933594 0.684375)" xlink:href="#DejaVuSans-116"/>
      <use transform="translate(1396.142578 0.684375)" xlink:href="#DejaVuSans-114"/>
      <use transform="translate(1437.255859 0.684375)" xlink:href="#DejaVuSans-101"/>
      <use transform="translate(1498.779297 0.684375)" xlink:href="#DejaVuSans-32"/>
      <use transform="translate(1530.566406 0.684375)" xlink:href="#DejaVuSans-Oblique-114"/>
      <use transform="translate(1571.679688 0.684375)" xlink:href="#DejaVuSans-32"/>
      <use transform="translate(1603.466797 0.684375)" xlink:href="#DejaVuSans-105"/>
      <use transform="translate(1631.25 0.684375)" xlink:href="#DejaVuSans-110"/>
      <use transform="translate(1694.628906 0.684375)" xlink:href="#DejaVuSans-32"/>
      <use transform="translate(1726.416016 0.684375)" xlink:href="#DejaVuSans-Oblique-104"/>
      <use transform="translate(1797.24263 38.965625)scale(0.7)" xlink:href="#DejaVuSans-8722"/>
      <use transform="translate(1855.894974 38.965625)scale(0.7)" xlink:href="#DejaVuSans-49"/>
      <use transform="translate(1903.165482 0.684375)" xlink:href="#DejaVuSans-77"/>
      <use transform="translate(1989.444779 0.684375)" xlink:href="#DejaVuSans-112"/>
      <use transform="translate(2052.921341 0.684375)" xlink:href="#DejaVuSans-99"/>
     </g>
    </g>
   </g>
   <g id="matplotlib.axis_2">
    <g id="ytick_1">
     <g id="line2d_55">
      <path clip-path="url(#p45c60efe75)" d="M 72 376.963427 
L 518.4 376.963427 
" style="fill:none;stroke:#b0b0b0;stroke-linecap:square;stroke-opacity:0.5;stroke-width:0.8;"/>
     </g>
     <g id="line2d_56">
      <defs>
       <path d="M 0 0 
L -3.5 0 
" id="mb5f2d03b7b" style="stroke:#000000;stroke-width:0.8;"/>
      </defs>
      <g>
       <use style="stroke:#000000;stroke-width:0.8;" x="72" xlink:href="#mb5f2d03b7b" y="376.963427"/>
      </g>
     </g>
     <g id="text_5">
      <!-- $\mathdefault{10^{-2}}$ -->
      <g transform="translate(41.5 380.762645)scale(0.1 -0.1)">
       <use transform="translate(0 0.765625)" xlink:href="#DejaVuSans-49"/>
       <use transform="translate(63.623047 0.765625)" xlink:href="#DejaVuSans-48"/>
       <use transform="translate(128.203125 39.046875)scale(0.7)" xlink:href="#DejaVuSans-8722"/>
       <use transform="translate(186.855469 39.046875)scale(0.7)" xlink:href="#DejaVuSans-50"/>
      </g>
     </g>
    </g>
    <g id="ytick_2">
     <g id="line2d_57">
      <path clip-path="url(#p45c60efe75)" d="M 72 320.540437 
L 518.4 320.540437 
" style="fill:none;stroke:#b0b0b0;stroke-linecap:square;stroke-opacity:0.5;stroke-width:0.8;"/>
     </g>
     <g id="line2d_58">
      <g>
       <use style="stroke:#000000;stroke-width:0.8;" x="72" xlink:href="#mb5f2d03b7b" y="320.540437"/>
      </g>
     </g>
     <g id="text_6">
      <!-- $\mathdefault{10^{-1}}$ -->
      <g transform="translate(41.5 324.339655)scale(0.1 -0.1)">
       <use transform="translate(0 0.684375)" xlink:href="#DejaVuSans-49"/>
       <use transform="translate(63.623047 0.684375)" xlink:href="#DejaVuSans-48"/>
       <use transform="translate(128.203125 38.965625)scale(0.7)" xlink:href="#DejaVuSans-8722"/>
       <use transform="translate(186.855469 38.965625)scale(0.7)" xlink:href="#DejaVuSans-49"/>
      </g>
     </g>
    </g>
    <g id="ytick_3">
     <g id="line2d_59">
      <path clip-path="url(#p45c60efe75)" d="M 72 264.117447 
L 518.4 264.117447 
" style="fill:none;stroke:#b0b0b0;stroke-linecap:square;stroke-opacity:0.5;stroke-width:0.8;"/>
     </g>
     <g id="line2d_60">
      <g>
       <use style="stroke:#000000;stroke-width:0.8;" x="72" xlink:href="#mb5f2d03b7b" y="264.117447"/>
      </g>
     </g>
     <g id="text_7">
      <!-- $\mathdefault{10^{0}}$ -->
      <g transform="translate(47.4 267.916665)scale(0.1 -0.1)">
       <use transform="translate(0 0.765625)" xlink:href="#DejaVuSans-49"/>
       <use transform="translate(63.623047 0.765625)" xlink:href="#DejaVuSans-48"/>
       <use transform="translate(128.203125 39.046875)scale(0.7)" xlink:href="#DejaVuSans-48"/>
      </g>
     </g>
    </g>
    <g id="ytick_4">
     <g id="line2d_61">
      <path clip-path="url(#p45c60efe75)" d="M 72 207.694457 
L 518.4 207.694457 
" style="fill:none;stroke:#b0b0b0;stroke-linecap:square;stroke-opacity:0.5;stroke-width:0.8;"/>
     </g>
     <g id="line2d_62">
      <g>
       <use style="stroke:#000000;stroke-width:0.8;" x="72" xlink:href="#mb5f2d03b7b" y="207.694457"/>
      </g>
     </g>
     <g id="text_8">
      <!-- $\mathdefault{10^{1}}$ -->
      <g transform="translate(47.4 211.493675)scale(0.1 -0.1)">
       <use transform="translate(0 0.684375)" xlink:href="#DejaVuSans-49"/>
       <use transform="translate(63.623047 0.684375)" xlink:href="#DejaVuSans-48"/>
       <use transform="translate(128.203125 38.965625)scale(0.7)" xlink:href="#DejaVuSans-49"/>
      </g>
     </g>
    </g>
    <g id="ytick_5">
     <g id="line2d_63">
      <path clip-path="url(#p45c60efe75)" d="M 72 151.271467 
L 518.4 151.271467 
" style="fill:none;stroke:#b0b0b0;stroke-linecap:square;stroke-opacity:0.5;stroke-width:0.8;"/>
     </g>
     <g id="line2d_64">
      <g>
       <use style="stroke:#000000;stroke-width:0.8;" x="72" xlink:href="#mb5f2d03b7b" y="151.271467"/>
      </g>
     </g>
     <g id="text_9">
      <!-- $\mathdefault{10^{2}}$ -->
      <g transform="translate(47.4 155.070685)scale(0.1 -0.1)">
       <use transform="translate(0 0.765625)" xlink:href="#DejaVuSans-49"/>
       <use transform="translate(63.623047 0.765625)" xlink:href="#DejaVuSans-48"/>
       <use transform="translate(128.203125 39.046875)scale(0.7)" xlink:href="#DejaVuSans-50"/>
      </g>
     </g>
    </g>
    <g id="ytick_6">
     <g id="line2d_65">
      <path clip-path="url(#p45c60efe75)" d="M 72 94.848477 
L 518.4 94.848477 
" style="fill:none;stroke:#b0b0b0;stroke-linecap:square;stroke-opacity:0.5;stroke-width:0.8;"/>
     </g>
     <g id="line2d_66">
      <g>
       <use style="stroke:#000000;stroke-width:0.8;" x="72" xlink:href="#mb5f2d03b7b" y="94.848477"/>
      </g>
     </g>
     <g id="text_10">
      <!-- $\mathdefault{10^{3}}$ -->
      <g transform="translate(47.4 98.647695)scale(0.1 -0.1)">
       <defs>
        <path d="M 40.578125 39.3125 
Q 47.65625 37.796875 51.625 33 
Q 55.609375 28.21875 55.609375 21.1875 
Q 55.609375 10.40625 48.1875 4.484375 
Q 40.765625 -1.421875 27.09375 -1.421875 
Q 22.515625 -1.421875 17.65625 -0.515625 
Q 12.796875 0.390625 7.625 2.203125 
L 7.625 11.71875 
Q 11.71875 9.328125 16.59375 8.109375 
Q 21.484375 6.890625 26.8125 6.890625 
Q 36.078125 6.890625 40.9375 10.546875 
Q 45.796875 14.203125 45.796875 21.1875 
Q 45.796875 27.640625 41.28125 31.265625 
Q 36.765625 34.90625 28.71875 34.90625 
L 20.21875 34.90625 
L 20.21875 43.015625 
L 29.109375 43.015625 
Q 36.375 43.015625 40.234375 45.921875 
Q 44.09375 48.828125 44.09375 54.296875 
Q 44.09375 59.90625 40.109375 62.90625 
Q 36.140625 65.921875 28.71875 65.921875 
Q 24.65625 65.921875 20.015625 65.03125 
Q 15.375 64.15625 9.8125 62.3125 
L 9.8125 71.09375 
Q 15.4375 72.65625 20.34375 73.4375 
Q 25.25 74.21875 29.59375 74.21875 
Q 40.828125 74.21875 47.359375 69.109375 
Q 53.90625 64.015625 53.90625 55.328125 
Q 53.90625 49.265625 50.4375 45.09375 
Q 46.96875 40.921875 40.578125 39.3125 
z
" id="DejaVuSans-51"/>
       </defs>
       <use transform="translate(0 0.765625)" xlink:href="#DejaVuSans-49"/>
       <use transform="translate(63.623047 0.765625)" xlink:href="#DejaVuSans-48"/>
       <use transform="translate(128.203125 39.046875)scale(0.7)" xlink:href="#DejaVuSans-51"/>
      </g>
     </g>
    </g>
    <g id="ytick_7">
     <g id="line2d_67">
      <path clip-path="url(#p45c60efe75)" d="M 72 359.978414 
L 518.4 359.978414 
" style="fill:none;stroke:#b0b0b0;stroke-linecap:square;stroke-opacity:0.2;stroke-width:0.8;"/>
     </g>
     <g id="line2d_68">
      <defs>
       <path d="M 0 0 
L -2 0 
" id="mb91af33f9c" style="stroke:#000000;stroke-width:0.6;"/>
      </defs>
      <g>
       <use style="stroke:#000000;stroke-width:0.6;" x="72" xlink:href="#mb91af33f9c" y="359.978414"/>
      </g>
     </g>
    </g>
    <g id="ytick_8">
     <g id="line2d_69">
      <path clip-path="url(#p45c60efe75)" d="M 72 350.042819 
L 518.4 350.042819 
" style="fill:none;stroke:#b0b0b0;stroke-linecap:square;stroke-opacity:0.2;stroke-width:0.8;"/>
     </g>
     <g id="line2d_70">
      <g>
       <use style="stroke:#000000;stroke-width:0.6;" x="72" xlink:href="#mb91af33f9c" y="350.042819"/>
      </g>
     </g>
    </g>
    <g id="ytick_9">
     <g id="line2d_71">
      <path clip-path="url(#p45c60efe75)" d="M 72 342.993402 
L 518.4 342.993402 
" style="fill:none;stroke:#b0b0b0;stroke-linecap:square;stroke-opacity:0.2;stroke-width:0.8;"/>
     </g>
     <g id="line2d_72">
      <g>
       <use style="stroke:#000000;stroke-width:0.6;" x="72" xlink:href="#mb91af33f9c" y="342.993402"/>
      </g>
     </g>
    </g>
    <g id="ytick_10">
     <g id="line2d_73">
      <path clip-path="url(#p45c60efe75)" d="M 72 337.525449 
L 518.4 337.525449 
" style="fill:none;stroke:#b0b0b0;stroke-linecap:square;stroke-opacity:0.2;stroke-width:0.8;"/>
     </g>
     <g id="line2d_74">
      <g>
       <use style="stroke:#000000;stroke-width:0.6;" x="72" xlink:href="#mb91af33f9c" y="337.525449"/>
      </g>
     </g>
    </g>
    <g id="ytick_11">
     <g id="line2d_75">
      <path clip-path="url(#p45c60efe75)" d="M 72 333.057806 
L 518.4 333.057806 
" style="fill:none;stroke:#b0b0b0;stroke-linecap:square;stroke-opacity:0.2;stroke-width:0.8;"/>
     </g>
     <g id="line2d_76">
      <g>
       <use style="stroke:#000000;stroke-width:0.6;" x="72" xlink:href="#mb91af33f9c" y="333.057806"/>
      </g>
     </g>
    </g>
    <g id="ytick_12">
     <g id="line2d_77">
      <path clip-path="url(#p45c60efe75)" d="M 72 329.280468 
L 518.4 329.280468 
" style="fill:none;stroke:#b0b0b0;stroke-linecap:square;stroke-opacity:0.2;stroke-width:0.8;"/>
     </g>
     <g id="line2d_78">
      <g>
       <use style="stroke:#000000;stroke-width:0.6;" x="72" xlink:href="#mb91af33f9c" y="329.280468"/>
      </g>
     </g>
    </g>
    <g id="ytick_13">
     <g id="line2d_79">
      <path clip-path="url(#p45c60efe75)" d="M 72 326.008389 
L 518.4 326.008389 
" style="fill:none;stroke:#b0b0b0;stroke-linecap:square;stroke-opacity:0.2;stroke-width:0.8;"/>
     </g>
     <g id="line2d_80">
      <g>
       <use style="stroke:#000000;stroke-width:0.6;" x="72" xlink:href="#mb91af33f9c" y="326.008389"/>
      </g>
     </g>
    </g>
    <g id="ytick_14">
     <g id="line2d_81">
      <path clip-path="url(#p45c60efe75)" d="M 72 323.122211 
L 518.4 323.122211 
" style="fill:none;stroke:#b0b0b0;stroke-linecap:square;stroke-opacity:0.2;stroke-width:0.8;"/>
     </g>
     <g id="line2d_82">
      <g>
       <use style="stroke:#000000;stroke-width:0.6;" x="72" xlink:href="#mb91af33f9c" y="323.122211"/>
      </g>
     </g>
    </g>
    <g id="ytick_15">
     <g id="line2d_83">
      <path clip-path="url(#p45c60efe75)" d="M 72 303.555424 
L 518.4 303.555424 
" style="fill:none;stroke:#b0b0b0;stroke-linecap:square;stroke-opacity:0.2;stroke-width:0.8;"/>
     </g>
     <g id="line2d_84">
      <g>
       <use style="stroke:#000000;stroke-width:0.6;" x="72" xlink:href="#mb91af33f9c" y="303.555424"/>
      </g>
     </g>
    </g>
    <g id="ytick_16">
     <g id="line2d_85">
      <path clip-path="url(#p45c60efe75)" d="M 72 293.619829 
L 518.4 293.619829 
" style="fill:none;stroke:#b0b0b0;stroke-linecap:square;stroke-opacity:0.2;stroke-width:0.8;"/>
     </g>
     <g id="line2d_86">
      <g>
       <use style="stroke:#000000;stroke-width:0.6;" x="72" xlink:href="#mb91af33f9c" y="293.619829"/>
      </g>
     </g>
    </g>
    <g id="ytick_17">
     <g id="line2d_87">
      <path clip-path="url(#p45c60efe75)" d="M 72 286.570412 
L 518.4 286.570412 
" style="fill:none;stroke:#b0b0b0;stroke-linecap:square;stroke-opacity:0.2;stroke-width:0.8;"/>
     </g>
     <g id="line2d_88">
      <g>
       <use style="stroke:#000000;stroke-width:0.6;" x="72" xlink:href="#mb91af33f9c" y="286.570412"/>
      </g>
     </g>
    </g>
    <g id="ytick_18">
     <g id="line2d_89">
      <path clip-path="url(#p45c60efe75)" d="M 72 281.102459 
L 518.4 281.102459 
" style="fill:none;stroke:#b0b0b0;stroke-linecap:square;stroke-opacity:0.2;stroke-width:0.8;"/>
     </g>
     <g id="line2d_90">
      <g>
       <use style="stroke:#000000;stroke-width:0.6;" x="72" xlink:href="#mb91af33f9c" y="281.102459"/>
      </g>
     </g>
    </g>
    <g id="ytick_19">
     <g id="line2d_91">
      <path clip-path="url(#p45c60efe75)" d="M 72 276.634816 
L 518.4 276.634816 
" style="fill:none;stroke:#b0b0b0;stroke-linecap:square;stroke-opacity:0.2;stroke-width:0.8;"/>
     </g>
     <g id="line2d_92">
      <g>
       <use style="stroke:#000000;stroke-width:0.6;" x="72" xlink:href="#mb91af33f9c" y="276.634816"/>
      </g>
     </g>
    </g>
    <g id="ytick_20">
     <g id="line2d_93">
      <path clip-path="url(#p45c60efe75)" d="M 72 272.857478 
L 518.4 272.857478 
" style="fill:none;stroke:#b0b0b0;stroke-linecap:square;stroke-opacity:0.2;stroke-width:0.8;"/>
     </g>
     <g id="line2d_94">
      <g>
       <use style="stroke:#000000;stroke-width:0.6;" x="72" xlink:href="#mb91af33f9c" y="272.857478"/>
      </g>
     </g>
    </g>
    <g id="ytick_21">
     <g id="line2d_95">
      <path clip-path="url(#p45c60efe75)" d="M 72 269.585399 
L 518.4 269.585399 
" style="fill:none;stroke:#b0b0b0;stroke-linecap:square;stroke-opacity:0.2;stroke-width:0.8;"/>
     </g>
     <g id="line2d_96">
      <g>
       <use style="stroke:#000000;stroke-width:0.6;" x="72" xlink:href="#mb91af33f9c" y="269.585399"/>
      </g>
     </g>
    </g>
    <g id="ytick_22">
     <g id="line2d_97">
      <path clip-path="url(#p45c60efe75)" d="M 72 266.699221 
L 518.4 266.699221 
" style="fill:none;stroke:#b0b0b0;stroke-linecap:square;stroke-opacity:0.2;stroke-width:0.8;"/>
     </g>
     <g id="line2d_98">
      <g>
       <use style="stroke:#000000;stroke-width:0.6;" x="72" xlink:href="#mb91af33f9c" y="266.699221"/>
      </g>
     </g>
    </g>
    <g id="ytick_23">
     <g id="line2d_99">
      <path clip-path="url(#p45c60efe75)" d="M 72 247.132434 
L 518.4 247.132434 
" style="fill:none;stroke:#b0b0b0;stroke-linecap:square;stroke-opacity:0.2;stroke-width:0.8;"/>
     </g>
     <g id="line2d_100">
      <g>
       <use style="stroke:#000000;stroke-width:0.6;" x="72" xlink:href="#mb91af33f9c" y="247.132434"/>
      </g>
     </g>
    </g>
    <g id="ytick_24">
     <g id="line2d_101">
      <path clip-path="url(#p45c60efe75)" d="M 72 237.196839 
L 518.4 237.196839 
" style="fill:none;stroke:#b0b0b0;stroke-linecap:square;stroke-opacity:0.2;stroke-width:0.8;"/>
     </g>
     <g id="line2d_102">
      <g>
       <use style="stroke:#000000;stroke-width:0.6;" x="72" xlink:href="#mb91af33f9c" y="237.196839"/>
      </g>
     </g>
    </g>
    <g id="ytick_25">
     <g id="line2d_103">
      <path clip-path="url(#p45c60efe75)" d="M 72 230.147422 
L 518.4 230.147422 
" style="fill:none;stroke:#b0b0b0;stroke-linecap:square;stroke-opacity:0.2;stroke-width:0.8;"/>
     </g>
     <g id="line2d_104">
      <g>
       <use style="stroke:#000000;stroke-width:0.6;" x="72" xlink:href="#mb91af33f9c" y="230.147422"/>
      </g>
     </g>
    </g>
    <g id="ytick_26">
     <g id="line2d_105">
      <path clip-path="url(#p45c60efe75)" d="M 72 224.679469 
L 518.4 224.679469 
" style="fill:none;stroke:#b0b0b0;stroke-linecap:square;stroke-opacity:0.2;stroke-width:0.8;"/>
     </g>
     <g id="line2d_106">
      <g>
       <use style="stroke:#000000;stroke-width:0.6;" x="72" xlink:href="#mb91af33f9c" y="224.679469"/>
      </g>
     </g>
    </g>
    <g id="ytick_27">
     <g id="line2d_107">
      <path clip-path="url(#p45c60efe75)" d="M 72 220.211826 
L 518.4 220.211826 
" style="fill:none;stroke:#b0b0b0;stroke-linecap:square;stroke-opacity:0.2;stroke-width:0.8;"/>
     </g>
     <g id="line2d_108">
      <g>
       <use style="stroke:#000000;stroke-width:0.6;" x="72" xlink:href="#mb91af33f9c" y="220.211826"/>
      </g>
     </g>
    </g>
    <g id="ytick_28">
     <g id="line2d_109">
      <path clip-path="url(#p45c60efe75)" d="M 72 216.434488 
L 518.4 216.434488 
" style="fill:none;stroke:#b0b0b0;stroke-linecap:square;stroke-opacity:0.2;stroke-width:0.8;"/>
     </g>
     <g id="line2d_110">
      <g>
       <use style="stroke:#000000;stroke-width:0.6;" x="72" xlink:href="#mb91af33f9c" y="216.434488"/>
      </g>
     </g>
    </g>
    <g id="ytick_29">
     <g id="line2d_111">
      <path clip-path="url(#p45c60efe75)" d="M 72 213.162409 
L 518.4 213.162409 
" style="fill:none;stroke:#b0b0b0;stroke-linecap:square;stroke-opacity:0.2;stroke-width:0.8;"/>
     </g>
     <g id="line2d_112">
      <g>
       <use style="stroke:#000000;stroke-width:0.6;" x="72" xlink:href="#mb91af33f9c" y="213.162409"/>
      </g>
     </g>
    </g>
    <g id="ytick_30">
     <g id="line2d_113">
      <path clip-path="url(#p45c60efe75)" d="M 72 210.276231 
L 518.4 210.276231 
" style="fill:none;stroke:#b0b0b0;stroke-linecap:square;stroke-opacity:0.2;stroke-width:0.8;"/>
     </g>
     <g id="line2d_114">
      <g>
       <use style="stroke:#000000;stroke-width:0.6;" x="72" xlink:href="#mb91af33f9c" y="210.276231"/>
      </g>
     </g>
    </g>
    <g id="ytick_31">
     <g id="line2d_115">
      <path clip-path="url(#p45c60efe75)" d="M 72 190.709444 
L 518.4 190.709444 
" style="fill:none;stroke:#b0b0b0;stroke-linecap:square;stroke-opacity:0.2;stroke-width:0.8;"/>
     </g>
     <g id="line2d_116">
      <g>
       <use style="stroke:#000000;stroke-width:0.6;" x="72" xlink:href="#mb91af33f9c" y="190.709444"/>
      </g>
     </g>
    </g>
    <g id="ytick_32">
     <g id="line2d_117">
      <path clip-path="url(#p45c60efe75)" d="M 72 180.773849 
L 518.4 180.773849 
" style="fill:none;stroke:#b0b0b0;stroke-linecap:square;stroke-opacity:0.2;stroke-width:0.8;"/>
     </g>
     <g id="line2d_118">
      <g>
       <use style="stroke:#000000;stroke-width:0.6;" x="72" xlink:href="#mb91af33f9c" y="180.773849"/>
      </g>
     </g>
    </g>
    <g id="ytick_33">
     <g id="line2d_119">
      <path clip-path="url(#p45c60efe75)" d="M 72 173.724432 
L 518.4 173.724432 
" style="fill:none;stroke:#b0b0b0;stroke-linecap:square;stroke-opacity:0.2;stroke-width:0.8;"/>
     </g>
     <g id="line2d_120">
      <g>
       <use style="stroke:#000000;stroke-width:0.6;" x="72" xlink:href="#mb91af33f9c" y="173.724432"/>
      </g>
     </g>
    </g>
    <g id="ytick_34">
     <g id="line2d_121">
      <path clip-path="url(#p45c60efe75)" d="M 72 168.256479 
L 518.4 168.256479 
" style="fill:none;stroke:#b0b0b0;stroke-linecap:square;stroke-opacity:0.2;stroke-width:0.8;"/>
     </g>
     <g id="line2d_122">
      <g>
       <use style="stroke:#000000;stroke-width:0.6;" x="72" xlink:href="#mb91af33f9c" y="168.256479"/>
      </g>
     </g>
    </g>
    <g id="ytick_35">
     <g id="line2d_123">
      <path clip-path="url(#p45c60efe75)" d="M 72 163.788836 
L 518.4 163.788836 
" style="fill:none;stroke:#b0b0b0;stroke-linecap:square;stroke-opacity:0.2;stroke-width:0.8;"/>
     </g>
     <g id="line2d_124">
      <g>
       <use style="stroke:#000000;stroke-width:0.6;" x="72" xlink:href="#mb91af33f9c" y="163.788836"/>
      </g>
     </g>
    </g>
    <g id="ytick_36">
     <g id="line2d_125">
      <path clip-path="url(#p45c60efe75)" d="M 72 160.011498 
L 518.4 160.011498 
" style="fill:none;stroke:#b0b0b0;stroke-linecap:square;stroke-opacity:0.2;stroke-width:0.8;"/>
     </g>
     <g id="line2d_126">
      <g>
       <use style="stroke:#000000;stroke-width:0.6;" x="72" xlink:href="#mb91af33f9c" y="160.011498"/>
      </g>
     </g>
    </g>
    <g id="ytick_37">
     <g id="line2d_127">
      <path clip-path="url(#p45c60efe75)" d="M 72 156.739419 
L 518.4 156.739419 
" style="fill:none;stroke:#b0b0b0;stroke-linecap:square;stroke-opacity:0.2;stroke-width:0.8;"/>
     </g>
     <g id="line2d_128">
      <g>
       <use style="stroke:#000000;stroke-width:0.6;" x="72" xlink:href="#mb91af33f9c" y="156.739419"/>
      </g>
     </g>
    </g>
    <g id="ytick_38">
     <g id="line2d_129">
      <path clip-path="url(#p45c60efe75)" d="M 72 153.853241 
L 518.4 153.853241 
" style="fill:none;stroke:#b0b0b0;stroke-linecap:square;stroke-opacity:0.2;stroke-width:0.8;"/>
     </g>
     <g id="line2d_130">
      <g>
       <use style="stroke:#000000;stroke-width:0.6;" x="72" xlink:href="#mb91af33f9c" y="153.853241"/>
      </g>
     </g>
    </g>
    <g id="ytick_39">
     <g id="line2d_131">
      <path clip-path="url(#p45c60efe75)" d="M 72 134.286454 
L 518.4 134.286454 
" style="fill:none;stroke:#b0b0b0;stroke-linecap:square;stroke-opacity:0.2;stroke-width:0.8;"/>
     </g>
     <g id="line2d_132">
      <g>
       <use style="stroke:#000000;stroke-width:0.6;" x="72" xlink:href="#mb91af33f9c" y="134.286454"/>
      </g>
     </g>
    </g>
    <g id="ytick_40">
     <g id="line2d_133">
      <path clip-path="url(#p45c60efe75)" d="M 72 124.350859 
L 518.4 124.350859 
" style="fill:none;stroke:#b0b0b0;stroke-linecap:square;stroke-opacity:0.2;stroke-width:0.8;"/>
     </g>
     <g id="line2d_134">
      <g>
       <use style="stroke:#000000;stroke-width:0.6;" x="72" xlink:href="#mb91af33f9c" y="124.350859"/>
      </g>
     </g>
    </g>
    <g id="ytick_41">
     <g id="line2d_135">
      <path clip-path="url(#p45c60efe75)" d="M 72 117.301442 
L 518.4 117.301442 
" style="fill:none;stroke:#b0b0b0;stroke-linecap:square;stroke-opacity:0.2;stroke-width:0.8;"/>
     </g>
     <g id="line2d_136">
      <g>
       <use style="stroke:#000000;stroke-width:0.6;" x="72" xlink:href="#mb91af33f9c" y="117.301442"/>
      </g>
     </g>
    </g>
    <g id="ytick_42">
     <g id="line2d_137">
      <path clip-path="url(#p45c60efe75)" d="M 72 111.833489 
L 518.4 111.833489 
" style="fill:none;stroke:#b0b0b0;stroke-linecap:square;stroke-opacity:0.2;stroke-width:0.8;"/>
     </g>
     <g id="line2d_138">
      <g>
       <use style="stroke:#000000;stroke-width:0.6;" x="72" xlink:href="#mb91af33f9c" y="111.833489"/>
      </g>
     </g>
    </g>
    <g id="ytick_43">
     <g id="line2d_139">
      <path clip-path="url(#p45c60efe75)" d="M 72 107.365846 
L 518.4 107.365846 
" style="fill:none;stroke:#b0b0b0;stroke-linecap:square;stroke-opacity:0.2;stroke-width:0.8;"/>
     </g>
     <g id="line2d_140">
      <g>
       <use style="stroke:#000000;stroke-width:0.6;" x="72" xlink:href="#mb91af33f9c" y="107.365846"/>
      </g>
     </g>
    </g>
    <g id="ytick_44">
     <g id="line2d_141">
      <path clip-path="url(#p45c60efe75)" d="M 72 103.588508 
L 518.4 103.588508 
" style="fill:none;stroke:#b0b0b0;stroke-linecap:square;stroke-opacity:0.2;stroke-width:0.8;"/>
     </g>
     <g id="line2d_142">
      <g>
       <use style="stroke:#000000;stroke-width:0.6;" x="72" xlink:href="#mb91af33f9c" y="103.588508"/>
      </g>
     </g>
    </g>
    <g id="ytick_45">
     <g id="line2d_143">
      <path clip-path="url(#p45c60efe75)" d="M 72 100.316429 
L 518.4 100.316429 
" style="fill:none;stroke:#b0b0b0;stroke-linecap:square;stroke-opacity:0.2;stroke-width:0.8;"/>
     </g>
     <g id="line2d_144">
      <g>
       <use style="stroke:#000000;stroke-width:0.6;" x="72" xlink:href="#mb91af33f9c" y="100.316429"/>
      </g>
     </g>
    </g>
    <g id="ytick_46">
     <g id="line2d_145">
      <path clip-path="url(#p45c60efe75)" d="M 72 97.430251 
L 518.4 97.430251 
" style="fill:none;stroke:#b0b0b0;stroke-linecap:square;stroke-opacity:0.2;stroke-width:0.8;"/>
     </g>
     <g id="line2d_146">
      <g>
       <use style="stroke:#000000;stroke-width:0.6;" x="72" xlink:href="#mb91af33f9c" y="97.430251"/>
      </g>
     </g>
    </g>
    <g id="ytick_47">
     <g id="line2d_147">
      <path clip-path="url(#p45c60efe75)" d="M 72 77.863464 
L 518.4 77.863464 
" style="fill:none;stroke:#b0b0b0;stroke-linecap:square;stroke-opacity:0.2;stroke-width:0.8;"/>
     </g>
     <g id="line2d_148">
      <g>
       <use style="stroke:#000000;stroke-width:0.6;" x="72" xlink:href="#mb91af33f9c" y="77.863464"/>
      </g>
     </g>
    </g>
    <g id="ytick_48">
     <g id="line2d_149">
      <path clip-path="url(#p45c60efe75)" d="M 72 67.927869 
L 518.4 67.927869 
" style="fill:none;stroke:#b0b0b0;stroke-linecap:square;stroke-opacity:0.2;stroke-width:0.8;"/>
     </g>
     <g id="line2d_150">
      <g>
       <use style="stroke:#000000;stroke-width:0.6;" x="72" xlink:href="#mb91af33f9c" y="67.927869"/>
      </g>
     </g>
    </g>
    <g id="ytick_49">
     <g id="line2d_151">
      <path clip-path="url(#p45c60efe75)" d="M 72 60.878452 
L 518.4 60.878452 
" style="fill:none;stroke:#b0b0b0;stroke-linecap:square;stroke-opacity:0.2;stroke-width:0.8;"/>
     </g>
     <g id="line2d_152">
      <g>
       <use style="stroke:#000000;stroke-width:0.6;" x="72" xlink:href="#mb91af33f9c" y="60.878452"/>
      </g>
     </g>
    </g>
    <g id="ytick_50">
     <g id="line2d_153">
      <path clip-path="url(#p45c60efe75)" d="M 72 55.410499 
L 518.4 55.410499 
" style="fill:none;stroke:#b0b0b0;stroke-linecap:square;stroke-opacity:0.2;stroke-width:0.8;"/>
     </g>
     <g id="line2d_154">
      <g>
       <use style="stroke:#000000;stroke-width:0.6;" x="72" xlink:href="#mb91af33f9c" y="55.410499"/>
      </g>
     </g>
    </g>
    <g id="text_11">
     <!-- Dark matter density $\rho_{c}(r)$ / $\rho_{c}(r&lt;R_{\mathrm{vir}})$ -->
     <g transform="translate(35.4 308.37)rotate(-90)scale(0.1 -0.1)">
      <defs>
       <path d="M 9.078125 75.984375 
L 18.109375 75.984375 
L 18.109375 31.109375 
L 44.921875 54.6875 
L 56.390625 54.6875 
L 27.390625 29.109375 
L 57.625 0 
L 45.90625 0 
L 18.109375 26.703125 
L 18.109375 0 
L 9.078125 0 
z
" id="DejaVuSans-107"/>
       <path d="M 45.40625 46.390625 
L 45.40625 75.984375 
L 54.390625 75.984375 
L 54.390625 0 
L 45.40625 0 
L 45.40625 8.203125 
Q 42.578125 3.328125 38.25 0.953125 
Q 33.9375 -1.421875 27.875 -1.421875 
Q 17.96875 -1.421875 11.734375 6.484375 
Q 5.515625 14.40625 5.515625 27.296875 
Q 5.515625 40.1875 11.734375 48.09375 
Q 17.96875 56 27.875 56 
Q 33.9375 56 38.25 53.625 
Q 42.578125 51.265625 45.40625 46.390625 
z
M 14.796875 27.296875 
Q 14.796875 17.390625 18.875 11.75 
Q 22.953125 6.109375 30.078125 6.109375 
Q 37.203125 6.109375 41.296875 11.75 
Q 45.40625 17.390625 45.40625 27.296875 
Q 45.40625 37.203125 41.296875 42.84375 
Q 37.203125 48.484375 30.078125 48.484375 
Q 22.953125 48.484375 18.875 42.84375 
Q 14.796875 37.203125 14.796875 27.296875 
z
" id="DejaVuSans-100"/>
       <path d="M 32.171875 -5.078125 
Q 28.375 -14.84375 24.75 -17.8125 
Q 21.140625 -20.796875 15.09375 -20.796875 
L 7.90625 -20.796875 
L 7.90625 -13.28125 
L 13.1875 -13.28125 
Q 16.890625 -13.28125 18.9375 -11.515625 
Q 21 -9.765625 23.484375 -3.21875 
L 25.09375 0.875 
L 2.984375 54.6875 
L 12.5 54.6875 
L 29.59375 11.921875 
L 46.6875 54.6875 
L 56.203125 54.6875 
z
" id="DejaVuSans-121"/>
       <path d="M 18.796875 44.921875 
Q 22.703125 49.90625 30.953125 54.296875 
Q 34.1875 56 43.0625 56 
Q 53.03125 56 57.71875 48.09375 
Q 62.40625 40.1875 59.90625 27.296875 
Q 57.375 14.40625 49.609375 6.484375 
Q 41.84375 -1.421875 31.890625 -1.421875 
Q 25.875 -1.421875 22.015625 0.984375 
Q 18.171875 3.328125 16.3125 8.203125 
L 10.640625 -20.796875 
L 1.609375 -20.796875 
L 10.890625 26.8125 
Q 13.09375 38.09375 18.796875 44.921875 
z
M 50.59375 27.296875 
Q 52.484375 37.203125 49.515625 42.875 
Q 46.53125 48.484375 39.40625 48.484375 
Q 32.28125 48.484375 27.09375 42.875 
Q 21.921875 37.203125 20.015625 27.296875 
Q 18.0625 17.390625 21.046875 11.71875 
Q 24.03125 6.109375 31.15625 6.109375 
Q 38.28125 6.109375 43.453125 11.71875 
Q 48.640625 17.390625 50.59375 27.296875 
z
" id="DejaVuSans-Oblique-961"/>
       <path d="M 53.609375 52.59375 
L 51.8125 43.703125 
Q 48.578125 46.046875 44.9375 47.21875 
Q 41.3125 48.390625 37.40625 48.390625 
Q 33.109375 48.390625 29.21875 46.875 
Q 25.34375 45.359375 22.703125 42.578125 
Q 18.5 38.328125 16.203125 32.609375 
Q 13.921875 26.90625 13.921875 20.796875 
Q 13.921875 13.421875 17.609375 9.8125 
Q 21.296875 6.203125 28.8125 6.203125 
Q 32.515625 6.203125 36.6875 7.328125 
Q 40.875 8.453125 45.40625 10.6875 
L 43.703125 1.8125 
Q 39.796875 0.203125 35.671875 -0.609375 
Q 31.546875 -1.421875 27.203125 -1.421875 
Q 16.3125 -1.421875 10.453125 4.015625 
Q 4.59375 9.46875 4.59375 19.578125 
Q 4.59375 28.078125 7.640625 35.234375 
Q 10.6875 42.390625 16.703125 48.09375 
Q 20.796875 52 26.3125 54 
Q 31.84375 56 38.375 56 
Q 42.1875 56 45.9375 55.140625 
Q 49.703125 54.296875 53.609375 52.59375 
z
" id="DejaVuSans-Oblique-99"/>
       <path d="M 31 75.875 
Q 24.46875 64.65625 21.28125 53.65625 
Q 18.109375 42.671875 18.109375 31.390625 
Q 18.109375 20.125 21.3125 9.0625 
Q 24.515625 -2 31 -13.1875 
L 23.1875 -13.1875 
Q 15.875 -1.703125 12.234375 9.375 
Q 8.59375 20.453125 8.59375 31.390625 
Q 8.59375 42.28125 12.203125 53.3125 
Q 15.828125 64.359375 23.1875 75.875 
z
" id="DejaVuSans-40"/>
       <path d="M 8.015625 75.875 
L 15.828125 75.875 
Q 23.140625 64.359375 26.78125 53.3125 
Q 30.421875 42.28125 30.421875 31.390625 
Q 30.421875 20.453125 26.78125 9.375 
Q 23.140625 -1.703125 15.828125 -13.1875 
L 8.015625 -13.1875 
Q 14.5 -2 17.703125 9.0625 
Q 20.90625 20.125 20.90625 31.390625 
Q 20.90625 42.671875 17.703125 53.65625 
Q 14.5 64.65625 8.015625 75.875 
z
" id="DejaVuSans-41"/>
       <path d="M 25.390625 72.90625 
L 33.6875 72.90625 
L 8.296875 -9.28125 
L 0 -9.28125 
z
" id="DejaVuSans-47"/>
       <path d="M 73.1875 49.21875 
L 22.796875 31.296875 
L 73.1875 13.484375 
L 73.1875 4.59375 
L 10.59375 27.296875 
L 10.59375 35.40625 
L 73.1875 58.109375 
z
" id="DejaVuSans-60"/>
       <path d="M 25.203125 64.796875 
L 20.21875 38.921875 
L 32.90625 38.921875 
Q 40.375 38.921875 44.984375 43.046875 
Q 49.609375 47.171875 49.609375 53.8125 
Q 49.609375 59.125 46.5 61.953125 
Q 43.40625 64.796875 37.59375 64.796875 
z
M 43.3125 35.015625 
Q 46.4375 34.28125 48.515625 31.390625 
Q 50.59375 28.515625 53.328125 19.921875 
L 59.515625 0 
L 49.125 0 
L 43.40625 18.703125 
Q 41.21875 25.921875 38.328125 28.359375 
Q 35.453125 30.8125 29.5 30.8125 
L 18.609375 30.8125 
L 12.59375 0 
L 2.6875 0 
L 16.890625 72.90625 
L 39.109375 72.90625 
Q 49.21875 72.90625 54.609375 68.328125 
Q 60.015625 63.765625 60.015625 55.171875 
Q 60.015625 47.5625 55.421875 41.984375 
Q 50.828125 36.421875 43.3125 35.015625 
z
" id="DejaVuSans-Oblique-82"/>
       <path d="M 2.984375 54.6875 
L 12.5 54.6875 
L 29.59375 8.796875 
L 46.6875 54.6875 
L 56.203125 54.6875 
L 35.6875 0 
L 23.484375 0 
z
" id="DejaVuSans-118"/>
      </defs>
      <use transform="translate(0 0.015625)" xlink:href="#DejaVuSans-68"/>
      <use transform="translate(77.001953 0.015625)" xlink:href="#DejaVuSans-97"/>
      <use transform="translate(138.28125 0.015625)" xlink:href="#DejaVuSans-114"/>
      <use transform="translate(179.394531 0.015625)" xlink:href="#DejaVuSans-107"/>
      <use transform="translate(237.304688 0.015625)" xlink:href="#DejaVuSans-32"/>
      <use transform="translate(269.091797 0.015625)" xlink:href="#DejaVuSans-109"/>
      <use transform="translate(366.503906 0.015625)" xlink:href="#DejaVuSans-97"/>
      <use transform="translate(427.783203 0.015625)" xlink:href="#DejaVuSans-116"/>
      <use transform="translate(466.992188 0.015625)" xlink:href="#DejaVuSans-116"/>
      <use transform="translate(506.201172 0.015625)" xlink:href="#DejaVuSans-101"/>
      <use transform="translate(567.724609 0.015625)" xlink:href="#DejaVuSans-114"/>
      <use transform="translate(608.837891 0.015625)" xlink:href="#DejaVuSans-32"/>
      <use transform="translate(640.625 0.015625)" xlink:href="#DejaVuSans-100"/>
      <use transform="translate(704.101562 0.015625)" xlink:href="#DejaVuSans-101"/>
      <use transform="translate(765.625 0.015625)" xlink:href="#DejaVuSans-110"/>
      <use transform="translate(829.003906 0.015625)" xlink:href="#DejaVuSans-115"/>
      <use transform="translate(881.103516 0.015625)" xlink:href="#DejaVuSans-105"/>
      <use transform="translate(908.886719 0.015625)" xlink:href="#DejaVuSans-116"/>
      <use transform="translate(948.095703 0.015625)" xlink:href="#DejaVuSans-121"/>
      <use transform="translate(1007.275391 0.015625)" xlink:href="#DejaVuSans-32"/>
      <use transform="translate(1039.0625 0.015625)" xlink:href="#DejaVuSans-Oblique-961"/>
      <use transform="translate(1102.539062 -16.390625)scale(0.7)" xlink:href="#DejaVuSans-Oblique-99"/>
      <use transform="translate(1143.759766 0.015625)" xlink:href="#DejaVuSans-40"/>
      <use transform="translate(1182.773438 0.015625)" xlink:href="#DejaVuSans-Oblique-114"/>
      <use transform="translate(1223.886719 0.015625)" xlink:href="#DejaVuSans-41"/>
      <use transform="translate(1262.900391 0.015625)" xlink:href="#DejaVuSans-32"/>
      <use transform="translate(1294.6875 0.015625)" xlink:href="#DejaVuSans-47"/>
      <use transform="translate(1328.378906 0.015625)" xlink:href="#DejaVuSans-32"/>
      <use transform="translate(1360.166016 0.015625)" xlink:href="#DejaVuSans-Oblique-961"/>
      <use transform="translate(1423.642578 -16.390625)scale(0.7)" xlink:href="#DejaVuSans-Oblique-99"/>
      <use transform="translate(1464.863281 0.015625)" xlink:href="#DejaVuSans-40"/>
      <use transform="translate(1503.876953 0.015625)" xlink:href="#DejaVuSans-Oblique-114"/>
      <use transform="translate(1564.472656 0.015625)" xlink:href="#DejaVuSans-60"/>
      <use transform="translate(1667.744141 0.015625)" xlink:href="#DejaVuSans-Oblique-82"/>
      <use transform="translate(1737.226562 -16.390625)scale(0.7)" xlink:href="#DejaVuSans-118"/>
      <use transform="translate(1778.652344 -16.390625)scale(0.7)" xlink:href="#DejaVuSans-105"/>
      <use transform="translate(1798.100586 -16.390625)scale(0.7)" xlink:href="#DejaVuSans-114"/>
      <use transform="translate(1829.614258 0.015625)" xlink:href="#DejaVuSans-41"/>
     </g>
    </g>
   </g>
   <g id="line2d_155">
    <path clip-path="url(#p45c60efe75)" d="M 92.290909 66.665455 
L 127.830957 86.665955 
L 150.25423 90.480114 
L 181.830557 104.950484 
L 211.736975 115.80748 
L 227.010154 134.16131 
L 242.283334 139.617852 
L 257.556513 142.463638 
L 269.011398 149.66355 
L 276.647988 158.063423 
L 284.284578 160.673874 
L 291.921167 162.954701 
L 299.557757 170.977976 
L 307.194347 173.802898 
L 314.830937 181.729471 
L 322.467526 186.227605 
L 330.104116 190.024877 
L 337.740706 198.279867 
L 345.377296 205.417015 
L 353.013885 210.655366 
L 360.650475 216.438364 
L 368.287065 224.753876 
L 375.923655 231.368319 
L 383.560245 237.789626 
L 391.196834 247.229818 
L 398.833424 257.071144 
L 406.470014 269.050981 
L 414.106604 276.107534 
L 421.743193 286.280741 
L 429.379783 295.582642 
L 437.016373 299.498041 
L 444.652963 301.269181 
L 452.289552 306.400069 
L 459.926142 321.632102 
L 467.562732 333.034356 
L 475.199322 337.103048 
L 482.835911 342.724902 
L 490.472501 352.177292 
L 498.109091 363.174545 
" style="fill:none;stroke:#800080;stroke-linecap:square;stroke-width:1.5;"/>
   </g>
   <g id="line2d_156">
    <path clip-path="url(#p45c60efe75)" d="M 92.290909 106.103432 
L 127.830957 113.586563 
L 150.25423 129.918092 
L 181.830557 142.946623 
L 211.736975 138.260445 
L 227.010154 138.02388 
L 242.283334 149.086687 
L 257.556513 158.261364 
L 269.011398 164.01116 
L 276.647988 171.231796 
L 284.284578 170.934033 
L 291.921167 177.424256 
L 299.557757 178.027394 
L 307.194347 183.485871 
L 314.830937 186.770191 
L 322.467526 189.918569 
L 330.104116 195.74942 
L 337.740706 206.209089 
L 345.377296 208.599499 
L 353.013885 211.915859 
L 360.650475 218.725388 
L 368.287065 226.359259 
L 375.923655 229.979911 
L 383.560245 236.189378 
L 391.196834 243.45248 
L 398.833424 250.459313 
L 406.470014 256.657998 
L 414.106604 263.882232 
L 421.743193 273.347207 
L 429.379783 277.332815 
L 437.016373 283.605838 
L 444.652963 292.092537 
L 452.289552 300.446869 
L 459.926142 321.060678 
L 467.562732 328.591578 
L 475.199322 343.784589 
L 482.835911 353.342493 
L 490.472501 356.161895 
L 498.109091 351.106807 
" style="fill:none;stroke:#008000;stroke-linecap:square;stroke-width:1.5;"/>
   </g>
   <g id="line2d_157">
    <path clip-path="url(#p45c60efe75)" d="M 72 264.117447 
L 518.4 264.117447 
" style="fill:none;stroke:#1f77b4;stroke-linecap:square;stroke-width:1.5;"/>
   </g>
   <g id="line2d_158">
    <path clip-path="url(#p45c60efe75)" d="M 457.080839 378 
L 457.080839 51.84 
" style="fill:none;stroke:#ff0000;stroke-linecap:square;stroke-width:1.5;"/>
   </g>
   <g id="patch_4">
    <path d="M 72 378 
L 72 51.84 
" style="fill:none;stroke:#000000;stroke-linecap:square;stroke-linejoin:miter;stroke-width:0.8;"/>
   </g>
   <g id="patch_5">
    <path d="M 518.4 378 
L 518.4 51.84 
" style="fill:none;stroke:#000000;stroke-linecap:square;stroke-linejoin:miter;stroke-width:0.8;"/>
   </g>
   <g id="patch_6">
    <path d="M 72 378 
L 518.4 378 
" style="fill:none;stroke:#000000;stroke-linecap:square;stroke-linejoin:miter;stroke-width:0.8;"/>
   </g>
   <g id="patch_7">
    <path d="M 72 51.84 
L 518.4 51.84 
" style="fill:none;stroke:#000000;stroke-linecap:square;stroke-linejoin:miter;stroke-width:0.8;"/>
   </g>
   <g id="text_12">
    <!-- $R_{\mathrm{vir}}$ -->
    <g transform="translate(457.080839 367.027831)scale(0.1 -0.1)">
     <use transform="translate(0 0.09375)" xlink:href="#DejaVuSans-Oblique-82"/>
     <use transform="translate(69.482422 -16.3125)scale(0.7)" xlink:href="#DejaVuSans-118"/>
     <use transform="translate(110.908203 -16.3125)scale(0.7)" xlink:href="#DejaVuSans-105"/>
     <use transform="translate(130.356445 -16.3125)scale(0.7)" xlink:href="#DejaVuSans-114"/>
    </g>
   </g>
   <g id="text_13">
    <!-- below force  -->
    <g transform="translate(100.276819 338.845006)scale(0.1 -0.1)">
     <defs>
      <path d="M 48.6875 27.296875 
Q 48.6875 37.203125 44.609375 42.84375 
Q 40.53125 48.484375 33.40625 48.484375 
Q 26.265625 48.484375 22.1875 42.84375 
Q 18.109375 37.203125 18.109375 27.296875 
Q 18.109375 17.390625 22.1875 11.75 
Q 26.265625 6.109375 33.40625 6.109375 
Q 40.53125 6.109375 44.609375 11.75 
Q 48.6875 17.390625 48.6875 27.296875 
z
M 18.109375 46.390625 
Q 20.953125 51.265625 25.265625 53.625 
Q 29.59375 56 35.59375 56 
Q 45.5625 56 51.78125 48.09375 
Q 58.015625 40.1875 58.015625 27.296875 
Q 58.015625 14.40625 51.78125 6.484375 
Q 45.5625 -1.421875 35.59375 -1.421875 
Q 29.59375 -1.421875 25.265625 0.953125 
Q 20.953125 3.328125 18.109375 8.203125 
L 18.109375 0 
L 9.078125 0 
L 9.078125 75.984375 
L 18.109375 75.984375 
z
" id="DejaVuSans-98"/>
      <path d="M 4.203125 54.6875 
L 13.1875 54.6875 
L 24.421875 12.015625 
L 35.59375 54.6875 
L 46.1875 54.6875 
L 57.421875 12.015625 
L 68.609375 54.6875 
L 77.59375 54.6875 
L 63.28125 0 
L 52.6875 0 
L 40.921875 44.828125 
L 29.109375 0 
L 18.5 0 
z
" id="DejaVuSans-119"/>
     </defs>
     <use xlink:href="#DejaVuSans-98"/>
     <use x="63.476562" xlink:href="#DejaVuSans-101"/>
     <use x="125" xlink:href="#DejaVuSans-108"/>
     <use x="152.783203" xlink:href="#DejaVuSans-111"/>
     <use x="213.964844" xlink:href="#DejaVuSans-119"/>
     <use x="295.751953" xlink:href="#DejaVuSans-32"/>
     <use x="327.539062" xlink:href="#DejaVuSans-102"/>
     <use x="362.744141" xlink:href="#DejaVuSans-111"/>
     <use x="423.925781" xlink:href="#DejaVuSans-114"/>
     <use x="462.789062" xlink:href="#DejaVuSans-99"/>
     <use x="517.769531" xlink:href="#DejaVuSans-101"/>
     <use x="579.292969" xlink:href="#DejaVuSans-32"/>
    </g>
    <!-- softening length -->
    <g transform="translate(100.276819 350.042819)scale(0.1 -0.1)">
     <defs>
      <path d="M 45.40625 27.984375 
Q 45.40625 37.75 41.375 43.109375 
Q 37.359375 48.484375 30.078125 48.484375 
Q 22.859375 48.484375 18.828125 43.109375 
Q 14.796875 37.75 14.796875 27.984375 
Q 14.796875 18.265625 18.828125 12.890625 
Q 22.859375 7.515625 30.078125 7.515625 
Q 37.359375 7.515625 41.375 12.890625 
Q 45.40625 18.265625 45.40625 27.984375 
z
M 54.390625 6.78125 
Q 54.390625 -7.171875 48.1875 -13.984375 
Q 42 -20.796875 29.203125 -20.796875 
Q 24.46875 -20.796875 20.265625 -20.09375 
Q 16.0625 -19.390625 12.109375 -17.921875 
L 12.109375 -9.1875 
Q 16.0625 -11.328125 19.921875 -12.34375 
Q 23.78125 -13.375 27.78125 -13.375 
Q 36.625 -13.375 41.015625 -8.765625 
Q 45.40625 -4.15625 45.40625 5.171875 
L 45.40625 9.625 
Q 42.625 4.78125 38.28125 2.390625 
Q 33.9375 0 27.875 0 
Q 17.828125 0 11.671875 7.65625 
Q 5.515625 15.328125 5.515625 27.984375 
Q 5.515625 40.671875 11.671875 48.328125 
Q 17.828125 56 27.875 56 
Q 33.9375 56 38.28125 53.609375 
Q 42.625 51.21875 45.40625 46.390625 
L 45.40625 54.6875 
L 54.390625 54.6875 
z
" id="DejaVuSans-103"/>
     </defs>
     <use xlink:href="#DejaVuSans-115"/>
     <use x="52.099609" xlink:href="#DejaVuSans-111"/>
     <use x="113.28125" xlink:href="#DejaVuSans-102"/>
     <use x="146.736328" xlink:href="#DejaVuSans-116"/>
     <use x="185.945312" xlink:href="#DejaVuSans-101"/>
     <use x="247.46875" xlink:href="#DejaVuSans-110"/>
     <use x="310.847656" xlink:href="#DejaVuSans-105"/>
     <use x="338.630859" xlink:href="#DejaVuSans-110"/>
     <use x="402.009766" xlink:href="#DejaVuSans-103"/>
     <use x="465.486328" xlink:href="#DejaVuSans-32"/>
     <use x="497.273438" xlink:href="#DejaVuSans-108"/>
     <use x="525.056641" xlink:href="#DejaVuSans-101"/>
     <use x="586.580078" xlink:href="#DejaVuSans-110"/>
     <use x="649.958984" xlink:href="#DejaVuSans-103"/>
     <use x="713.435547" xlink:href="#DejaVuSans-116"/>
     <use x="752.644531" xlink:href="#DejaVuSans-104"/>
    </g>
   </g>
   <g id="text_14">
    <!-- Mean density within virial radius -->
    <g transform="translate(185.794278 264.117447)scale(0.1 -0.1)">
     <defs>
      <path d="M 8.5 21.578125 
L 8.5 54.6875 
L 17.484375 54.6875 
L 17.484375 21.921875 
Q 17.484375 14.15625 20.5 10.265625 
Q 23.53125 6.390625 29.59375 6.390625 
Q 36.859375 6.390625 41.078125 11.03125 
Q 45.3125 15.671875 45.3125 23.6875 
L 45.3125 54.6875 
L 54.296875 54.6875 
L 54.296875 0 
L 45.3125 0 
L 45.3125 8.40625 
Q 42.046875 3.421875 37.71875 1 
Q 33.40625 -1.421875 27.6875 -1.421875 
Q 18.265625 -1.421875 13.375 4.4375 
Q 8.5 10.296875 8.5 21.578125 
z
M 31.109375 56 
z
" id="DejaVuSans-117"/>
     </defs>
     <use xlink:href="#DejaVuSans-77"/>
     <use x="86.279297" xlink:href="#DejaVuSans-101"/>
     <use x="147.802734" xlink:href="#DejaVuSans-97"/>
     <use x="209.082031" xlink:href="#DejaVuSans-110"/>
     <use x="272.460938" xlink:href="#DejaVuSans-32"/>
     <use x="304.248047" xlink:href="#DejaVuSans-100"/>
     <use x="367.724609" xlink:href="#DejaVuSans-101"/>
     <use x="429.248047" xlink:href="#DejaVuSans-110"/>
     <use x="492.626953" xlink:href="#DejaVuSans-115"/>
     <use x="544.726562" xlink:href="#DejaVuSans-105"/>
     <use x="572.509766" xlink:href="#DejaVuSans-116"/>
     <use x="611.71875" xlink:href="#DejaVuSans-121"/>
     <use x="670.898438" xlink:href="#DejaVuSans-32"/>
     <use x="702.685547" xlink:href="#DejaVuSans-119"/>
     <use x="784.472656" xlink:href="#DejaVuSans-105"/>
     <use x="812.255859" xlink:href="#DejaVuSans-116"/>
     <use x="851.464844" xlink:href="#DejaVuSans-104"/>
     <use x="914.84375" xlink:href="#DejaVuSans-105"/>
     <use x="942.626953" xlink:href="#DejaVuSans-110"/>
     <use x="1006.005859" xlink:href="#DejaVuSans-32"/>
     <use x="1037.792969" xlink:href="#DejaVuSans-118"/>
     <use x="1096.972656" xlink:href="#DejaVuSans-105"/>
     <use x="1124.755859" xlink:href="#DejaVuSans-114"/>
     <use x="1165.869141" xlink:href="#DejaVuSans-105"/>
     <use x="1193.652344" xlink:href="#DejaVuSans-97"/>
     <use x="1254.931641" xlink:href="#DejaVuSans-108"/>
     <use x="1282.714844" xlink:href="#DejaVuSans-32"/>
     <use x="1314.501953" xlink:href="#DejaVuSans-114"/>
     <use x="1355.615234" xlink:href="#DejaVuSans-97"/>
     <use x="1416.894531" xlink:href="#DejaVuSans-100"/>
     <use x="1480.371094" xlink:href="#DejaVuSans-105"/>
     <use x="1508.154297" xlink:href="#DejaVuSans-117"/>
     <use x="1571.533203" xlink:href="#DejaVuSans-115"/>
    </g>
   </g>
   <g id="text_15">
    <!-- Halo density profile -->
    <g transform="translate(236.91 45.84)scale(0.12 -0.12)">
     <defs>
      <path d="M 9.8125 72.90625 
L 19.671875 72.90625 
L 19.671875 43.015625 
L 55.515625 43.015625 
L 55.515625 72.90625 
L 65.375 72.90625 
L 65.375 0 
L 55.515625 0 
L 55.515625 34.71875 
L 19.671875 34.71875 
L 19.671875 0 
L 9.8125 0 
z
" id="DejaVuSans-72"/>
     </defs>
     <use xlink:href="#DejaVuSans-72"/>
     <use x="75.195312" xlink:href="#DejaVuSans-97"/>
     <use x="136.474609" xlink:href="#DejaVuSans-108"/>
     <use x="164.257812" xlink:href="#DejaVuSans-111"/>
     <use x="225.439453" xlink:href="#DejaVuSans-32"/>
     <use x="257.226562" xlink:href="#DejaVuSans-100"/>
     <use x="320.703125" xlink:href="#DejaVuSans-101"/>
     <use x="382.226562" xlink:href="#DejaVuSans-110"/>
     <use x="445.605469" xlink:href="#DejaVuSans-115"/>
     <use x="497.705078" xlink:href="#DejaVuSans-105"/>
     <use x="525.488281" xlink:href="#DejaVuSans-116"/>
     <use x="564.697266" xlink:href="#DejaVuSans-121"/>
     <use x="623.876953" xlink:href="#DejaVuSans-32"/>
     <use x="655.664062" xlink:href="#DejaVuSans-112"/>
     <use x="719.140625" xlink:href="#DejaVuSans-114"/>
     <use x="758.003906" xlink:href="#DejaVuSans-111"/>
     <use x="819.185547" xlink:href="#DejaVuSans-102"/>
     <use x="854.390625" xlink:href="#DejaVuSans-105"/>
     <use x="882.173828" xlink:href="#DejaVuSans-108"/>
     <use x="909.957031" xlink:href="#DejaVuSans-101"/>
    </g>
   </g>
   <g id="legend_1">
    <g id="patch_8">
     <path d="M 208.598437 373 
L 381.801562 373 
Q 383.801562 373 383.801562 371 
L 383.801562 342.64375 
Q 383.801562 340.64375 381.801562 340.64375 
L 208.598437 340.64375 
Q 206.598437 340.64375 206.598437 342.64375 
L 206.598437 371 
Q 206.598437 373 208.598437 373 
z
" style="fill:#ffffff;opacity:0.8;stroke:#cccccc;stroke-linejoin:miter;"/>
    </g>
    <g id="line2d_159">
     <path d="M 210.598437 348.742188 
L 230.598437 348.742188 
" style="fill:none;stroke:#800080;stroke-linecap:square;stroke-width:1.5;"/>
    </g>
    <g id="line2d_160"/>
    <g id="text_16">
     <!-- from full hydro simulation -->
     <g transform="translate(238.598437 352.242188)scale(0.1 -0.1)">
      <use xlink:href="#DejaVuSans-102"/>
      <use x="35.205078" xlink:href="#DejaVuSans-114"/>
      <use x="74.068359" xlink:href="#DejaVuSans-111"/>
      <use x="135.25" xlink:href="#DejaVuSans-109"/>
      <use x="232.662109" xlink:href="#DejaVuSans-32"/>
      <use x="264.449219" xlink:href="#DejaVuSans-102"/>
      <use x="299.654297" xlink:href="#DejaVuSans-117"/>
      <use x="363.033203" xlink:href="#DejaVuSans-108"/>
      <use x="390.816406" xlink:href="#DejaVuSans-108"/>
      <use x="418.599609" xlink:href="#DejaVuSans-32"/>
      <use x="450.386719" xlink:href="#DejaVuSans-104"/>
      <use x="513.765625" xlink:href="#DejaVuSans-121"/>
      <use x="572.945312" xlink:href="#DejaVuSans-100"/>
      <use x="636.421875" xlink:href="#DejaVuSans-114"/>
      <use x="675.285156" xlink:href="#DejaVuSans-111"/>
      <use x="736.466797" xlink:href="#DejaVuSans-32"/>
      <use x="768.253906" xlink:href="#DejaVuSans-115"/>
      <use x="820.353516" xlink:href="#DejaVuSans-105"/>
      <use x="848.136719" xlink:href="#DejaVuSans-109"/>
      <use x="945.548828" xlink:href="#DejaVuSans-117"/>
      <use x="1008.927734" xlink:href="#DejaVuSans-108"/>
      <use x="1036.710938" xlink:href="#DejaVuSans-97"/>
      <use x="1097.990234" xlink:href="#DejaVuSans-116"/>
      <use x="1137.199219" xlink:href="#DejaVuSans-105"/>
      <use x="1164.982422" xlink:href="#DejaVuSans-111"/>
      <use x="1226.164062" xlink:href="#DejaVuSans-110"/>
     </g>
    </g>
    <g id="line2d_161">
     <path d="M 210.598437 363.420313 
L 230.598437 363.420313 
" style="fill:none;stroke:#008000;stroke-linecap:square;stroke-width:1.5;"/>
    </g>
    <g id="line2d_162"/>
    <g id="text_17">
     <!-- from gravity only simulation -->
     <g transform="translate(238.598437 366.920313)scale(0.1 -0.1)">
      <use xlink:href="#DejaVuSans-102"/>
      <use x="35.205078" xlink:href="#DejaVuSans-114"/>
      <use x="74.068359" xlink:href="#DejaVuSans-111"/>
      <use x="135.25" xlink:href="#DejaVuSans-109"/>
      <use x="232.662109" xlink:href="#DejaVuSans-32"/>
      <use x="264.449219" xlink:href="#DejaVuSans-103"/>
      <use x="327.925781" xlink:href="#DejaVuSans-114"/>
      <use x="369.039062" xlink:href="#DejaVuSans-97"/>
      <use x="430.318359" xlink:href="#DejaVuSans-118"/>
      <use x="489.498047" xlink:href="#DejaVuSans-105"/>
      <use x="517.28125" xlink:href="#DejaVuSans-116"/>
      <use x="556.490234" xlink:href="#DejaVuSans-121"/>
      <use x="615.669922" xlink:href="#DejaVuSans-32"/>
      <use x="647.457031" xlink:href="#DejaVuSans-111"/>
      <use x="708.638672" xlink:href="#DejaVuSans-110"/>
      <use x="772.017578" xlink:href="#DejaVuSans-108"/>
      <use x="799.800781" xlink:href="#DejaVuSans-121"/>
      <use x="858.980469" xlink:href="#DejaVuSans-32"/>
      <use x="890.767578" xlink:href="#DejaVuSans-115"/>
      <use x="942.867188" xlink:href="#DejaVuSans-105"/>
      <use x="970.650391" xlink:href="#DejaVuSans-109"/>
      <use x="1068.0625" xlink:href="#DejaVuSans-117"/>
      <use x="1131.441406" xlink:href="#DejaVuSans-108"/>
      <use x="1159.224609" xlink:href="#DejaVuSans-97"/>
      <use x="1220.503906" xlink:href="#DejaVuSans-116"/>
      <use x="1259.712891" xlink:href="#DejaVuSans-105"/>
      <use x="1287.496094" xlink:href="#DejaVuSans-111"/>
      <use x="1348.677734" xlink:href="#DejaVuSans-110"/>
     </g>
    </g>
   </g>
  </g>
 </g>
 <defs>
  <clipPath id="p45c60efe75">
   <rect height="326.16" width="446.4" x="72" y="51.84"/>
  </clipPath>
 </defs>
</svg>
