<?xml version="1.0" encoding="utf-8" standalone="no"?>
<!DOCTYPE svg PUBLIC "-//W3C//DTD SVG 1.1//EN"
  "http://www.w3.org/Graphics/SVG/1.1/DTD/svg11.dtd">
<!-- Created with matplotlib (https://matplotlib.org/) -->
<svg height="576pt" version="1.1" viewBox="0 0 720 576" width="720pt" xmlns="http://www.w3.org/2000/svg" xmlns:xlink="http://www.w3.org/1999/xlink">
 <metadata>
  <rdf:RDF xmlns:cc="http://creativecommons.org/ns#" xmlns:dc="http://purl.org/dc/elements/1.1/" xmlns:rdf="http://www.w3.org/1999/02/22-rdf-syntax-ns#">
   <cc:Work>
    <dc:type rdf:resource="http://purl.org/dc/dcmitype/StillImage"/>
    <dc:date>2021-04-16T13:18:23.831516</dc:date>
    <dc:format>image/svg+xml</dc:format>
    <dc:creator>
     <cc:Agent>
      <dc:title>Matplotlib v3.3.4, https://matplotlib.org/</dc:title>
     </cc:Agent>
    </dc:creator>
   </cc:Work>
  </rdf:RDF>
 </metadata>
 <defs>
  <style type="text/css">*{stroke-linecap:butt;stroke-linejoin:round;}</style>
 </defs>
 <g id="figure_1">
  <g id="patch_1">
   <path d="M 0 576 
L 720 576 
L 720 0 
L 0 0 
z
" style="fill:none;"/>
  </g>
  <g id="axes_1">
   <g id="patch_2">
    <path d="M 90 504 
L 648 504 
L 648 69.12 
L 90 69.12 
z
" style="fill:#ffffff;"/>
   </g>
   <g id="PolyCollection_1">
    <path clip-path="url(#pa9300669b3)" d="M 95.604155 398.941537 
L 95.604155 436.828955 
L 106.91009 440.121791 
L 106.91009 396.430612 
L 106.91009 396.430612 
L 95.604155 398.941537 
z
" style="fill:#008000;fill-opacity:0.3;stroke:#008000;stroke-opacity:0.3;"/>
    <path clip-path="url(#pa9300669b3)" d="M 130.805948 456.513463 
L 130.805948 476.32103 
L 144.681995 482.475358 
L 154.566342 472.112968 
L 166.321124 466.156537 
L 177.180663 457.113196 
L 188.206983 449.492906 
L 199.2592 441.508292 
L 210.357721 433.7973 
L 221.527474 425.93882 
L 232.689998 417.820994 
L 243.863793 410.032694 
L 255.069819 402.008399 
L 266.300534 394.206624 
L 277.559098 386.307554 
L 288.792639 378.364325 
L 300.122477 370.674152 
L 311.393257 362.309012 
L 322.708594 354.35676 
L 334.06461 345.884684 
L 345.270677 338.374476 
L 356.627027 329.760072 
L 367.851232 323.196344 
L 379.64073 316.868583 
L 390.553014 308.259296 
L 402.156843 310.638264 
L 413.092437 311.6604 
L 425.526042 311.359952 
L 436.479206 310.357038 
L 448.96128 314.399053 
L 460.039772 314.402483 
L 472.044194 312.948972 
L 483.57005 312.911028 
L 494.155597 310.007733 
L 506.129842 310.084845 
L 516.207347 311.173044 
L 528.010613 312.225881 
L 539.522971 311.853475 
L 551.407198 313.069749 
L 562.695481 319.091161 
L 573.841886 314.980574 
L 585.010554 315.090058 
L 596.877122 312.992797 
L 607.930466 316.395694 
L 619.269617 316.952734 
L 631.550014 313.567704 
L 642.986018 311.8803 
L 642.986018 189.144548 
L 642.986018 189.144548 
L 631.550014 197.765573 
L 619.269617 197.008377 
L 607.930466 198.18514 
L 596.877122 200.580823 
L 585.010554 187.703156 
L 573.841886 212.115784 
L 562.695481 228.415195 
L 551.407198 229.987282 
L 539.522971 214.543759 
L 528.010613 213.911986 
L 516.207347 207.389583 
L 506.129842 220.362793 
L 494.155597 209.708592 
L 483.57005 228.974588 
L 472.044194 219.175658 
L 460.039772 230.876729 
L 448.96128 215.968364 
L 436.479206 229.054907 
L 425.526042 212.52273 
L 413.092437 229.113395 
L 402.156843 228.10552 
L 390.553014 233.349645 
L 379.64073 245.02825 
L 367.851232 251.951572 
L 356.627027 261.862693 
L 345.270677 270.063951 
L 334.06461 280.580391 
L 322.708594 290.34743 
L 311.393257 299.852205 
L 300.122477 309.507057 
L 288.792639 319.589895 
L 277.559098 329.00392 
L 266.300534 338.909652 
L 255.069819 348.431536 
L 243.863793 358.197996 
L 232.689998 368.069828 
L 221.527474 377.467347 
L 210.357721 387.040214 
L 199.2592 396.63856 
L 188.206983 406.567825 
L 177.180663 415.673278 
L 166.321124 424.943687 
L 154.566342 433.384847 
L 144.681995 458.918687 
L 130.805948 456.513463 
z
" style="fill:#008000;fill-opacity:0.3;stroke:#008000;stroke-opacity:0.3;"/>
   </g>
   <g id="PolyCollection_2">
    <defs>
     <path d="M 219.343064 -77.529508 
L 177.54088 -77.529508 
L 172.982081 -86.594649 
L 177.720708 -95.708957 
L 180.661351 -104.112233 
L 185.099446 -112.884115 
L 188.565996 -121.5877 
L 192.901507 -130.391776 
L 197.22191 -139.105797 
L 202.094038 -147.902964 
L 206.924077 -156.660444 
L 211.535172 -165.427967 
L 216.525984 -174.241766 
L 221.818266 -183.08276 
L 226.97607 -191.854288 
L 232.225817 -200.665922 
L 237.674583 -209.485548 
L 243.139687 -218.294459 
L 248.830593 -227.109057 
L 254.175771 -235.926406 
L 259.714824 -244.804571 
L 265.36027 -253.609755 
L 271.033927 -262.446216 
L 276.835717 -271.344621 
L 282.24278 -280.150387 
L 288.326069 -289.006666 
L 294.186955 -297.855505 
L 299.317355 -306.795243 
L 306.395504 -315.426694 
L 311.113935 -324.41859 
L 319.811205 -333.331396 
L 327.58433 -342.227378 
L 328.79024 -351.185449 
L 332.107302 -360.327805 
L 340.762534 -369.302123 
L 350.593287 -377.691683 
L 358.98031 -387.080929 
L 382.962433 -394.670783 
L 401.876995 -404.645808 
L 459.729906 -413.406901 
L 411.029233 -423.211009 
L 452.846703 -433.544264 
L 457.409724 -440.010224 
L 515.522817 -448.246536 
L 551.243607 -457.371355 
L 447.382675 -468.035762 
L 514.192558 -474.791354 
L 463.30154 -484.403138 
L 487.325078 -493.545522 
L 525.317107 -503.505882 
L 603.264381 -503.505882 
L 603.264381 -503.505882 
L 547.235374 -493.545522 
L 625.244537 -484.403138 
L 623.202355 -474.791354 
L 554.541396 -468.035762 
L 627.844222 -457.371355 
L 626.661235 -448.246536 
L 595.229118 -440.010224 
L 641.351208 -433.544264 
L 613.683248 -423.211009 
L 618.388055 -413.406901 
L 609.370718 -404.645808 
L 617.122437 -394.670783 
L 593.171497 -387.080929 
L 573.101939 -377.691683 
L 534.639987 -369.302123 
L 528.814232 -360.327805 
L 508.635078 -351.185449 
L 446.909412 -342.227378 
L 408.689503 -333.331396 
L 382.576592 -324.41859 
L 371.406167 -315.426694 
L 358.657657 -306.795243 
L 350.382001 -297.855505 
L 342.764632 -289.006666 
L 335.793199 -280.150387 
L 329.048925 -271.344621 
L 323.01641 -262.446216 
L 316.347758 -253.609755 
L 309.471583 -244.804571 
L 303.226381 -235.926406 
L 297.264762 -227.109057 
L 291.409019 -218.294459 
L 285.478619 -209.485548 
L 279.806802 -200.665922 
L 274.330152 -191.854288 
L 269.001265 -183.08276 
L 263.673941 -174.241766 
L 258.320425 -165.427967 
L 253.140185 -156.660444 
L 248.45819 -147.902964 
L 243.429645 -139.105797 
L 239.05876 -130.391776 
L 233.677266 -121.5877 
L 231.105421 -112.884115 
L 226.091078 -104.112233 
L 222.287782 -95.708957 
L 219.99237 -86.594649 
L 219.343064 -77.529508 
z
" id="m11b8778e2c" style="stroke:#ff0000;stroke-opacity:0.3;"/>
    </defs>
    <g clip-path="url(#pa9300669b3)">
     <use style="fill:#ff0000;fill-opacity:0.3;stroke:#ff0000;stroke-opacity:0.3;" x="0" xlink:href="#m11b8778e2c" y="576"/>
    </g>
   </g>
   <g id="matplotlib.axis_1">
    <g id="xtick_1">
     <g id="line2d_1">
      <defs>
       <path d="M 0 0 
L 0 3.5 
" id="mad3bcb4aa7" style="stroke:#000000;stroke-width:0.8;"/>
      </defs>
      <g>
       <use style="stroke:#000000;stroke-width:0.8;" x="90" xlink:href="#mad3bcb4aa7" y="504"/>
      </g>
     </g>
     <g id="text_1">
      <!-- 0.5 -->
      <g transform="translate(82.048438 518.598438)scale(0.1 -0.1)">
       <defs>
        <path d="M 31.78125 66.40625 
Q 24.171875 66.40625 20.328125 58.90625 
Q 16.5 51.421875 16.5 36.375 
Q 16.5 21.390625 20.328125 13.890625 
Q 24.171875 6.390625 31.78125 6.390625 
Q 39.453125 6.390625 43.28125 13.890625 
Q 47.125 21.390625 47.125 36.375 
Q 47.125 51.421875 43.28125 58.90625 
Q 39.453125 66.40625 31.78125 66.40625 
z
M 31.78125 74.21875 
Q 44.046875 74.21875 50.515625 64.515625 
Q 56.984375 54.828125 56.984375 36.375 
Q 56.984375 17.96875 50.515625 8.265625 
Q 44.046875 -1.421875 31.78125 -1.421875 
Q 19.53125 -1.421875 13.0625 8.265625 
Q 6.59375 17.96875 6.59375 36.375 
Q 6.59375 54.828125 13.0625 64.515625 
Q 19.53125 74.21875 31.78125 74.21875 
z
" id="DejaVuSans-48"/>
        <path d="M 10.6875 12.40625 
L 21 12.40625 
L 21 0 
L 10.6875 0 
z
" id="DejaVuSans-46"/>
        <path d="M 10.796875 72.90625 
L 49.515625 72.90625 
L 49.515625 64.59375 
L 19.828125 64.59375 
L 19.828125 46.734375 
Q 21.96875 47.46875 24.109375 47.828125 
Q 26.265625 48.1875 28.421875 48.1875 
Q 40.625 48.1875 47.75 41.5 
Q 54.890625 34.8125 54.890625 23.390625 
Q 54.890625 11.625 47.5625 5.09375 
Q 40.234375 -1.421875 26.90625 -1.421875 
Q 22.3125 -1.421875 17.546875 -0.640625 
Q 12.796875 0.140625 7.71875 1.703125 
L 7.71875 11.625 
Q 12.109375 9.234375 16.796875 8.0625 
Q 21.484375 6.890625 26.703125 6.890625 
Q 35.15625 6.890625 40.078125 11.328125 
Q 45.015625 15.765625 45.015625 23.390625 
Q 45.015625 31 40.078125 35.4375 
Q 35.15625 39.890625 26.703125 39.890625 
Q 22.75 39.890625 18.8125 39.015625 
Q 14.890625 38.140625 10.796875 36.28125 
z
" id="DejaVuSans-53"/>
       </defs>
       <use xlink:href="#DejaVuSans-48"/>
       <use x="63.623047" xlink:href="#DejaVuSans-46"/>
       <use x="95.410156" xlink:href="#DejaVuSans-53"/>
      </g>
     </g>
    </g>
    <g id="xtick_2">
     <g id="line2d_2">
      <g>
       <use style="stroke:#000000;stroke-width:0.8;" x="201.6" xlink:href="#mad3bcb4aa7" y="504"/>
      </g>
     </g>
     <g id="text_2">
      <!-- 1.0 -->
      <g transform="translate(193.648438 518.598438)scale(0.1 -0.1)">
       <defs>
        <path d="M 12.40625 8.296875 
L 28.515625 8.296875 
L 28.515625 63.921875 
L 10.984375 60.40625 
L 10.984375 69.390625 
L 28.421875 72.90625 
L 38.28125 72.90625 
L 38.28125 8.296875 
L 54.390625 8.296875 
L 54.390625 0 
L 12.40625 0 
z
" id="DejaVuSans-49"/>
       </defs>
       <use xlink:href="#DejaVuSans-49"/>
       <use x="63.623047" xlink:href="#DejaVuSans-46"/>
       <use x="95.410156" xlink:href="#DejaVuSans-48"/>
      </g>
     </g>
    </g>
    <g id="xtick_3">
     <g id="line2d_3">
      <g>
       <use style="stroke:#000000;stroke-width:0.8;" x="313.2" xlink:href="#mad3bcb4aa7" y="504"/>
      </g>
     </g>
     <g id="text_3">
      <!-- 1.5 -->
      <g transform="translate(305.248437 518.598438)scale(0.1 -0.1)">
       <use xlink:href="#DejaVuSans-49"/>
       <use x="63.623047" xlink:href="#DejaVuSans-46"/>
       <use x="95.410156" xlink:href="#DejaVuSans-53"/>
      </g>
     </g>
    </g>
    <g id="xtick_4">
     <g id="line2d_4">
      <g>
       <use style="stroke:#000000;stroke-width:0.8;" x="424.8" xlink:href="#mad3bcb4aa7" y="504"/>
      </g>
     </g>
     <g id="text_4">
      <!-- 2.0 -->
      <g transform="translate(416.848437 518.598438)scale(0.1 -0.1)">
       <defs>
        <path d="M 19.1875 8.296875 
L 53.609375 8.296875 
L 53.609375 0 
L 7.328125 0 
L 7.328125 8.296875 
Q 12.9375 14.109375 22.625 23.890625 
Q 32.328125 33.6875 34.8125 36.53125 
Q 39.546875 41.84375 41.421875 45.53125 
Q 43.3125 49.21875 43.3125 52.78125 
Q 43.3125 58.59375 39.234375 62.25 
Q 35.15625 65.921875 28.609375 65.921875 
Q 23.96875 65.921875 18.8125 64.3125 
Q 13.671875 62.703125 7.8125 59.421875 
L 7.8125 69.390625 
Q 13.765625 71.78125 18.9375 73 
Q 24.125 74.21875 28.421875 74.21875 
Q 39.75 74.21875 46.484375 68.546875 
Q 53.21875 62.890625 53.21875 53.421875 
Q 53.21875 48.921875 51.53125 44.890625 
Q 49.859375 40.875 45.40625 35.40625 
Q 44.1875 33.984375 37.640625 27.21875 
Q 31.109375 20.453125 19.1875 8.296875 
z
" id="DejaVuSans-50"/>
       </defs>
       <use xlink:href="#DejaVuSans-50"/>
       <use x="63.623047" xlink:href="#DejaVuSans-46"/>
       <use x="95.410156" xlink:href="#DejaVuSans-48"/>
      </g>
     </g>
    </g>
    <g id="xtick_5">
     <g id="line2d_5">
      <g>
       <use style="stroke:#000000;stroke-width:0.8;" x="536.4" xlink:href="#mad3bcb4aa7" y="504"/>
      </g>
     </g>
     <g id="text_5">
      <!-- 2.5 -->
      <g transform="translate(528.448437 518.598438)scale(0.1 -0.1)">
       <use xlink:href="#DejaVuSans-50"/>
       <use x="63.623047" xlink:href="#DejaVuSans-46"/>
       <use x="95.410156" xlink:href="#DejaVuSans-53"/>
      </g>
     </g>
    </g>
    <g id="xtick_6">
     <g id="line2d_6">
      <g>
       <use style="stroke:#000000;stroke-width:0.8;" x="648" xlink:href="#mad3bcb4aa7" y="504"/>
      </g>
     </g>
     <g id="text_6">
      <!-- 3.0 -->
      <g transform="translate(640.048437 518.598438)scale(0.1 -0.1)">
       <defs>
        <path d="M 40.578125 39.3125 
Q 47.65625 37.796875 51.625 33 
Q 55.609375 28.21875 55.609375 21.1875 
Q 55.609375 10.40625 48.1875 4.484375 
Q 40.765625 -1.421875 27.09375 -1.421875 
Q 22.515625 -1.421875 17.65625 -0.515625 
Q 12.796875 0.390625 7.625 2.203125 
L 7.625 11.71875 
Q 11.71875 9.328125 16.59375 8.109375 
Q 21.484375 6.890625 26.8125 6.890625 
Q 36.078125 6.890625 40.9375 10.546875 
Q 45.796875 14.203125 45.796875 21.1875 
Q 45.796875 27.640625 41.28125 31.265625 
Q 36.765625 34.90625 28.71875 34.90625 
L 20.21875 34.90625 
L 20.21875 43.015625 
L 29.109375 43.015625 
Q 36.375 43.015625 40.234375 45.921875 
Q 44.09375 48.828125 44.09375 54.296875 
Q 44.09375 59.90625 40.109375 62.90625 
Q 36.140625 65.921875 28.71875 65.921875 
Q 24.65625 65.921875 20.015625 65.03125 
Q 15.375 64.15625 9.8125 62.3125 
L 9.8125 71.09375 
Q 15.4375 72.65625 20.34375 73.4375 
Q 25.25 74.21875 29.59375 74.21875 
Q 40.828125 74.21875 47.359375 69.109375 
Q 53.90625 64.015625 53.90625 55.328125 
Q 53.90625 49.265625 50.4375 45.09375 
Q 46.96875 40.921875 40.578125 39.3125 
z
" id="DejaVuSans-51"/>
       </defs>
       <use xlink:href="#DejaVuSans-51"/>
       <use x="63.623047" xlink:href="#DejaVuSans-46"/>
       <use x="95.410156" xlink:href="#DejaVuSans-48"/>
      </g>
     </g>
    </g>
    <g id="text_7">
     <!-- Rockstar -->
     <g transform="translate(347.3625 532.276562)scale(0.1 -0.1)">
      <defs>
       <path d="M 44.390625 34.1875 
Q 47.5625 33.109375 50.5625 29.59375 
Q 53.5625 26.078125 56.59375 19.921875 
L 66.609375 0 
L 56 0 
L 46.6875 18.703125 
Q 43.0625 26.03125 39.671875 28.421875 
Q 36.28125 30.8125 30.421875 30.8125 
L 19.671875 30.8125 
L 19.671875 0 
L 9.8125 0 
L 9.8125 72.90625 
L 32.078125 72.90625 
Q 44.578125 72.90625 50.734375 67.671875 
Q 56.890625 62.453125 56.890625 51.90625 
Q 56.890625 45.015625 53.6875 40.46875 
Q 50.484375 35.9375 44.390625 34.1875 
z
M 19.671875 64.796875 
L 19.671875 38.921875 
L 32.078125 38.921875 
Q 39.203125 38.921875 42.84375 42.21875 
Q 46.484375 45.515625 46.484375 51.90625 
Q 46.484375 58.296875 42.84375 61.546875 
Q 39.203125 64.796875 32.078125 64.796875 
z
" id="DejaVuSans-82"/>
       <path d="M 30.609375 48.390625 
Q 23.390625 48.390625 19.1875 42.75 
Q 14.984375 37.109375 14.984375 27.296875 
Q 14.984375 17.484375 19.15625 11.84375 
Q 23.34375 6.203125 30.609375 6.203125 
Q 37.796875 6.203125 41.984375 11.859375 
Q 46.1875 17.53125 46.1875 27.296875 
Q 46.1875 37.015625 41.984375 42.703125 
Q 37.796875 48.390625 30.609375 48.390625 
z
M 30.609375 56 
Q 42.328125 56 49.015625 48.375 
Q 55.71875 40.765625 55.71875 27.296875 
Q 55.71875 13.875 49.015625 6.21875 
Q 42.328125 -1.421875 30.609375 -1.421875 
Q 18.84375 -1.421875 12.171875 6.21875 
Q 5.515625 13.875 5.515625 27.296875 
Q 5.515625 40.765625 12.171875 48.375 
Q 18.84375 56 30.609375 56 
z
" id="DejaVuSans-111"/>
       <path d="M 48.78125 52.59375 
L 48.78125 44.1875 
Q 44.96875 46.296875 41.140625 47.34375 
Q 37.3125 48.390625 33.40625 48.390625 
Q 24.65625 48.390625 19.8125 42.84375 
Q 14.984375 37.3125 14.984375 27.296875 
Q 14.984375 17.28125 19.8125 11.734375 
Q 24.65625 6.203125 33.40625 6.203125 
Q 37.3125 6.203125 41.140625 7.25 
Q 44.96875 8.296875 48.78125 10.40625 
L 48.78125 2.09375 
Q 45.015625 0.34375 40.984375 -0.53125 
Q 36.96875 -1.421875 32.421875 -1.421875 
Q 20.0625 -1.421875 12.78125 6.34375 
Q 5.515625 14.109375 5.515625 27.296875 
Q 5.515625 40.671875 12.859375 48.328125 
Q 20.21875 56 33.015625 56 
Q 37.15625 56 41.109375 55.140625 
Q 45.0625 54.296875 48.78125 52.59375 
z
" id="DejaVuSans-99"/>
       <path d="M 9.078125 75.984375 
L 18.109375 75.984375 
L 18.109375 31.109375 
L 44.921875 54.6875 
L 56.390625 54.6875 
L 27.390625 29.109375 
L 57.625 0 
L 45.90625 0 
L 18.109375 26.703125 
L 18.109375 0 
L 9.078125 0 
z
" id="DejaVuSans-107"/>
       <path d="M 44.28125 53.078125 
L 44.28125 44.578125 
Q 40.484375 46.53125 36.375 47.5 
Q 32.28125 48.484375 27.875 48.484375 
Q 21.1875 48.484375 17.84375 46.4375 
Q 14.5 44.390625 14.5 40.28125 
Q 14.5 37.15625 16.890625 35.375 
Q 19.28125 33.59375 26.515625 31.984375 
L 29.59375 31.296875 
Q 39.15625 29.25 43.1875 25.515625 
Q 47.21875 21.78125 47.21875 15.09375 
Q 47.21875 7.46875 41.1875 3.015625 
Q 35.15625 -1.421875 24.609375 -1.421875 
Q 20.21875 -1.421875 15.453125 -0.5625 
Q 10.6875 0.296875 5.421875 2 
L 5.421875 11.28125 
Q 10.40625 8.6875 15.234375 7.390625 
Q 20.0625 6.109375 24.8125 6.109375 
Q 31.15625 6.109375 34.5625 8.28125 
Q 37.984375 10.453125 37.984375 14.40625 
Q 37.984375 18.0625 35.515625 20.015625 
Q 33.0625 21.96875 24.703125 23.78125 
L 21.578125 24.515625 
Q 13.234375 26.265625 9.515625 29.90625 
Q 5.8125 33.546875 5.8125 39.890625 
Q 5.8125 47.609375 11.28125 51.796875 
Q 16.75 56 26.8125 56 
Q 31.78125 56 36.171875 55.265625 
Q 40.578125 54.546875 44.28125 53.078125 
z
" id="DejaVuSans-115"/>
       <path d="M 18.3125 70.21875 
L 18.3125 54.6875 
L 36.8125 54.6875 
L 36.8125 47.703125 
L 18.3125 47.703125 
L 18.3125 18.015625 
Q 18.3125 11.328125 20.140625 9.421875 
Q 21.96875 7.515625 27.59375 7.515625 
L 36.8125 7.515625 
L 36.8125 0 
L 27.59375 0 
Q 17.1875 0 13.234375 3.875 
Q 9.28125 7.765625 9.28125 18.015625 
L 9.28125 47.703125 
L 2.6875 47.703125 
L 2.6875 54.6875 
L 9.28125 54.6875 
L 9.28125 70.21875 
z
" id="DejaVuSans-116"/>
       <path d="M 34.28125 27.484375 
Q 23.390625 27.484375 19.1875 25 
Q 14.984375 22.515625 14.984375 16.5 
Q 14.984375 11.71875 18.140625 8.90625 
Q 21.296875 6.109375 26.703125 6.109375 
Q 34.1875 6.109375 38.703125 11.40625 
Q 43.21875 16.703125 43.21875 25.484375 
L 43.21875 27.484375 
z
M 52.203125 31.203125 
L 52.203125 0 
L 43.21875 0 
L 43.21875 8.296875 
Q 40.140625 3.328125 35.546875 0.953125 
Q 30.953125 -1.421875 24.3125 -1.421875 
Q 15.921875 -1.421875 10.953125 3.296875 
Q 6 8.015625 6 15.921875 
Q 6 25.140625 12.171875 29.828125 
Q 18.359375 34.515625 30.609375 34.515625 
L 43.21875 34.515625 
L 43.21875 35.40625 
Q 43.21875 41.609375 39.140625 45 
Q 35.0625 48.390625 27.6875 48.390625 
Q 23 48.390625 18.546875 47.265625 
Q 14.109375 46.140625 10.015625 43.890625 
L 10.015625 52.203125 
Q 14.9375 54.109375 19.578125 55.046875 
Q 24.21875 56 28.609375 56 
Q 40.484375 56 46.34375 49.84375 
Q 52.203125 43.703125 52.203125 31.203125 
z
" id="DejaVuSans-97"/>
       <path d="M 41.109375 46.296875 
Q 39.59375 47.171875 37.8125 47.578125 
Q 36.03125 48 33.890625 48 
Q 26.265625 48 22.1875 43.046875 
Q 18.109375 38.09375 18.109375 28.8125 
L 18.109375 0 
L 9.078125 0 
L 9.078125 54.6875 
L 18.109375 54.6875 
L 18.109375 46.1875 
Q 20.953125 51.171875 25.484375 53.578125 
Q 30.03125 56 36.53125 56 
Q 37.453125 56 38.578125 55.875 
Q 39.703125 55.765625 41.0625 55.515625 
z
" id="DejaVuSans-114"/>
      </defs>
      <use xlink:href="#DejaVuSans-82"/>
      <use x="64.982422" xlink:href="#DejaVuSans-111"/>
      <use x="126.164062" xlink:href="#DejaVuSans-99"/>
      <use x="181.144531" xlink:href="#DejaVuSans-107"/>
      <use x="239.054688" xlink:href="#DejaVuSans-115"/>
      <use x="291.154297" xlink:href="#DejaVuSans-116"/>
      <use x="330.363281" xlink:href="#DejaVuSans-97"/>
      <use x="391.642578" xlink:href="#DejaVuSans-114"/>
     </g>
    </g>
   </g>
   <g id="matplotlib.axis_2">
    <g id="ytick_1">
     <g id="line2d_7">
      <defs>
       <path d="M 0 0 
L -3.5 0 
" id="m0fad18fe90" style="stroke:#000000;stroke-width:0.8;"/>
      </defs>
      <g>
       <use style="stroke:#000000;stroke-width:0.8;" x="90" xlink:href="#m0fad18fe90" y="504"/>
      </g>
     </g>
     <g id="text_8">
      <!-- 0.5 -->
      <g transform="translate(67.096875 507.799219)scale(0.1 -0.1)">
       <use xlink:href="#DejaVuSans-48"/>
       <use x="63.623047" xlink:href="#DejaVuSans-46"/>
       <use x="95.410156" xlink:href="#DejaVuSans-53"/>
      </g>
     </g>
    </g>
    <g id="ytick_2">
     <g id="line2d_8">
      <g>
       <use style="stroke:#000000;stroke-width:0.8;" x="90" xlink:href="#m0fad18fe90" y="417.024"/>
      </g>
     </g>
     <g id="text_9">
      <!-- 1.0 -->
      <g transform="translate(67.096875 420.823219)scale(0.1 -0.1)">
       <use xlink:href="#DejaVuSans-49"/>
       <use x="63.623047" xlink:href="#DejaVuSans-46"/>
       <use x="95.410156" xlink:href="#DejaVuSans-48"/>
      </g>
     </g>
    </g>
    <g id="ytick_3">
     <g id="line2d_9">
      <g>
       <use style="stroke:#000000;stroke-width:0.8;" x="90" xlink:href="#m0fad18fe90" y="330.048"/>
      </g>
     </g>
     <g id="text_10">
      <!-- 1.5 -->
      <g transform="translate(67.096875 333.847219)scale(0.1 -0.1)">
       <use xlink:href="#DejaVuSans-49"/>
       <use x="63.623047" xlink:href="#DejaVuSans-46"/>
       <use x="95.410156" xlink:href="#DejaVuSans-53"/>
      </g>
     </g>
    </g>
    <g id="ytick_4">
     <g id="line2d_10">
      <g>
       <use style="stroke:#000000;stroke-width:0.8;" x="90" xlink:href="#m0fad18fe90" y="243.072"/>
      </g>
     </g>
     <g id="text_11">
      <!-- 2.0 -->
      <g transform="translate(67.096875 246.871219)scale(0.1 -0.1)">
       <use xlink:href="#DejaVuSans-50"/>
       <use x="63.623047" xlink:href="#DejaVuSans-46"/>
       <use x="95.410156" xlink:href="#DejaVuSans-48"/>
      </g>
     </g>
    </g>
    <g id="ytick_5">
     <g id="line2d_11">
      <g>
       <use style="stroke:#000000;stroke-width:0.8;" x="90" xlink:href="#m0fad18fe90" y="156.096"/>
      </g>
     </g>
     <g id="text_12">
      <!-- 2.5 -->
      <g transform="translate(67.096875 159.895219)scale(0.1 -0.1)">
       <use xlink:href="#DejaVuSans-50"/>
       <use x="63.623047" xlink:href="#DejaVuSans-46"/>
       <use x="95.410156" xlink:href="#DejaVuSans-53"/>
      </g>
     </g>
    </g>
    <g id="ytick_6">
     <g id="line2d_12">
      <g>
       <use style="stroke:#000000;stroke-width:0.8;" x="90" xlink:href="#m0fad18fe90" y="69.12"/>
      </g>
     </g>
     <g id="text_13">
      <!-- 3.0 -->
      <g transform="translate(67.096875 72.919219)scale(0.1 -0.1)">
       <use xlink:href="#DejaVuSans-51"/>
       <use x="63.623047" xlink:href="#DejaVuSans-46"/>
       <use x="95.410156" xlink:href="#DejaVuSans-48"/>
      </g>
     </g>
    </g>
    <g id="text_14">
     <!-- VELOCIraptor -->
     <g transform="translate(61.017187 320.015469)rotate(-90)scale(0.1 -0.1)">
      <defs>
       <path d="M 28.609375 0 
L 0.78125 72.90625 
L 11.078125 72.90625 
L 34.1875 11.53125 
L 57.328125 72.90625 
L 67.578125 72.90625 
L 39.796875 0 
z
" id="DejaVuSans-86"/>
       <path d="M 9.8125 72.90625 
L 55.90625 72.90625 
L 55.90625 64.59375 
L 19.671875 64.59375 
L 19.671875 43.015625 
L 54.390625 43.015625 
L 54.390625 34.71875 
L 19.671875 34.71875 
L 19.671875 8.296875 
L 56.78125 8.296875 
L 56.78125 0 
L 9.8125 0 
z
" id="DejaVuSans-69"/>
       <path d="M 9.8125 72.90625 
L 19.671875 72.90625 
L 19.671875 8.296875 
L 55.171875 8.296875 
L 55.171875 0 
L 9.8125 0 
z
" id="DejaVuSans-76"/>
       <path d="M 39.40625 66.21875 
Q 28.65625 66.21875 22.328125 58.203125 
Q 16.015625 50.203125 16.015625 36.375 
Q 16.015625 22.609375 22.328125 14.59375 
Q 28.65625 6.59375 39.40625 6.59375 
Q 50.140625 6.59375 56.421875 14.59375 
Q 62.703125 22.609375 62.703125 36.375 
Q 62.703125 50.203125 56.421875 58.203125 
Q 50.140625 66.21875 39.40625 66.21875 
z
M 39.40625 74.21875 
Q 54.734375 74.21875 63.90625 63.9375 
Q 73.09375 53.65625 73.09375 36.375 
Q 73.09375 19.140625 63.90625 8.859375 
Q 54.734375 -1.421875 39.40625 -1.421875 
Q 24.03125 -1.421875 14.8125 8.828125 
Q 5.609375 19.09375 5.609375 36.375 
Q 5.609375 53.65625 14.8125 63.9375 
Q 24.03125 74.21875 39.40625 74.21875 
z
" id="DejaVuSans-79"/>
       <path d="M 64.40625 67.28125 
L 64.40625 56.890625 
Q 59.421875 61.53125 53.78125 63.8125 
Q 48.140625 66.109375 41.796875 66.109375 
Q 29.296875 66.109375 22.65625 58.46875 
Q 16.015625 50.828125 16.015625 36.375 
Q 16.015625 21.96875 22.65625 14.328125 
Q 29.296875 6.6875 41.796875 6.6875 
Q 48.140625 6.6875 53.78125 8.984375 
Q 59.421875 11.28125 64.40625 15.921875 
L 64.40625 5.609375 
Q 59.234375 2.09375 53.4375 0.328125 
Q 47.65625 -1.421875 41.21875 -1.421875 
Q 24.65625 -1.421875 15.125 8.703125 
Q 5.609375 18.84375 5.609375 36.375 
Q 5.609375 53.953125 15.125 64.078125 
Q 24.65625 74.21875 41.21875 74.21875 
Q 47.75 74.21875 53.53125 72.484375 
Q 59.328125 70.75 64.40625 67.28125 
z
" id="DejaVuSans-67"/>
       <path d="M 9.8125 72.90625 
L 19.671875 72.90625 
L 19.671875 0 
L 9.8125 0 
z
" id="DejaVuSans-73"/>
       <path d="M 18.109375 8.203125 
L 18.109375 -20.796875 
L 9.078125 -20.796875 
L 9.078125 54.6875 
L 18.109375 54.6875 
L 18.109375 46.390625 
Q 20.953125 51.265625 25.265625 53.625 
Q 29.59375 56 35.59375 56 
Q 45.5625 56 51.78125 48.09375 
Q 58.015625 40.1875 58.015625 27.296875 
Q 58.015625 14.40625 51.78125 6.484375 
Q 45.5625 -1.421875 35.59375 -1.421875 
Q 29.59375 -1.421875 25.265625 0.953125 
Q 20.953125 3.328125 18.109375 8.203125 
z
M 48.6875 27.296875 
Q 48.6875 37.203125 44.609375 42.84375 
Q 40.53125 48.484375 33.40625 48.484375 
Q 26.265625 48.484375 22.1875 42.84375 
Q 18.109375 37.203125 18.109375 27.296875 
Q 18.109375 17.390625 22.1875 11.75 
Q 26.265625 6.109375 33.40625 6.109375 
Q 40.53125 6.109375 44.609375 11.75 
Q 48.6875 17.390625 48.6875 27.296875 
z
" id="DejaVuSans-112"/>
      </defs>
      <use xlink:href="#DejaVuSans-86"/>
      <use x="68.408203" xlink:href="#DejaVuSans-69"/>
      <use x="131.591797" xlink:href="#DejaVuSans-76"/>
      <use x="183.679688" xlink:href="#DejaVuSans-79"/>
      <use x="262.390625" xlink:href="#DejaVuSans-67"/>
      <use x="332.214844" xlink:href="#DejaVuSans-73"/>
      <use x="361.707031" xlink:href="#DejaVuSans-114"/>
      <use x="402.820312" xlink:href="#DejaVuSans-97"/>
      <use x="464.099609" xlink:href="#DejaVuSans-112"/>
      <use x="527.576172" xlink:href="#DejaVuSans-116"/>
      <use x="566.785156" xlink:href="#DejaVuSans-111"/>
      <use x="627.966797" xlink:href="#DejaVuSans-114"/>
     </g>
    </g>
   </g>
   <g id="line2d_13">
    <path clip-path="url(#pa9300669b3)" d="M 95.604155 421.059001 
L 106.91009 418.39574 
M 130.805948 466.417246 
L 144.681995 469.412423 
L 154.566342 452.810505 
L 166.321124 445.128881 
L 177.180663 436.623446 
L 188.206983 427.853036 
L 199.2592 419.044963 
L 210.357721 410.342845 
L 221.527474 401.719667 
L 232.689998 392.885728 
L 243.863793 384.194307 
L 255.069819 375.35146 
L 266.300534 366.502809 
L 277.559098 357.643525 
L 288.792639 348.836027 
L 300.122477 340.014596 
L 311.393257 331.333222 
L 322.708594 322.467908 
L 334.06461 313.111983 
L 345.270677 304.713558 
L 356.627027 296.02063 
L 367.851232 288.772132 
L 379.64073 280.672564 
L 390.553014 272.085698 
L 402.156843 267.331079 
L 413.092437 273.569571 
L 425.526042 267.771671 
L 436.479206 275.772781 
L 448.96128 280.408158 
L 460.039772 278.595556 
L 472.044194 275.408665 
L 483.57005 284.741375 
L 494.155597 269.507259 
L 506.129842 272.557956 
L 516.207347 273.047366 
L 528.010613 276.62239 
L 539.522971 280.640205 
L 551.407198 279.858015 
L 562.695481 278.969973 
L 573.841886 279.016162 
L 585.010554 265.802108 
L 596.877122 278.539943 
L 607.930466 275.490617 
L 619.269617 268.524636 
L 631.550014 263.654488 
L 642.986018 263.379566 
" style="fill:none;stroke:#a52a2a;stroke-linecap:square;stroke-width:1.5;"/>
    <defs>
     <path d="M 0 1.5 
C 0.397805 1.5 0.77937 1.341951 1.06066 1.06066 
C 1.341951 0.77937 1.5 0.397805 1.5 0 
C 1.5 -0.397805 1.341951 -0.77937 1.06066 -1.06066 
C 0.77937 -1.341951 0.397805 -1.5 0 -1.5 
C -0.397805 -1.5 -0.77937 -1.341951 -1.06066 -1.06066 
C -1.341951 -0.77937 -1.5 -0.397805 -1.5 0 
C -1.5 0.397805 -1.341951 0.77937 -1.06066 1.06066 
C -0.77937 1.341951 -0.397805 1.5 0 1.5 
z
" id="m53efd559e4" style="stroke:#a52a2a;"/>
    </defs>
    <g clip-path="url(#pa9300669b3)">
     <use style="fill:#a52a2a;stroke:#a52a2a;" x="95.604155" xlink:href="#m53efd559e4" y="421.059001"/>
     <use style="fill:#a52a2a;stroke:#a52a2a;" x="106.91009" xlink:href="#m53efd559e4" y="418.39574"/>
     <use style="fill:#a52a2a;stroke:#a52a2a;" x="130.805948" xlink:href="#m53efd559e4" y="466.417246"/>
     <use style="fill:#a52a2a;stroke:#a52a2a;" x="144.681995" xlink:href="#m53efd559e4" y="469.412423"/>
     <use style="fill:#a52a2a;stroke:#a52a2a;" x="154.566342" xlink:href="#m53efd559e4" y="452.810505"/>
     <use style="fill:#a52a2a;stroke:#a52a2a;" x="166.321124" xlink:href="#m53efd559e4" y="445.128881"/>
     <use style="fill:#a52a2a;stroke:#a52a2a;" x="177.180663" xlink:href="#m53efd559e4" y="436.623446"/>
     <use style="fill:#a52a2a;stroke:#a52a2a;" x="188.206983" xlink:href="#m53efd559e4" y="427.853036"/>
     <use style="fill:#a52a2a;stroke:#a52a2a;" x="199.2592" xlink:href="#m53efd559e4" y="419.044963"/>
     <use style="fill:#a52a2a;stroke:#a52a2a;" x="210.357721" xlink:href="#m53efd559e4" y="410.342845"/>
     <use style="fill:#a52a2a;stroke:#a52a2a;" x="221.527474" xlink:href="#m53efd559e4" y="401.719667"/>
     <use style="fill:#a52a2a;stroke:#a52a2a;" x="232.689998" xlink:href="#m53efd559e4" y="392.885728"/>
     <use style="fill:#a52a2a;stroke:#a52a2a;" x="243.863793" xlink:href="#m53efd559e4" y="384.194307"/>
     <use style="fill:#a52a2a;stroke:#a52a2a;" x="255.069819" xlink:href="#m53efd559e4" y="375.35146"/>
     <use style="fill:#a52a2a;stroke:#a52a2a;" x="266.300534" xlink:href="#m53efd559e4" y="366.502809"/>
     <use style="fill:#a52a2a;stroke:#a52a2a;" x="277.559098" xlink:href="#m53efd559e4" y="357.643525"/>
     <use style="fill:#a52a2a;stroke:#a52a2a;" x="288.792639" xlink:href="#m53efd559e4" y="348.836027"/>
     <use style="fill:#a52a2a;stroke:#a52a2a;" x="300.122477" xlink:href="#m53efd559e4" y="340.014596"/>
     <use style="fill:#a52a2a;stroke:#a52a2a;" x="311.393257" xlink:href="#m53efd559e4" y="331.333222"/>
     <use style="fill:#a52a2a;stroke:#a52a2a;" x="322.708594" xlink:href="#m53efd559e4" y="322.467908"/>
     <use style="fill:#a52a2a;stroke:#a52a2a;" x="334.06461" xlink:href="#m53efd559e4" y="313.111983"/>
     <use style="fill:#a52a2a;stroke:#a52a2a;" x="345.270677" xlink:href="#m53efd559e4" y="304.713558"/>
     <use style="fill:#a52a2a;stroke:#a52a2a;" x="356.627027" xlink:href="#m53efd559e4" y="296.02063"/>
     <use style="fill:#a52a2a;stroke:#a52a2a;" x="367.851232" xlink:href="#m53efd559e4" y="288.772132"/>
     <use style="fill:#a52a2a;stroke:#a52a2a;" x="379.64073" xlink:href="#m53efd559e4" y="280.672564"/>
     <use style="fill:#a52a2a;stroke:#a52a2a;" x="390.553014" xlink:href="#m53efd559e4" y="272.085698"/>
     <use style="fill:#a52a2a;stroke:#a52a2a;" x="402.156843" xlink:href="#m53efd559e4" y="267.331079"/>
     <use style="fill:#a52a2a;stroke:#a52a2a;" x="413.092437" xlink:href="#m53efd559e4" y="273.569571"/>
     <use style="fill:#a52a2a;stroke:#a52a2a;" x="425.526042" xlink:href="#m53efd559e4" y="267.771671"/>
     <use style="fill:#a52a2a;stroke:#a52a2a;" x="436.479206" xlink:href="#m53efd559e4" y="275.772781"/>
     <use style="fill:#a52a2a;stroke:#a52a2a;" x="448.96128" xlink:href="#m53efd559e4" y="280.408158"/>
     <use style="fill:#a52a2a;stroke:#a52a2a;" x="460.039772" xlink:href="#m53efd559e4" y="278.595556"/>
     <use style="fill:#a52a2a;stroke:#a52a2a;" x="472.044194" xlink:href="#m53efd559e4" y="275.408665"/>
     <use style="fill:#a52a2a;stroke:#a52a2a;" x="483.57005" xlink:href="#m53efd559e4" y="284.741375"/>
     <use style="fill:#a52a2a;stroke:#a52a2a;" x="494.155597" xlink:href="#m53efd559e4" y="269.507259"/>
     <use style="fill:#a52a2a;stroke:#a52a2a;" x="506.129842" xlink:href="#m53efd559e4" y="272.557956"/>
     <use style="fill:#a52a2a;stroke:#a52a2a;" x="516.207347" xlink:href="#m53efd559e4" y="273.047366"/>
     <use style="fill:#a52a2a;stroke:#a52a2a;" x="528.010613" xlink:href="#m53efd559e4" y="276.62239"/>
     <use style="fill:#a52a2a;stroke:#a52a2a;" x="539.522971" xlink:href="#m53efd559e4" y="280.640205"/>
     <use style="fill:#a52a2a;stroke:#a52a2a;" x="551.407198" xlink:href="#m53efd559e4" y="279.858015"/>
     <use style="fill:#a52a2a;stroke:#a52a2a;" x="562.695481" xlink:href="#m53efd559e4" y="278.969973"/>
     <use style="fill:#a52a2a;stroke:#a52a2a;" x="573.841886" xlink:href="#m53efd559e4" y="279.016162"/>
     <use style="fill:#a52a2a;stroke:#a52a2a;" x="585.010554" xlink:href="#m53efd559e4" y="265.802108"/>
     <use style="fill:#a52a2a;stroke:#a52a2a;" x="596.877122" xlink:href="#m53efd559e4" y="278.539943"/>
     <use style="fill:#a52a2a;stroke:#a52a2a;" x="607.930466" xlink:href="#m53efd559e4" y="275.490617"/>
     <use style="fill:#a52a2a;stroke:#a52a2a;" x="619.269617" xlink:href="#m53efd559e4" y="268.524636"/>
     <use style="fill:#a52a2a;stroke:#a52a2a;" x="631.550014" xlink:href="#m53efd559e4" y="263.654488"/>
     <use style="fill:#a52a2a;stroke:#a52a2a;" x="642.986018" xlink:href="#m53efd559e4" y="263.379566"/>
    </g>
   </g>
   <g id="line2d_14">
    <path clip-path="url(#pa9300669b3)" d="M 90 504 
L 152 455.68 
L 214 407.36 
L 276 359.04 
L 338 310.72 
L 400 262.4 
L 462 214.08 
L 524 165.76 
L 586 117.44 
L 648 69.12 
" style="fill:none;stroke:#000000;stroke-linecap:square;"/>
   </g>
   <g id="line2d_15">
    <path clip-path="url(#pa9300669b3)" d="M 90 538.7904 
L 152 490.4704 
L 214 442.1504 
L 276 393.8304 
L 338 345.5104 
L 400 297.1904 
L 462 248.8704 
L 524 200.5504 
L 586 152.2304 
L 648 103.9104 
" style="fill:none;stroke:#000000;stroke-dasharray:0.5,0.825;stroke-dashoffset:0;stroke-width:0.5;"/>
   </g>
   <g id="line2d_16">
    <path clip-path="url(#pa9300669b3)" d="M 90 469.2096 
L 152 420.8896 
L 214 372.5696 
L 276 324.2496 
L 338 275.9296 
L 400 227.6096 
L 462 179.2896 
L 524 130.9696 
L 586 82.6496 
L 648 34.3296 
" style="fill:none;stroke:#000000;stroke-dasharray:0.5,0.825;stroke-dashoffset:0;stroke-width:0.5;"/>
   </g>
   <g id="line2d_17">
    <path clip-path="url(#pa9300669b3)" d="M 90 417.024 
L 648 417.024 
" style="fill:none;stroke:#1f77b4;stroke-linecap:square;stroke-width:1.5;"/>
   </g>
   <g id="line2d_18">
    <path clip-path="url(#pa9300669b3)" d="M 90 399.6288 
L 648 399.6288 
" style="fill:none;stroke:#1f77b4;stroke-linecap:square;stroke-width:1.5;"/>
   </g>
   <g id="line2d_19">
    <path clip-path="url(#pa9300669b3)" d="M 201.350636 498.470492 
L 195.009637 489.405351 
L 200.641144 480.291043 
L 204.021497 471.887767 
L 205.981718 463.115885 
L 210.199472 454.4123 
L 214.55128 445.608224 
L 219.027222 436.894203 
L 224.042847 428.097036 
L 228.532235 419.339556 
L 233.671865 410.572033 
L 238.773066 401.758234 
L 243.967433 392.91724 
L 249.31414 384.145712 
L 254.717891 375.334078 
L 260.392483 366.514452 
L 265.888781 357.705541 
L 271.714844 348.890943 
L 277.140124 340.073594 
L 283.279776 331.195429 
L 289.21027 322.390245 
L 295.274723 313.553784 
L 301.405295 304.655379 
L 306.841354 295.849613 
L 313.488142 286.993334 
L 319.807394 278.144495 
L 325.87303 269.204757 
L 333.572092 260.573306 
L 339.40882 251.58141 
L 347.545565 242.668604 
L 355.961239 233.772622 
L 365.632673 224.814551 
L 377.30314 215.672195 
L 381.203488 206.697877 
L 416.224083 198.308317 
L 475.224459 188.919071 
L 496.975588 181.329217 
L 496.464663 171.354192 
L 548.772019 162.593099 
L 550.609561 152.788991 
L 603.681311 142.455736 
L 532.787209 135.989776 
L 568.710706 127.753464 
L 594.274606 118.628645 
L 456.662496 107.964238 
L 584.019434 101.208646 
L 552.759694 91.596862 
L 517.280226 82.454478 
L 564.290744 72.494118 
" style="fill:none;stroke:#800080;stroke-linecap:square;stroke-width:1.5;"/>
    <defs>
     <path d="M 0 1.5 
C 0.397805 1.5 0.77937 1.341951 1.06066 1.06066 
C 1.341951 0.77937 1.5 0.397805 1.5 0 
C 1.5 -0.397805 1.341951 -0.77937 1.06066 -1.06066 
C 0.77937 -1.341951 0.397805 -1.5 0 -1.5 
C -0.397805 -1.5 -0.77937 -1.341951 -1.06066 -1.06066 
C -1.341951 -0.77937 -1.5 -0.397805 -1.5 0 
C -1.5 0.397805 -1.341951 0.77937 -1.06066 1.06066 
C -0.77937 1.341951 -0.397805 1.5 0 1.5 
z
" id="m8582f98dc2" style="stroke:#800080;"/>
    </defs>
    <g clip-path="url(#pa9300669b3)">
     <use style="fill:#800080;stroke:#800080;" x="201.350636" xlink:href="#m8582f98dc2" y="498.470492"/>
     <use style="fill:#800080;stroke:#800080;" x="195.009637" xlink:href="#m8582f98dc2" y="489.405351"/>
     <use style="fill:#800080;stroke:#800080;" x="200.641144" xlink:href="#m8582f98dc2" y="480.291043"/>
     <use style="fill:#800080;stroke:#800080;" x="204.021497" xlink:href="#m8582f98dc2" y="471.887767"/>
     <use style="fill:#800080;stroke:#800080;" x="205.981718" xlink:href="#m8582f98dc2" y="463.115885"/>
     <use style="fill:#800080;stroke:#800080;" x="210.199472" xlink:href="#m8582f98dc2" y="454.4123"/>
     <use style="fill:#800080;stroke:#800080;" x="214.55128" xlink:href="#m8582f98dc2" y="445.608224"/>
     <use style="fill:#800080;stroke:#800080;" x="219.027222" xlink:href="#m8582f98dc2" y="436.894203"/>
     <use style="fill:#800080;stroke:#800080;" x="224.042847" xlink:href="#m8582f98dc2" y="428.097036"/>
     <use style="fill:#800080;stroke:#800080;" x="228.532235" xlink:href="#m8582f98dc2" y="419.339556"/>
     <use style="fill:#800080;stroke:#800080;" x="233.671865" xlink:href="#m8582f98dc2" y="410.572033"/>
     <use style="fill:#800080;stroke:#800080;" x="238.773066" xlink:href="#m8582f98dc2" y="401.758234"/>
     <use style="fill:#800080;stroke:#800080;" x="243.967433" xlink:href="#m8582f98dc2" y="392.91724"/>
     <use style="fill:#800080;stroke:#800080;" x="249.31414" xlink:href="#m8582f98dc2" y="384.145712"/>
     <use style="fill:#800080;stroke:#800080;" x="254.717891" xlink:href="#m8582f98dc2" y="375.334078"/>
     <use style="fill:#800080;stroke:#800080;" x="260.392483" xlink:href="#m8582f98dc2" y="366.514452"/>
     <use style="fill:#800080;stroke:#800080;" x="265.888781" xlink:href="#m8582f98dc2" y="357.705541"/>
     <use style="fill:#800080;stroke:#800080;" x="271.714844" xlink:href="#m8582f98dc2" y="348.890943"/>
     <use style="fill:#800080;stroke:#800080;" x="277.140124" xlink:href="#m8582f98dc2" y="340.073594"/>
     <use style="fill:#800080;stroke:#800080;" x="283.279776" xlink:href="#m8582f98dc2" y="331.195429"/>
     <use style="fill:#800080;stroke:#800080;" x="289.21027" xlink:href="#m8582f98dc2" y="322.390245"/>
     <use style="fill:#800080;stroke:#800080;" x="295.274723" xlink:href="#m8582f98dc2" y="313.553784"/>
     <use style="fill:#800080;stroke:#800080;" x="301.405295" xlink:href="#m8582f98dc2" y="304.655379"/>
     <use style="fill:#800080;stroke:#800080;" x="306.841354" xlink:href="#m8582f98dc2" y="295.849613"/>
     <use style="fill:#800080;stroke:#800080;" x="313.488142" xlink:href="#m8582f98dc2" y="286.993334"/>
     <use style="fill:#800080;stroke:#800080;" x="319.807394" xlink:href="#m8582f98dc2" y="278.144495"/>
     <use style="fill:#800080;stroke:#800080;" x="325.87303" xlink:href="#m8582f98dc2" y="269.204757"/>
     <use style="fill:#800080;stroke:#800080;" x="333.572092" xlink:href="#m8582f98dc2" y="260.573306"/>
     <use style="fill:#800080;stroke:#800080;" x="339.40882" xlink:href="#m8582f98dc2" y="251.58141"/>
     <use style="fill:#800080;stroke:#800080;" x="347.545565" xlink:href="#m8582f98dc2" y="242.668604"/>
     <use style="fill:#800080;stroke:#800080;" x="355.961239" xlink:href="#m8582f98dc2" y="233.772622"/>
     <use style="fill:#800080;stroke:#800080;" x="365.632673" xlink:href="#m8582f98dc2" y="224.814551"/>
     <use style="fill:#800080;stroke:#800080;" x="377.30314" xlink:href="#m8582f98dc2" y="215.672195"/>
     <use style="fill:#800080;stroke:#800080;" x="381.203488" xlink:href="#m8582f98dc2" y="206.697877"/>
     <use style="fill:#800080;stroke:#800080;" x="416.224083" xlink:href="#m8582f98dc2" y="198.308317"/>
     <use style="fill:#800080;stroke:#800080;" x="475.224459" xlink:href="#m8582f98dc2" y="188.919071"/>
     <use style="fill:#800080;stroke:#800080;" x="496.975588" xlink:href="#m8582f98dc2" y="181.329217"/>
     <use style="fill:#800080;stroke:#800080;" x="496.464663" xlink:href="#m8582f98dc2" y="171.354192"/>
     <use style="fill:#800080;stroke:#800080;" x="548.772019" xlink:href="#m8582f98dc2" y="162.593099"/>
     <use style="fill:#800080;stroke:#800080;" x="550.609561" xlink:href="#m8582f98dc2" y="152.788991"/>
     <use style="fill:#800080;stroke:#800080;" x="603.681311" xlink:href="#m8582f98dc2" y="142.455736"/>
     <use style="fill:#800080;stroke:#800080;" x="532.787209" xlink:href="#m8582f98dc2" y="135.989776"/>
     <use style="fill:#800080;stroke:#800080;" x="568.710706" xlink:href="#m8582f98dc2" y="127.753464"/>
     <use style="fill:#800080;stroke:#800080;" x="594.274606" xlink:href="#m8582f98dc2" y="118.628645"/>
     <use style="fill:#800080;stroke:#800080;" x="456.662496" xlink:href="#m8582f98dc2" y="107.964238"/>
     <use style="fill:#800080;stroke:#800080;" x="584.019434" xlink:href="#m8582f98dc2" y="101.208646"/>
     <use style="fill:#800080;stroke:#800080;" x="552.759694" xlink:href="#m8582f98dc2" y="91.596862"/>
     <use style="fill:#800080;stroke:#800080;" x="517.280226" xlink:href="#m8582f98dc2" y="82.454478"/>
     <use style="fill:#800080;stroke:#800080;" x="564.290744" xlink:href="#m8582f98dc2" y="72.494118"/>
    </g>
   </g>
   <g id="patch_3">
    <path d="M 90 504 
L 90 69.12 
" style="fill:none;stroke:#000000;stroke-linecap:square;stroke-linejoin:miter;stroke-width:0.8;"/>
   </g>
   <g id="patch_4">
    <path d="M 648 504 
L 648 69.12 
" style="fill:none;stroke:#000000;stroke-linecap:square;stroke-linejoin:miter;stroke-width:0.8;"/>
   </g>
   <g id="patch_5">
    <path d="M 90 504 
L 648 504 
" style="fill:none;stroke:#000000;stroke-linecap:square;stroke-linejoin:miter;stroke-width:0.8;"/>
   </g>
   <g id="patch_6">
    <path d="M 90 69.12 
L 648 69.12 
" style="fill:none;stroke:#000000;stroke-linecap:square;stroke-linejoin:miter;stroke-width:0.8;"/>
   </g>
  </g>
  <g id="axes_2">
   <g id="matplotlib.axis_3">
    <g id="ytick_7">
     <g id="line2d_20">
      <defs>
       <path d="M 0 0 
L 3.5 0 
" id="mff2e91b1bf" style="stroke:#000000;stroke-width:0.8;"/>
      </defs>
      <g>
       <use style="stroke:#000000;stroke-width:0.8;" x="648" xlink:href="#mff2e91b1bf" y="484.238547"/>
      </g>
     </g>
     <g id="text_15">
      <!-- 0 -->
      <g transform="translate(655 488.037765)scale(0.1 -0.1)">
       <use xlink:href="#DejaVuSans-48"/>
      </g>
     </g>
    </g>
    <g id="ytick_8">
     <g id="line2d_21">
      <g>
       <use style="stroke:#000000;stroke-width:0.8;" x="648" xlink:href="#mff2e91b1bf" y="426.043882"/>
      </g>
     </g>
     <g id="text_16">
      <!-- 20000 -->
      <g transform="translate(655 429.843101)scale(0.1 -0.1)">
       <use xlink:href="#DejaVuSans-50"/>
       <use x="63.623047" xlink:href="#DejaVuSans-48"/>
       <use x="127.246094" xlink:href="#DejaVuSans-48"/>
       <use x="190.869141" xlink:href="#DejaVuSans-48"/>
       <use x="254.492188" xlink:href="#DejaVuSans-48"/>
      </g>
     </g>
    </g>
    <g id="ytick_9">
     <g id="line2d_22">
      <g>
       <use style="stroke:#000000;stroke-width:0.8;" x="648" xlink:href="#mff2e91b1bf" y="367.849217"/>
      </g>
     </g>
     <g id="text_17">
      <!-- 40000 -->
      <g transform="translate(655 371.648436)scale(0.1 -0.1)">
       <defs>
        <path d="M 37.796875 64.3125 
L 12.890625 25.390625 
L 37.796875 25.390625 
z
M 35.203125 72.90625 
L 47.609375 72.90625 
L 47.609375 25.390625 
L 58.015625 25.390625 
L 58.015625 17.1875 
L 47.609375 17.1875 
L 47.609375 0 
L 37.796875 0 
L 37.796875 17.1875 
L 4.890625 17.1875 
L 4.890625 26.703125 
z
" id="DejaVuSans-52"/>
       </defs>
       <use xlink:href="#DejaVuSans-52"/>
       <use x="63.623047" xlink:href="#DejaVuSans-48"/>
       <use x="127.246094" xlink:href="#DejaVuSans-48"/>
       <use x="190.869141" xlink:href="#DejaVuSans-48"/>
       <use x="254.492188" xlink:href="#DejaVuSans-48"/>
      </g>
     </g>
    </g>
    <g id="ytick_10">
     <g id="line2d_23">
      <g>
       <use style="stroke:#000000;stroke-width:0.8;" x="648" xlink:href="#mff2e91b1bf" y="309.654553"/>
      </g>
     </g>
     <g id="text_18">
      <!-- 60000 -->
      <g transform="translate(655 313.453771)scale(0.1 -0.1)">
       <defs>
        <path d="M 33.015625 40.375 
Q 26.375 40.375 22.484375 35.828125 
Q 18.609375 31.296875 18.609375 23.390625 
Q 18.609375 15.53125 22.484375 10.953125 
Q 26.375 6.390625 33.015625 6.390625 
Q 39.65625 6.390625 43.53125 10.953125 
Q 47.40625 15.53125 47.40625 23.390625 
Q 47.40625 31.296875 43.53125 35.828125 
Q 39.65625 40.375 33.015625 40.375 
z
M 52.59375 71.296875 
L 52.59375 62.3125 
Q 48.875 64.0625 45.09375 64.984375 
Q 41.3125 65.921875 37.59375 65.921875 
Q 27.828125 65.921875 22.671875 59.328125 
Q 17.53125 52.734375 16.796875 39.40625 
Q 19.671875 43.65625 24.015625 45.921875 
Q 28.375 48.1875 33.59375 48.1875 
Q 44.578125 48.1875 50.953125 41.515625 
Q 57.328125 34.859375 57.328125 23.390625 
Q 57.328125 12.15625 50.6875 5.359375 
Q 44.046875 -1.421875 33.015625 -1.421875 
Q 20.359375 -1.421875 13.671875 8.265625 
Q 6.984375 17.96875 6.984375 36.375 
Q 6.984375 53.65625 15.1875 63.9375 
Q 23.390625 74.21875 37.203125 74.21875 
Q 40.921875 74.21875 44.703125 73.484375 
Q 48.484375 72.75 52.59375 71.296875 
z
" id="DejaVuSans-54"/>
       </defs>
       <use xlink:href="#DejaVuSans-54"/>
       <use x="63.623047" xlink:href="#DejaVuSans-48"/>
       <use x="127.246094" xlink:href="#DejaVuSans-48"/>
       <use x="190.869141" xlink:href="#DejaVuSans-48"/>
       <use x="254.492188" xlink:href="#DejaVuSans-48"/>
      </g>
     </g>
    </g>
    <g id="ytick_11">
     <g id="line2d_24">
      <g>
       <use style="stroke:#000000;stroke-width:0.8;" x="648" xlink:href="#mff2e91b1bf" y="251.459888"/>
      </g>
     </g>
     <g id="text_19">
      <!-- 80000 -->
      <g transform="translate(655 255.259107)scale(0.1 -0.1)">
       <defs>
        <path d="M 31.78125 34.625 
Q 24.75 34.625 20.71875 30.859375 
Q 16.703125 27.09375 16.703125 20.515625 
Q 16.703125 13.921875 20.71875 10.15625 
Q 24.75 6.390625 31.78125 6.390625 
Q 38.8125 6.390625 42.859375 10.171875 
Q 46.921875 13.96875 46.921875 20.515625 
Q 46.921875 27.09375 42.890625 30.859375 
Q 38.875 34.625 31.78125 34.625 
z
M 21.921875 38.8125 
Q 15.578125 40.375 12.03125 44.71875 
Q 8.5 49.078125 8.5 55.328125 
Q 8.5 64.0625 14.71875 69.140625 
Q 20.953125 74.21875 31.78125 74.21875 
Q 42.671875 74.21875 48.875 69.140625 
Q 55.078125 64.0625 55.078125 55.328125 
Q 55.078125 49.078125 51.53125 44.71875 
Q 48 40.375 41.703125 38.8125 
Q 48.828125 37.15625 52.796875 32.3125 
Q 56.78125 27.484375 56.78125 20.515625 
Q 56.78125 9.90625 50.3125 4.234375 
Q 43.84375 -1.421875 31.78125 -1.421875 
Q 19.734375 -1.421875 13.25 4.234375 
Q 6.78125 9.90625 6.78125 20.515625 
Q 6.78125 27.484375 10.78125 32.3125 
Q 14.796875 37.15625 21.921875 38.8125 
z
M 18.3125 54.390625 
Q 18.3125 48.734375 21.84375 45.5625 
Q 25.390625 42.390625 31.78125 42.390625 
Q 38.140625 42.390625 41.71875 45.5625 
Q 45.3125 48.734375 45.3125 54.390625 
Q 45.3125 60.0625 41.71875 63.234375 
Q 38.140625 66.40625 31.78125 66.40625 
Q 25.390625 66.40625 21.84375 63.234375 
Q 18.3125 60.0625 18.3125 54.390625 
z
" id="DejaVuSans-56"/>
       </defs>
       <use xlink:href="#DejaVuSans-56"/>
       <use x="63.623047" xlink:href="#DejaVuSans-48"/>
       <use x="127.246094" xlink:href="#DejaVuSans-48"/>
       <use x="190.869141" xlink:href="#DejaVuSans-48"/>
       <use x="254.492188" xlink:href="#DejaVuSans-48"/>
      </g>
     </g>
    </g>
    <g id="ytick_12">
     <g id="line2d_25">
      <g>
       <use style="stroke:#000000;stroke-width:0.8;" x="648" xlink:href="#mff2e91b1bf" y="193.265223"/>
      </g>
     </g>
     <g id="text_20">
      <!-- 100000 -->
      <g transform="translate(655 197.064442)scale(0.1 -0.1)">
       <use xlink:href="#DejaVuSans-49"/>
       <use x="63.623047" xlink:href="#DejaVuSans-48"/>
       <use x="127.246094" xlink:href="#DejaVuSans-48"/>
       <use x="190.869141" xlink:href="#DejaVuSans-48"/>
       <use x="254.492188" xlink:href="#DejaVuSans-48"/>
       <use x="318.115234" xlink:href="#DejaVuSans-48"/>
      </g>
     </g>
    </g>
    <g id="ytick_13">
     <g id="line2d_26">
      <g>
       <use style="stroke:#000000;stroke-width:0.8;" x="648" xlink:href="#mff2e91b1bf" y="135.070559"/>
      </g>
     </g>
     <g id="text_21">
      <!-- 120000 -->
      <g transform="translate(655 138.869777)scale(0.1 -0.1)">
       <use xlink:href="#DejaVuSans-49"/>
       <use x="63.623047" xlink:href="#DejaVuSans-50"/>
       <use x="127.246094" xlink:href="#DejaVuSans-48"/>
       <use x="190.869141" xlink:href="#DejaVuSans-48"/>
       <use x="254.492188" xlink:href="#DejaVuSans-48"/>
       <use x="318.115234" xlink:href="#DejaVuSans-48"/>
      </g>
     </g>
    </g>
    <g id="ytick_14">
     <g id="line2d_27">
      <g>
       <use style="stroke:#000000;stroke-width:0.8;" x="648" xlink:href="#mff2e91b1bf" y="76.875894"/>
      </g>
     </g>
     <g id="text_22">
      <!-- 140000 -->
      <g transform="translate(655 80.675113)scale(0.1 -0.1)">
       <use xlink:href="#DejaVuSans-49"/>
       <use x="63.623047" xlink:href="#DejaVuSans-52"/>
       <use x="127.246094" xlink:href="#DejaVuSans-48"/>
       <use x="190.869141" xlink:href="#DejaVuSans-48"/>
       <use x="254.492188" xlink:href="#DejaVuSans-48"/>
       <use x="318.115234" xlink:href="#DejaVuSans-48"/>
      </g>
     </g>
    </g>
   </g>
   <g id="line2d_28">
    <path clip-path="url(#pa9300669b3)" d="M 95.604155 484.078511 
L 106.91009 484.046504 
M 130.805948 484.232727 
L 144.681995 484.19781 
L 154.566342 483.895198 
L 166.321124 482.035879 
L 177.180663 474.578232 
L 188.206983 453.890029 
L 199.2592 410.424434 
L 210.357721 337.270831 
L 221.527474 247.138934 
L 232.689998 160.260119 
L 243.863793 102.01017 
L 255.069819 88.887273 
L 266.300534 117.370651 
L 277.559098 180.171424 
L 288.792639 254.064099 
L 300.122477 322.169315 
L 311.393257 378.539577 
L 322.708594 419.258384 
L 334.06461 447.162726 
L 345.270677 463.91115 
L 356.627027 473.245575 
L 367.851232 478.654769 
L 379.64073 481.384098 
L 390.553014 482.617825 
L 402.156843 483.368537 
L 413.092437 483.66242 
L 425.526042 483.752621 
L 436.479206 483.749712 
L 448.96128 483.825365 
L 460.039772 483.857372 
L 472.044194 483.819545 
L 483.57005 483.869011 
L 494.155597 483.857372 
L 506.129842 483.775899 
L 516.207347 483.796267 
L 528.010613 483.822455 
L 539.522971 483.755531 
L 551.407198 483.790448 
L 562.695481 483.866101 
L 573.841886 483.860281 
L 585.010554 483.857372 
L 596.877122 483.816635 
L 607.930466 483.796267 
L 619.269617 483.804996 
L 631.550014 483.784628 
L 642.986018 483.831184 
" style="fill:none;stroke:#1f77b4;stroke-linecap:square;"/>
    <defs>
     <path d="M 0 1 
C 0.265203 1 0.51958 0.894634 0.707107 0.707107 
C 0.894634 0.51958 1 0.265203 1 0 
C 1 -0.265203 0.894634 -0.51958 0.707107 -0.707107 
C 0.51958 -0.894634 0.265203 -1 0 -1 
C -0.265203 -1 -0.51958 -0.894634 -0.707107 -0.707107 
C -0.894634 -0.51958 -1 -0.265203 -1 0 
C -1 0.265203 -0.894634 0.51958 -0.707107 0.707107 
C -0.51958 0.894634 -0.265203 1 0 1 
z
" id="m603641ee13" style="stroke:#1f77b4;"/>
    </defs>
    <g clip-path="url(#pa9300669b3)">
     <use style="fill:#1f77b4;stroke:#1f77b4;" x="95.604155" xlink:href="#m603641ee13" y="484.078511"/>
     <use style="fill:#1f77b4;stroke:#1f77b4;" x="106.91009" xlink:href="#m603641ee13" y="484.046504"/>
     <use style="fill:#1f77b4;stroke:#1f77b4;" x="130.805948" xlink:href="#m603641ee13" y="484.232727"/>
     <use style="fill:#1f77b4;stroke:#1f77b4;" x="144.681995" xlink:href="#m603641ee13" y="484.19781"/>
     <use style="fill:#1f77b4;stroke:#1f77b4;" x="154.566342" xlink:href="#m603641ee13" y="483.895198"/>
     <use style="fill:#1f77b4;stroke:#1f77b4;" x="166.321124" xlink:href="#m603641ee13" y="482.035879"/>
     <use style="fill:#1f77b4;stroke:#1f77b4;" x="177.180663" xlink:href="#m603641ee13" y="474.578232"/>
     <use style="fill:#1f77b4;stroke:#1f77b4;" x="188.206983" xlink:href="#m603641ee13" y="453.890029"/>
     <use style="fill:#1f77b4;stroke:#1f77b4;" x="199.2592" xlink:href="#m603641ee13" y="410.424434"/>
     <use style="fill:#1f77b4;stroke:#1f77b4;" x="210.357721" xlink:href="#m603641ee13" y="337.270831"/>
     <use style="fill:#1f77b4;stroke:#1f77b4;" x="221.527474" xlink:href="#m603641ee13" y="247.138934"/>
     <use style="fill:#1f77b4;stroke:#1f77b4;" x="232.689998" xlink:href="#m603641ee13" y="160.260119"/>
     <use style="fill:#1f77b4;stroke:#1f77b4;" x="243.863793" xlink:href="#m603641ee13" y="102.01017"/>
     <use style="fill:#1f77b4;stroke:#1f77b4;" x="255.069819" xlink:href="#m603641ee13" y="88.887273"/>
     <use style="fill:#1f77b4;stroke:#1f77b4;" x="266.300534" xlink:href="#m603641ee13" y="117.370651"/>
     <use style="fill:#1f77b4;stroke:#1f77b4;" x="277.559098" xlink:href="#m603641ee13" y="180.171424"/>
     <use style="fill:#1f77b4;stroke:#1f77b4;" x="288.792639" xlink:href="#m603641ee13" y="254.064099"/>
     <use style="fill:#1f77b4;stroke:#1f77b4;" x="300.122477" xlink:href="#m603641ee13" y="322.169315"/>
     <use style="fill:#1f77b4;stroke:#1f77b4;" x="311.393257" xlink:href="#m603641ee13" y="378.539577"/>
     <use style="fill:#1f77b4;stroke:#1f77b4;" x="322.708594" xlink:href="#m603641ee13" y="419.258384"/>
     <use style="fill:#1f77b4;stroke:#1f77b4;" x="334.06461" xlink:href="#m603641ee13" y="447.162726"/>
     <use style="fill:#1f77b4;stroke:#1f77b4;" x="345.270677" xlink:href="#m603641ee13" y="463.91115"/>
     <use style="fill:#1f77b4;stroke:#1f77b4;" x="356.627027" xlink:href="#m603641ee13" y="473.245575"/>
     <use style="fill:#1f77b4;stroke:#1f77b4;" x="367.851232" xlink:href="#m603641ee13" y="478.654769"/>
     <use style="fill:#1f77b4;stroke:#1f77b4;" x="379.64073" xlink:href="#m603641ee13" y="481.384098"/>
     <use style="fill:#1f77b4;stroke:#1f77b4;" x="390.553014" xlink:href="#m603641ee13" y="482.617825"/>
     <use style="fill:#1f77b4;stroke:#1f77b4;" x="402.156843" xlink:href="#m603641ee13" y="483.368537"/>
     <use style="fill:#1f77b4;stroke:#1f77b4;" x="413.092437" xlink:href="#m603641ee13" y="483.66242"/>
     <use style="fill:#1f77b4;stroke:#1f77b4;" x="425.526042" xlink:href="#m603641ee13" y="483.752621"/>
     <use style="fill:#1f77b4;stroke:#1f77b4;" x="436.479206" xlink:href="#m603641ee13" y="483.749712"/>
     <use style="fill:#1f77b4;stroke:#1f77b4;" x="448.96128" xlink:href="#m603641ee13" y="483.825365"/>
     <use style="fill:#1f77b4;stroke:#1f77b4;" x="460.039772" xlink:href="#m603641ee13" y="483.857372"/>
     <use style="fill:#1f77b4;stroke:#1f77b4;" x="472.044194" xlink:href="#m603641ee13" y="483.819545"/>
     <use style="fill:#1f77b4;stroke:#1f77b4;" x="483.57005" xlink:href="#m603641ee13" y="483.869011"/>
     <use style="fill:#1f77b4;stroke:#1f77b4;" x="494.155597" xlink:href="#m603641ee13" y="483.857372"/>
     <use style="fill:#1f77b4;stroke:#1f77b4;" x="506.129842" xlink:href="#m603641ee13" y="483.775899"/>
     <use style="fill:#1f77b4;stroke:#1f77b4;" x="516.207347" xlink:href="#m603641ee13" y="483.796267"/>
     <use style="fill:#1f77b4;stroke:#1f77b4;" x="528.010613" xlink:href="#m603641ee13" y="483.822455"/>
     <use style="fill:#1f77b4;stroke:#1f77b4;" x="539.522971" xlink:href="#m603641ee13" y="483.755531"/>
     <use style="fill:#1f77b4;stroke:#1f77b4;" x="551.407198" xlink:href="#m603641ee13" y="483.790448"/>
     <use style="fill:#1f77b4;stroke:#1f77b4;" x="562.695481" xlink:href="#m603641ee13" y="483.866101"/>
     <use style="fill:#1f77b4;stroke:#1f77b4;" x="573.841886" xlink:href="#m603641ee13" y="483.860281"/>
     <use style="fill:#1f77b4;stroke:#1f77b4;" x="585.010554" xlink:href="#m603641ee13" y="483.857372"/>
     <use style="fill:#1f77b4;stroke:#1f77b4;" x="596.877122" xlink:href="#m603641ee13" y="483.816635"/>
     <use style="fill:#1f77b4;stroke:#1f77b4;" x="607.930466" xlink:href="#m603641ee13" y="483.796267"/>
     <use style="fill:#1f77b4;stroke:#1f77b4;" x="619.269617" xlink:href="#m603641ee13" y="483.804996"/>
     <use style="fill:#1f77b4;stroke:#1f77b4;" x="631.550014" xlink:href="#m603641ee13" y="483.784628"/>
     <use style="fill:#1f77b4;stroke:#1f77b4;" x="642.986018" xlink:href="#m603641ee13" y="483.831184"/>
    </g>
   </g>
   <g id="line2d_29">
    <path clip-path="url(#pa9300669b3)" d="M 95.604155 484.078511 
L 106.91009 484.046504 
M 130.805948 484.232727 
L 144.681995 484.19781 
L 154.566342 483.895198 
L 166.321124 482.035879 
L 177.180663 474.578232 
L 188.206983 453.890029 
L 199.2592 410.424434 
L 210.357721 337.270831 
L 221.527474 247.138934 
L 232.689998 160.260119 
L 243.863793 102.01017 
L 255.069819 88.887273 
L 266.300534 117.370651 
L 277.559098 180.171424 
L 288.792639 254.064099 
L 300.122477 322.169315 
L 311.393257 378.539577 
L 322.708594 419.258384 
L 334.06461 447.162726 
L 345.270677 463.91115 
L 356.627027 473.245575 
L 367.851232 478.654769 
L 379.64073 481.384098 
L 390.553014 482.617825 
L 402.156843 483.368537 
L 413.092437 483.66242 
L 425.526042 483.752621 
L 436.479206 483.749712 
L 448.96128 483.825365 
L 460.039772 483.857372 
L 472.044194 483.819545 
L 483.57005 483.869011 
L 494.155597 483.857372 
L 506.129842 483.775899 
L 516.207347 483.796267 
L 528.010613 483.822455 
L 539.522971 483.755531 
L 551.407198 483.790448 
L 562.695481 483.866101 
L 573.841886 483.860281 
L 585.010554 483.857372 
L 596.877122 483.816635 
L 607.930466 483.796267 
L 619.269617 483.804996 
L 631.550014 483.784628 
L 642.986018 483.831184 
" style="fill:none;stroke:#ff7f0e;stroke-linecap:square;"/>
    <defs>
     <path d="M 0 1 
C 0.265203 1 0.51958 0.894634 0.707107 0.707107 
C 0.894634 0.51958 1 0.265203 1 0 
C 1 -0.265203 0.894634 -0.51958 0.707107 -0.707107 
C 0.51958 -0.894634 0.265203 -1 0 -1 
C -0.265203 -1 -0.51958 -0.894634 -0.707107 -0.707107 
C -0.894634 -0.51958 -1 -0.265203 -1 0 
C -1 0.265203 -0.894634 0.51958 -0.707107 0.707107 
C -0.51958 0.894634 -0.265203 1 0 1 
z
" id="m1e335c2ae7" style="stroke:#ff7f0e;"/>
    </defs>
    <g clip-path="url(#pa9300669b3)">
     <use style="fill:#ff7f0e;stroke:#ff7f0e;" x="95.604155" xlink:href="#m1e335c2ae7" y="484.078511"/>
     <use style="fill:#ff7f0e;stroke:#ff7f0e;" x="106.91009" xlink:href="#m1e335c2ae7" y="484.046504"/>
     <use style="fill:#ff7f0e;stroke:#ff7f0e;" x="130.805948" xlink:href="#m1e335c2ae7" y="484.232727"/>
     <use style="fill:#ff7f0e;stroke:#ff7f0e;" x="144.681995" xlink:href="#m1e335c2ae7" y="484.19781"/>
     <use style="fill:#ff7f0e;stroke:#ff7f0e;" x="154.566342" xlink:href="#m1e335c2ae7" y="483.895198"/>
     <use style="fill:#ff7f0e;stroke:#ff7f0e;" x="166.321124" xlink:href="#m1e335c2ae7" y="482.035879"/>
     <use style="fill:#ff7f0e;stroke:#ff7f0e;" x="177.180663" xlink:href="#m1e335c2ae7" y="474.578232"/>
     <use style="fill:#ff7f0e;stroke:#ff7f0e;" x="188.206983" xlink:href="#m1e335c2ae7" y="453.890029"/>
     <use style="fill:#ff7f0e;stroke:#ff7f0e;" x="199.2592" xlink:href="#m1e335c2ae7" y="410.424434"/>
     <use style="fill:#ff7f0e;stroke:#ff7f0e;" x="210.357721" xlink:href="#m1e335c2ae7" y="337.270831"/>
     <use style="fill:#ff7f0e;stroke:#ff7f0e;" x="221.527474" xlink:href="#m1e335c2ae7" y="247.138934"/>
     <use style="fill:#ff7f0e;stroke:#ff7f0e;" x="232.689998" xlink:href="#m1e335c2ae7" y="160.260119"/>
     <use style="fill:#ff7f0e;stroke:#ff7f0e;" x="243.863793" xlink:href="#m1e335c2ae7" y="102.01017"/>
     <use style="fill:#ff7f0e;stroke:#ff7f0e;" x="255.069819" xlink:href="#m1e335c2ae7" y="88.887273"/>
     <use style="fill:#ff7f0e;stroke:#ff7f0e;" x="266.300534" xlink:href="#m1e335c2ae7" y="117.370651"/>
     <use style="fill:#ff7f0e;stroke:#ff7f0e;" x="277.559098" xlink:href="#m1e335c2ae7" y="180.171424"/>
     <use style="fill:#ff7f0e;stroke:#ff7f0e;" x="288.792639" xlink:href="#m1e335c2ae7" y="254.064099"/>
     <use style="fill:#ff7f0e;stroke:#ff7f0e;" x="300.122477" xlink:href="#m1e335c2ae7" y="322.169315"/>
     <use style="fill:#ff7f0e;stroke:#ff7f0e;" x="311.393257" xlink:href="#m1e335c2ae7" y="378.539577"/>
     <use style="fill:#ff7f0e;stroke:#ff7f0e;" x="322.708594" xlink:href="#m1e335c2ae7" y="419.258384"/>
     <use style="fill:#ff7f0e;stroke:#ff7f0e;" x="334.06461" xlink:href="#m1e335c2ae7" y="447.162726"/>
     <use style="fill:#ff7f0e;stroke:#ff7f0e;" x="345.270677" xlink:href="#m1e335c2ae7" y="463.91115"/>
     <use style="fill:#ff7f0e;stroke:#ff7f0e;" x="356.627027" xlink:href="#m1e335c2ae7" y="473.245575"/>
     <use style="fill:#ff7f0e;stroke:#ff7f0e;" x="367.851232" xlink:href="#m1e335c2ae7" y="478.654769"/>
     <use style="fill:#ff7f0e;stroke:#ff7f0e;" x="379.64073" xlink:href="#m1e335c2ae7" y="481.384098"/>
     <use style="fill:#ff7f0e;stroke:#ff7f0e;" x="390.553014" xlink:href="#m1e335c2ae7" y="482.617825"/>
     <use style="fill:#ff7f0e;stroke:#ff7f0e;" x="402.156843" xlink:href="#m1e335c2ae7" y="483.368537"/>
     <use style="fill:#ff7f0e;stroke:#ff7f0e;" x="413.092437" xlink:href="#m1e335c2ae7" y="483.66242"/>
     <use style="fill:#ff7f0e;stroke:#ff7f0e;" x="425.526042" xlink:href="#m1e335c2ae7" y="483.752621"/>
     <use style="fill:#ff7f0e;stroke:#ff7f0e;" x="436.479206" xlink:href="#m1e335c2ae7" y="483.749712"/>
     <use style="fill:#ff7f0e;stroke:#ff7f0e;" x="448.96128" xlink:href="#m1e335c2ae7" y="483.825365"/>
     <use style="fill:#ff7f0e;stroke:#ff7f0e;" x="460.039772" xlink:href="#m1e335c2ae7" y="483.857372"/>
     <use style="fill:#ff7f0e;stroke:#ff7f0e;" x="472.044194" xlink:href="#m1e335c2ae7" y="483.819545"/>
     <use style="fill:#ff7f0e;stroke:#ff7f0e;" x="483.57005" xlink:href="#m1e335c2ae7" y="483.869011"/>
     <use style="fill:#ff7f0e;stroke:#ff7f0e;" x="494.155597" xlink:href="#m1e335c2ae7" y="483.857372"/>
     <use style="fill:#ff7f0e;stroke:#ff7f0e;" x="506.129842" xlink:href="#m1e335c2ae7" y="483.775899"/>
     <use style="fill:#ff7f0e;stroke:#ff7f0e;" x="516.207347" xlink:href="#m1e335c2ae7" y="483.796267"/>
     <use style="fill:#ff7f0e;stroke:#ff7f0e;" x="528.010613" xlink:href="#m1e335c2ae7" y="483.822455"/>
     <use style="fill:#ff7f0e;stroke:#ff7f0e;" x="539.522971" xlink:href="#m1e335c2ae7" y="483.755531"/>
     <use style="fill:#ff7f0e;stroke:#ff7f0e;" x="551.407198" xlink:href="#m1e335c2ae7" y="483.790448"/>
     <use style="fill:#ff7f0e;stroke:#ff7f0e;" x="562.695481" xlink:href="#m1e335c2ae7" y="483.866101"/>
     <use style="fill:#ff7f0e;stroke:#ff7f0e;" x="573.841886" xlink:href="#m1e335c2ae7" y="483.860281"/>
     <use style="fill:#ff7f0e;stroke:#ff7f0e;" x="585.010554" xlink:href="#m1e335c2ae7" y="483.857372"/>
     <use style="fill:#ff7f0e;stroke:#ff7f0e;" x="596.877122" xlink:href="#m1e335c2ae7" y="483.816635"/>
     <use style="fill:#ff7f0e;stroke:#ff7f0e;" x="607.930466" xlink:href="#m1e335c2ae7" y="483.796267"/>
     <use style="fill:#ff7f0e;stroke:#ff7f0e;" x="619.269617" xlink:href="#m1e335c2ae7" y="483.804996"/>
     <use style="fill:#ff7f0e;stroke:#ff7f0e;" x="631.550014" xlink:href="#m1e335c2ae7" y="483.784628"/>
     <use style="fill:#ff7f0e;stroke:#ff7f0e;" x="642.986018" xlink:href="#m1e335c2ae7" y="483.831184"/>
    </g>
   </g>
   <g id="patch_7">
    <path d="M 90 504 
L 90 69.12 
" style="fill:none;stroke:#000000;stroke-linecap:square;stroke-linejoin:miter;stroke-width:0.8;"/>
   </g>
   <g id="patch_8">
    <path d="M 648 504 
L 648 69.12 
" style="fill:none;stroke:#000000;stroke-linecap:square;stroke-linejoin:miter;stroke-width:0.8;"/>
   </g>
   <g id="patch_9">
    <path d="M 90 504 
L 648 504 
" style="fill:none;stroke:#000000;stroke-linecap:square;stroke-linejoin:miter;stroke-width:0.8;"/>
   </g>
   <g id="patch_10">
    <path d="M 90 69.12 
L 648 69.12 
" style="fill:none;stroke:#000000;stroke-linecap:square;stroke-linejoin:miter;stroke-width:0.8;"/>
   </g>
  </g>
  <g id="axes_3">
   <g id="matplotlib.axis_4">
    <g id="xtick_7">
     <g id="line2d_30">
      <defs>
       <path d="M 0 0 
L 0 -3.5 
" id="m66411db881" style="stroke:#000000;stroke-width:0.8;"/>
      </defs>
      <g>
       <use style="stroke:#000000;stroke-width:0.8;" x="115.352956" xlink:href="#m66411db881" y="69.12"/>
      </g>
     </g>
     <g id="text_23">
      <!-- 0 -->
      <g transform="translate(112.171706 60.040313)scale(0.1 -0.1)">
       <use xlink:href="#DejaVuSans-48"/>
      </g>
     </g>
    </g>
    <g id="xtick_8">
     <g id="line2d_31">
      <g>
       <use style="stroke:#000000;stroke-width:0.8;" x="222.152836" xlink:href="#m66411db881" y="69.12"/>
      </g>
     </g>
     <g id="text_24">
      <!-- 20000 -->
      <g transform="translate(206.246586 60.040313)scale(0.1 -0.1)">
       <use xlink:href="#DejaVuSans-50"/>
       <use x="63.623047" xlink:href="#DejaVuSans-48"/>
       <use x="127.246094" xlink:href="#DejaVuSans-48"/>
       <use x="190.869141" xlink:href="#DejaVuSans-48"/>
       <use x="254.492188" xlink:href="#DejaVuSans-48"/>
      </g>
     </g>
    </g>
    <g id="xtick_9">
     <g id="line2d_32">
      <g>
       <use style="stroke:#000000;stroke-width:0.8;" x="328.952715" xlink:href="#m66411db881" y="69.12"/>
      </g>
     </g>
     <g id="text_25">
      <!-- 40000 -->
      <g transform="translate(313.046465 60.040313)scale(0.1 -0.1)">
       <use xlink:href="#DejaVuSans-52"/>
       <use x="63.623047" xlink:href="#DejaVuSans-48"/>
       <use x="127.246094" xlink:href="#DejaVuSans-48"/>
       <use x="190.869141" xlink:href="#DejaVuSans-48"/>
       <use x="254.492188" xlink:href="#DejaVuSans-48"/>
      </g>
     </g>
    </g>
    <g id="xtick_10">
     <g id="line2d_33">
      <g>
       <use style="stroke:#000000;stroke-width:0.8;" x="435.752595" xlink:href="#m66411db881" y="69.12"/>
      </g>
     </g>
     <g id="text_26">
      <!-- 60000 -->
      <g transform="translate(419.846345 60.040313)scale(0.1 -0.1)">
       <use xlink:href="#DejaVuSans-54"/>
       <use x="63.623047" xlink:href="#DejaVuSans-48"/>
       <use x="127.246094" xlink:href="#DejaVuSans-48"/>
       <use x="190.869141" xlink:href="#DejaVuSans-48"/>
       <use x="254.492188" xlink:href="#DejaVuSans-48"/>
      </g>
     </g>
    </g>
    <g id="xtick_11">
     <g id="line2d_34">
      <g>
       <use style="stroke:#000000;stroke-width:0.8;" x="542.552474" xlink:href="#m66411db881" y="69.12"/>
      </g>
     </g>
     <g id="text_27">
      <!-- 80000 -->
      <g transform="translate(526.646224 60.040313)scale(0.1 -0.1)">
       <use xlink:href="#DejaVuSans-56"/>
       <use x="63.623047" xlink:href="#DejaVuSans-48"/>
       <use x="127.246094" xlink:href="#DejaVuSans-48"/>
       <use x="190.869141" xlink:href="#DejaVuSans-48"/>
       <use x="254.492188" xlink:href="#DejaVuSans-48"/>
      </g>
     </g>
    </g>
   </g>
   <g id="line2d_35">
    <path clip-path="url(#pa9300669b3)" d="M 115.539856 498.470492 
L 116.137935 489.405351 
L 117.638474 480.291043 
L 121.606089 471.887767 
L 131.212738 463.115885 
L 148.706559 454.4123 
L 180.559623 445.608224 
L 227.50351 436.894203 
L 290.899918 428.097036 
L 368.041471 419.339556 
L 451.542957 410.572033 
L 526.778132 401.758234 
L 586.377805 392.91724 
L 618.919728 384.145712 
L 622.636364 375.334078 
L 594.339736 366.514452 
L 548.004608 357.705541 
L 490.503553 348.890943 
L 425.232807 340.073594 
L 359.353301 331.195429 
L 303.710564 322.390245 
L 255.581198 313.553784 
L 214.356445 304.655379 
L 185.621937 295.849613 
L 162.088584 286.993334 
L 146.122002 278.144495 
L 136.307093 269.204757 
L 129.119461 260.573306 
L 123.667327 251.58141 
L 120.73033 242.668604 
L 118.722493 233.772622 
L 117.558374 224.814551 
L 116.890875 215.672195 
L 116.303475 206.697877 
L 116.180655 198.308317 
L 115.918996 188.919071 
L 115.764136 181.329217 
L 115.737436 171.354192 
L 115.513156 162.593099 
L 115.507816 152.788991 
L 115.433056 142.455736 
L 115.459756 135.989776 
L 115.427716 127.753464 
L 115.411696 118.628645 
L 115.379656 107.964238 
L 115.411696 101.208646 
L 115.374316 91.596862 
L 115.363636 82.454478 
L 115.363636 72.494118 
" style="fill:none;stroke:#1f77b4;stroke-linecap:square;"/>
    <g clip-path="url(#pa9300669b3)">
     <use style="fill:#1f77b4;stroke:#1f77b4;" x="115.539856" xlink:href="#m603641ee13" y="498.470492"/>
     <use style="fill:#1f77b4;stroke:#1f77b4;" x="116.137935" xlink:href="#m603641ee13" y="489.405351"/>
     <use style="fill:#1f77b4;stroke:#1f77b4;" x="117.638474" xlink:href="#m603641ee13" y="480.291043"/>
     <use style="fill:#1f77b4;stroke:#1f77b4;" x="121.606089" xlink:href="#m603641ee13" y="471.887767"/>
     <use style="fill:#1f77b4;stroke:#1f77b4;" x="131.212738" xlink:href="#m603641ee13" y="463.115885"/>
     <use style="fill:#1f77b4;stroke:#1f77b4;" x="148.706559" xlink:href="#m603641ee13" y="454.4123"/>
     <use style="fill:#1f77b4;stroke:#1f77b4;" x="180.559623" xlink:href="#m603641ee13" y="445.608224"/>
     <use style="fill:#1f77b4;stroke:#1f77b4;" x="227.50351" xlink:href="#m603641ee13" y="436.894203"/>
     <use style="fill:#1f77b4;stroke:#1f77b4;" x="290.899918" xlink:href="#m603641ee13" y="428.097036"/>
     <use style="fill:#1f77b4;stroke:#1f77b4;" x="368.041471" xlink:href="#m603641ee13" y="419.339556"/>
     <use style="fill:#1f77b4;stroke:#1f77b4;" x="451.542957" xlink:href="#m603641ee13" y="410.572033"/>
     <use style="fill:#1f77b4;stroke:#1f77b4;" x="526.778132" xlink:href="#m603641ee13" y="401.758234"/>
     <use style="fill:#1f77b4;stroke:#1f77b4;" x="586.377805" xlink:href="#m603641ee13" y="392.91724"/>
     <use style="fill:#1f77b4;stroke:#1f77b4;" x="618.919728" xlink:href="#m603641ee13" y="384.145712"/>
     <use style="fill:#1f77b4;stroke:#1f77b4;" x="622.636364" xlink:href="#m603641ee13" y="375.334078"/>
     <use style="fill:#1f77b4;stroke:#1f77b4;" x="594.339736" xlink:href="#m603641ee13" y="366.514452"/>
     <use style="fill:#1f77b4;stroke:#1f77b4;" x="548.004608" xlink:href="#m603641ee13" y="357.705541"/>
     <use style="fill:#1f77b4;stroke:#1f77b4;" x="490.503553" xlink:href="#m603641ee13" y="348.890943"/>
     <use style="fill:#1f77b4;stroke:#1f77b4;" x="425.232807" xlink:href="#m603641ee13" y="340.073594"/>
     <use style="fill:#1f77b4;stroke:#1f77b4;" x="359.353301" xlink:href="#m603641ee13" y="331.195429"/>
     <use style="fill:#1f77b4;stroke:#1f77b4;" x="303.710564" xlink:href="#m603641ee13" y="322.390245"/>
     <use style="fill:#1f77b4;stroke:#1f77b4;" x="255.581198" xlink:href="#m603641ee13" y="313.553784"/>
     <use style="fill:#1f77b4;stroke:#1f77b4;" x="214.356445" xlink:href="#m603641ee13" y="304.655379"/>
     <use style="fill:#1f77b4;stroke:#1f77b4;" x="185.621937" xlink:href="#m603641ee13" y="295.849613"/>
     <use style="fill:#1f77b4;stroke:#1f77b4;" x="162.088584" xlink:href="#m603641ee13" y="286.993334"/>
     <use style="fill:#1f77b4;stroke:#1f77b4;" x="146.122002" xlink:href="#m603641ee13" y="278.144495"/>
     <use style="fill:#1f77b4;stroke:#1f77b4;" x="136.307093" xlink:href="#m603641ee13" y="269.204757"/>
     <use style="fill:#1f77b4;stroke:#1f77b4;" x="129.119461" xlink:href="#m603641ee13" y="260.573306"/>
     <use style="fill:#1f77b4;stroke:#1f77b4;" x="123.667327" xlink:href="#m603641ee13" y="251.58141"/>
     <use style="fill:#1f77b4;stroke:#1f77b4;" x="120.73033" xlink:href="#m603641ee13" y="242.668604"/>
     <use style="fill:#1f77b4;stroke:#1f77b4;" x="118.722493" xlink:href="#m603641ee13" y="233.772622"/>
     <use style="fill:#1f77b4;stroke:#1f77b4;" x="117.558374" xlink:href="#m603641ee13" y="224.814551"/>
     <use style="fill:#1f77b4;stroke:#1f77b4;" x="116.890875" xlink:href="#m603641ee13" y="215.672195"/>
     <use style="fill:#1f77b4;stroke:#1f77b4;" x="116.303475" xlink:href="#m603641ee13" y="206.697877"/>
     <use style="fill:#1f77b4;stroke:#1f77b4;" x="116.180655" xlink:href="#m603641ee13" y="198.308317"/>
     <use style="fill:#1f77b4;stroke:#1f77b4;" x="115.918996" xlink:href="#m603641ee13" y="188.919071"/>
     <use style="fill:#1f77b4;stroke:#1f77b4;" x="115.764136" xlink:href="#m603641ee13" y="181.329217"/>
     <use style="fill:#1f77b4;stroke:#1f77b4;" x="115.737436" xlink:href="#m603641ee13" y="171.354192"/>
     <use style="fill:#1f77b4;stroke:#1f77b4;" x="115.513156" xlink:href="#m603641ee13" y="162.593099"/>
     <use style="fill:#1f77b4;stroke:#1f77b4;" x="115.507816" xlink:href="#m603641ee13" y="152.788991"/>
     <use style="fill:#1f77b4;stroke:#1f77b4;" x="115.433056" xlink:href="#m603641ee13" y="142.455736"/>
     <use style="fill:#1f77b4;stroke:#1f77b4;" x="115.459756" xlink:href="#m603641ee13" y="135.989776"/>
     <use style="fill:#1f77b4;stroke:#1f77b4;" x="115.427716" xlink:href="#m603641ee13" y="127.753464"/>
     <use style="fill:#1f77b4;stroke:#1f77b4;" x="115.411696" xlink:href="#m603641ee13" y="118.628645"/>
     <use style="fill:#1f77b4;stroke:#1f77b4;" x="115.379656" xlink:href="#m603641ee13" y="107.964238"/>
     <use style="fill:#1f77b4;stroke:#1f77b4;" x="115.411696" xlink:href="#m603641ee13" y="101.208646"/>
     <use style="fill:#1f77b4;stroke:#1f77b4;" x="115.374316" xlink:href="#m603641ee13" y="91.596862"/>
     <use style="fill:#1f77b4;stroke:#1f77b4;" x="115.363636" xlink:href="#m603641ee13" y="82.454478"/>
     <use style="fill:#1f77b4;stroke:#1f77b4;" x="115.363636" xlink:href="#m603641ee13" y="72.494118"/>
    </g>
   </g>
   <g id="line2d_36">
    <path clip-path="url(#pa9300669b3)" d="M 115.539856 498.470492 
L 116.137935 489.405351 
L 117.638474 480.291043 
L 121.606089 471.887767 
L 131.212738 463.115885 
L 148.706559 454.4123 
L 180.559623 445.608224 
L 227.50351 436.894203 
L 290.899918 428.097036 
L 368.041471 419.339556 
L 451.542957 410.572033 
L 526.778132 401.758234 
L 586.377805 392.91724 
L 618.919728 384.145712 
L 622.636364 375.334078 
L 594.339736 366.514452 
L 548.004608 357.705541 
L 490.503553 348.890943 
L 425.232807 340.073594 
L 359.353301 331.195429 
L 303.710564 322.390245 
L 255.581198 313.553784 
L 214.356445 304.655379 
L 185.621937 295.849613 
L 162.088584 286.993334 
L 146.122002 278.144495 
L 136.307093 269.204757 
L 129.119461 260.573306 
L 123.667327 251.58141 
L 120.73033 242.668604 
L 118.722493 233.772622 
L 117.558374 224.814551 
L 116.890875 215.672195 
L 116.303475 206.697877 
L 116.180655 198.308317 
L 115.918996 188.919071 
L 115.764136 181.329217 
L 115.737436 171.354192 
L 115.513156 162.593099 
L 115.507816 152.788991 
L 115.433056 142.455736 
L 115.459756 135.989776 
L 115.427716 127.753464 
L 115.411696 118.628645 
L 115.379656 107.964238 
L 115.411696 101.208646 
L 115.374316 91.596862 
L 115.363636 82.454478 
L 115.363636 72.494118 
" style="fill:none;stroke:#ff7f0e;stroke-linecap:square;"/>
    <g clip-path="url(#pa9300669b3)">
     <use style="fill:#ff7f0e;stroke:#ff7f0e;" x="115.539856" xlink:href="#m1e335c2ae7" y="498.470492"/>
     <use style="fill:#ff7f0e;stroke:#ff7f0e;" x="116.137935" xlink:href="#m1e335c2ae7" y="489.405351"/>
     <use style="fill:#ff7f0e;stroke:#ff7f0e;" x="117.638474" xlink:href="#m1e335c2ae7" y="480.291043"/>
     <use style="fill:#ff7f0e;stroke:#ff7f0e;" x="121.606089" xlink:href="#m1e335c2ae7" y="471.887767"/>
     <use style="fill:#ff7f0e;stroke:#ff7f0e;" x="131.212738" xlink:href="#m1e335c2ae7" y="463.115885"/>
     <use style="fill:#ff7f0e;stroke:#ff7f0e;" x="148.706559" xlink:href="#m1e335c2ae7" y="454.4123"/>
     <use style="fill:#ff7f0e;stroke:#ff7f0e;" x="180.559623" xlink:href="#m1e335c2ae7" y="445.608224"/>
     <use style="fill:#ff7f0e;stroke:#ff7f0e;" x="227.50351" xlink:href="#m1e335c2ae7" y="436.894203"/>
     <use style="fill:#ff7f0e;stroke:#ff7f0e;" x="290.899918" xlink:href="#m1e335c2ae7" y="428.097036"/>
     <use style="fill:#ff7f0e;stroke:#ff7f0e;" x="368.041471" xlink:href="#m1e335c2ae7" y="419.339556"/>
     <use style="fill:#ff7f0e;stroke:#ff7f0e;" x="451.542957" xlink:href="#m1e335c2ae7" y="410.572033"/>
     <use style="fill:#ff7f0e;stroke:#ff7f0e;" x="526.778132" xlink:href="#m1e335c2ae7" y="401.758234"/>
     <use style="fill:#ff7f0e;stroke:#ff7f0e;" x="586.377805" xlink:href="#m1e335c2ae7" y="392.91724"/>
     <use style="fill:#ff7f0e;stroke:#ff7f0e;" x="618.919728" xlink:href="#m1e335c2ae7" y="384.145712"/>
     <use style="fill:#ff7f0e;stroke:#ff7f0e;" x="622.636364" xlink:href="#m1e335c2ae7" y="375.334078"/>
     <use style="fill:#ff7f0e;stroke:#ff7f0e;" x="594.339736" xlink:href="#m1e335c2ae7" y="366.514452"/>
     <use style="fill:#ff7f0e;stroke:#ff7f0e;" x="548.004608" xlink:href="#m1e335c2ae7" y="357.705541"/>
     <use style="fill:#ff7f0e;stroke:#ff7f0e;" x="490.503553" xlink:href="#m1e335c2ae7" y="348.890943"/>
     <use style="fill:#ff7f0e;stroke:#ff7f0e;" x="425.232807" xlink:href="#m1e335c2ae7" y="340.073594"/>
     <use style="fill:#ff7f0e;stroke:#ff7f0e;" x="359.353301" xlink:href="#m1e335c2ae7" y="331.195429"/>
     <use style="fill:#ff7f0e;stroke:#ff7f0e;" x="303.710564" xlink:href="#m1e335c2ae7" y="322.390245"/>
     <use style="fill:#ff7f0e;stroke:#ff7f0e;" x="255.581198" xlink:href="#m1e335c2ae7" y="313.553784"/>
     <use style="fill:#ff7f0e;stroke:#ff7f0e;" x="214.356445" xlink:href="#m1e335c2ae7" y="304.655379"/>
     <use style="fill:#ff7f0e;stroke:#ff7f0e;" x="185.621937" xlink:href="#m1e335c2ae7" y="295.849613"/>
     <use style="fill:#ff7f0e;stroke:#ff7f0e;" x="162.088584" xlink:href="#m1e335c2ae7" y="286.993334"/>
     <use style="fill:#ff7f0e;stroke:#ff7f0e;" x="146.122002" xlink:href="#m1e335c2ae7" y="278.144495"/>
     <use style="fill:#ff7f0e;stroke:#ff7f0e;" x="136.307093" xlink:href="#m1e335c2ae7" y="269.204757"/>
     <use style="fill:#ff7f0e;stroke:#ff7f0e;" x="129.119461" xlink:href="#m1e335c2ae7" y="260.573306"/>
     <use style="fill:#ff7f0e;stroke:#ff7f0e;" x="123.667327" xlink:href="#m1e335c2ae7" y="251.58141"/>
     <use style="fill:#ff7f0e;stroke:#ff7f0e;" x="120.73033" xlink:href="#m1e335c2ae7" y="242.668604"/>
     <use style="fill:#ff7f0e;stroke:#ff7f0e;" x="118.722493" xlink:href="#m1e335c2ae7" y="233.772622"/>
     <use style="fill:#ff7f0e;stroke:#ff7f0e;" x="117.558374" xlink:href="#m1e335c2ae7" y="224.814551"/>
     <use style="fill:#ff7f0e;stroke:#ff7f0e;" x="116.890875" xlink:href="#m1e335c2ae7" y="215.672195"/>
     <use style="fill:#ff7f0e;stroke:#ff7f0e;" x="116.303475" xlink:href="#m1e335c2ae7" y="206.697877"/>
     <use style="fill:#ff7f0e;stroke:#ff7f0e;" x="116.180655" xlink:href="#m1e335c2ae7" y="198.308317"/>
     <use style="fill:#ff7f0e;stroke:#ff7f0e;" x="115.918996" xlink:href="#m1e335c2ae7" y="188.919071"/>
     <use style="fill:#ff7f0e;stroke:#ff7f0e;" x="115.764136" xlink:href="#m1e335c2ae7" y="181.329217"/>
     <use style="fill:#ff7f0e;stroke:#ff7f0e;" x="115.737436" xlink:href="#m1e335c2ae7" y="171.354192"/>
     <use style="fill:#ff7f0e;stroke:#ff7f0e;" x="115.513156" xlink:href="#m1e335c2ae7" y="162.593099"/>
     <use style="fill:#ff7f0e;stroke:#ff7f0e;" x="115.507816" xlink:href="#m1e335c2ae7" y="152.788991"/>
     <use style="fill:#ff7f0e;stroke:#ff7f0e;" x="115.433056" xlink:href="#m1e335c2ae7" y="142.455736"/>
     <use style="fill:#ff7f0e;stroke:#ff7f0e;" x="115.459756" xlink:href="#m1e335c2ae7" y="135.989776"/>
     <use style="fill:#ff7f0e;stroke:#ff7f0e;" x="115.427716" xlink:href="#m1e335c2ae7" y="127.753464"/>
     <use style="fill:#ff7f0e;stroke:#ff7f0e;" x="115.411696" xlink:href="#m1e335c2ae7" y="118.628645"/>
     <use style="fill:#ff7f0e;stroke:#ff7f0e;" x="115.379656" xlink:href="#m1e335c2ae7" y="107.964238"/>
     <use style="fill:#ff7f0e;stroke:#ff7f0e;" x="115.411696" xlink:href="#m1e335c2ae7" y="101.208646"/>
     <use style="fill:#ff7f0e;stroke:#ff7f0e;" x="115.374316" xlink:href="#m1e335c2ae7" y="91.596862"/>
     <use style="fill:#ff7f0e;stroke:#ff7f0e;" x="115.363636" xlink:href="#m1e335c2ae7" y="82.454478"/>
     <use style="fill:#ff7f0e;stroke:#ff7f0e;" x="115.363636" xlink:href="#m1e335c2ae7" y="72.494118"/>
    </g>
   </g>
   <g id="patch_11">
    <path d="M 90 504 
L 90 69.12 
" style="fill:none;stroke:#000000;stroke-linecap:square;stroke-linejoin:miter;stroke-width:0.8;"/>
   </g>
   <g id="patch_12">
    <path d="M 648 504 
L 648 69.12 
" style="fill:none;stroke:#000000;stroke-linecap:square;stroke-linejoin:miter;stroke-width:0.8;"/>
   </g>
   <g id="patch_13">
    <path d="M 90 504 
L 648 504 
" style="fill:none;stroke:#000000;stroke-linecap:square;stroke-linejoin:miter;stroke-width:0.8;"/>
   </g>
   <g id="patch_14">
    <path d="M 90 69.12 
L 648 69.12 
" style="fill:none;stroke:#000000;stroke-linecap:square;stroke-linejoin:miter;stroke-width:0.8;"/>
   </g>
  </g>
 </g>
 <defs>
  <clipPath id="pa9300669b3">
   <rect height="434.88" width="558" x="90" y="69.12"/>
  </clipPath>
 </defs>
</svg>
